SplineFontDB: 3.2
FontName: ZvvnMod
FullName: ZvvnMod
FamilyName: Mongolian
Weight: Regular
Copyright: Copyright (c) 2020, zorigt
UComments: "2020-7-28: Created with FontForge (http://fontforge.org)"
Version: 001.000
ItalicAngle: 0
UnderlinePosition: -99
UnderlineWidth: 48
Ascent: 800
Descent: 200
InvalidEm: 0
LayerCount: 2
Layer: 0 1 "Back" 1
Layer: 1 1 "Fore" 0
XUID: [1021 544 -1892048230 1922997]
FSType: 0
OS2Version: 3
OS2_WeightWidthSlopeOnly: 0
OS2_UseTypoMetrics: 0
CreationTime: 1595937272
ModificationTime: 1596761154
PfmFamily: 17
TTFWeight: 400
TTFWidth: 5
LineGap: 100
VLineGap: 0
OS2TypoAscent: 699
OS2TypoAOffset: 0
OS2TypoDescent: -209
OS2TypoDOffset: 0
OS2TypoLinegap: 100
OS2WinAscent: 906
OS2WinAOffset: 0
OS2WinDescent: 250
OS2WinDOffset: 0
HheadAscent: 699
HheadAOffset: 0
HheadDescent: -209
HheadDOffset: 0
OS2SubXSize: 700
OS2SubYSize: 650
OS2SubXOff: 0
OS2SubYOff: 140
OS2SupXSize: 700
OS2SupYSize: 650
OS2SupXOff: 0
OS2SupYOff: 477
OS2StrikeYSize: 50
OS2StrikeYPos: 243
OS2CapHeight: 662
OS2XHeight: 451
OS2Vendor: '    '
MarkAttachClasses: 1
DEI: 91125
LangName: 1033
Encoding: UnicodeBmp
UnicodeInterp: none
NameList: AGL For New Fonts
DisplaySize: -48
AntiAlias: 1
FitToEm: 0
WinInfo: 57380 38 13
BeginPrivate: 0
EndPrivate
TeXData: 1 0 0 290304 145152 96768 468992 -1048576 96768 783286 444596 497025 792723 393216 433062 380633 303038 157286 324010 404750 52429 2506097 1059062 262144
BeginChars: 65536 319

StartChar: uniE000
Encoding: 57344 57344 0
Width: 850
Flags: W
LayerCount: 2
Fore
SplineSet
291 327 m 5,0,1
 290 279 290 279 283.5 231 c 132,-1,2
 277 183 277 183 269 133 c 5,3,-1
 246 128 l 5,4,5
 233 154 233 154 224.5 186.5 c 132,-1,6
 216 219 216 219 210 250.5 c 132,-1,7
 204 282 204 282 201 308 c 132,-1,8
 198 334 198 334 198 346 c 6,9,-1
 198 439 l 6,10,11
 198 464 198 464 192.5 480 c 132,-1,12
 187 496 187 496 173 496 c 4,13,14
 163 496 163 496 154.5 494 c 132,-1,15
 146 492 146 492 139 488.5 c 132,-1,16
 132 485 132 485 125 481.5 c 132,-1,17
 118 478 118 478 108 470 c 4,18,19
 94 460 94 460 85 452 c 132,-1,20
 76 444 76 444 72 444 c 5,21,22
 65 451 65 451 59.5 458.5 c 132,-1,23
 54 466 54 466 54 472 c 5,24,25
 61 479 61 479 69.5 490 c 132,-1,26
 78 501 78 501 86 510 c 4,27,28
 128 557 128 557 158 579 c 132,-1,29
 188 601 188 601 209 601 c 4,30,31
 238 601 238 601 253.5 573.5 c 132,-1,32
 269 546 269 546 269 501 c 6,33,-1
 269 439 l 5,34,-1
 430 439 l 5,35,-1
 430 372 l 6,36,37
 430 349 430 349 438.5 319.5 c 132,-1,38
 447 290 447 290 460 261.5 c 132,-1,39
 473 233 473 233 486 210.5 c 132,-1,40
 499 188 499 188 511 178 c 5,41,42
 508 187 508 187 508 203 c 4,43,44
 508 213 508 213 509 226 c 4,45,46
 512 257 512 257 526 320 c 132,-1,47
 540 383 540 383 582.5 489.5 c 132,-1,48
 625 596 625 596 644.5 669 c 132,-1,49
 664 742 664 742 664 762 c 4,50,51
 664 775 664 775 661 791 c 132,-1,52
 658 807 658 807 655 824 c 132,-1,53
 652 841 652 841 649 855.5 c 132,-1,54
 646 870 646 870 646 874 c 4,55,56
 646 891 646 891 650.5 898.5 c 132,-1,57
 655 906 655 906 667 906 c 4,58,59
 670 906 670 906 676.5 897.5 c 132,-1,60
 683 889 683 889 690 877 c 4,61,62
 705 849 705 849 716.5 826 c 132,-1,63
 728 803 728 803 739 780 c 132,-1,64
 750 757 750 757 762 733 c 132,-1,65
 774 709 774 709 789 681 c 5,66,67
 744 623 744 623 712.5 577.5 c 132,-1,68
 681 532 681 532 647.5 448.5 c 132,-1,69
 614 365 614 365 586.5 266 c 132,-1,70
 559 167 559 167 559 71 c 5,71,72
 524 89 524 89 494.5 120 c 132,-1,73
 465 151 465 151 442.5 187 c 132,-1,74
 420 223 420 223 405.5 260 c 132,-1,75
 391 297 391 297 389 327 c 5,76,-1
 291 327 l 5,0,1
EndSplineSet
Validated: 1
EndChar

StartChar: uniE001
Encoding: 57345 57345 1
Width: 585
Flags: W
LayerCount: 2
Fore
SplineSet
260 327 m 1,0,1
 259 279 259 279 253 231 c 128,-1,2
 247 183 247 183 238 133 c 1,3,-1
 215 128 l 1,4,5
 202 154 202 154 194 186.5 c 128,-1,6
 186 219 186 219 179.5 250.5 c 128,-1,7
 173 282 173 282 170 308 c 128,-1,8
 167 334 167 334 167 346 c 2,9,-1
 167 439 l 2,10,11
 167 464 167 464 161.5 480 c 128,-1,12
 156 496 156 496 142 496 c 0,13,14
 132 496 132 496 124 494 c 128,-1,15
 116 492 116 492 109 488.5 c 128,-1,16
 102 485 102 485 94.5 481.5 c 128,-1,17
 87 478 87 478 77 470 c 0,18,19
 63 460 63 460 54 452 c 128,-1,20
 45 444 45 444 41 444 c 1,21,22
 34 451 34 451 28.5 458.5 c 128,-1,23
 23 466 23 466 23 472 c 1,24,25
 30 479 30 479 38.5 490 c 128,-1,26
 47 501 47 501 56 510 c 0,27,28
 98 557 98 557 127.5 579 c 128,-1,29
 157 601 157 601 178 601 c 0,30,31
 207 601 207 601 222.5 573.5 c 128,-1,32
 238 546 238 546 238 501 c 2,33,-1
 238 439 l 1,34,-1
 442 439 l 2,35,36
 504 439 504 439 535 383.5 c 128,-1,37
 566 328 566 328 566 214 c 2,38,-1
 566 11 l 2,39,40
 566 -31 566 -31 558.5 -62.5 c 128,-1,41
 551 -94 551 -94 536 -117.5 c 128,-1,42
 521 -141 521 -141 498.5 -157.5 c 128,-1,43
 476 -174 476 -174 448 -187 c 0,44,45
 431 -194 431 -194 421.5 -200 c 128,-1,46
 412 -206 412 -206 404.5 -212.5 c 128,-1,47
 397 -219 397 -219 392 -227.5 c 128,-1,48
 387 -236 387 -236 381 -250 c 1,49,-1
 370 -250 l 1,50,-1
 402 -110 l 1,51,52
 409 -108 409 -108 415.5 -106 c 128,-1,53
 422 -104 422 -104 430 -102 c 128,-1,54
 438 -100 438 -100 446.5 -95 c 128,-1,55
 455 -90 455 -90 467 -83 c 0,56,57
 474 -79 474 -79 484 -72.5 c 128,-1,58
 494 -66 494 -66 502 -55 c 128,-1,59
 510 -44 510 -44 515.5 -28 c 128,-1,60
 521 -12 521 -12 521 11 c 2,61,-1
 521 214 l 2,62,63
 521 270 521 270 500 298.5 c 128,-1,64
 479 327 479 327 442 327 c 2,65,-1
 260 327 l 1,0,1
EndSplineSet
Validated: 1
EndChar

StartChar: uniE002
Encoding: 57346 57346 2
Width: 698
Flags: W
LayerCount: 2
Fore
SplineSet
278 327 m 1,0,1
 277 279 277 279 270.5 231 c 128,-1,2
 264 183 264 183 256 133 c 1,3,-1
 233 128 l 1,4,5
 220 154 220 154 211.5 186.5 c 128,-1,6
 203 219 203 219 196.5 250.5 c 128,-1,7
 190 282 190 282 187.5 308 c 128,-1,8
 185 334 185 334 185 346 c 2,9,-1
 185 439 l 2,10,11
 185 464 185 464 179 480 c 128,-1,12
 173 496 173 496 160 496 c 0,13,14
 150 496 150 496 141.5 494 c 128,-1,15
 133 492 133 492 126 488.5 c 128,-1,16
 119 485 119 485 111.5 481.5 c 128,-1,17
 104 478 104 478 95 470 c 0,18,19
 81 460 81 460 72 452 c 128,-1,20
 63 444 63 444 59 444 c 1,21,22
 52 451 52 451 46.5 458.5 c 128,-1,23
 41 466 41 466 41 472 c 1,24,25
 48 479 48 479 56.5 490 c 128,-1,26
 65 501 65 501 73 510 c 0,27,28
 115 557 115 557 145 579 c 128,-1,29
 175 601 175 601 196 601 c 0,30,31
 225 601 225 601 240.5 573.5 c 128,-1,32
 256 546 256 546 256 501 c 2,33,-1
 256 439 l 1,34,-1
 378 439 l 1,35,36
 386 550 386 550 420.5 610.5 c 128,-1,37
 455 671 455 671 516 671 c 0,38,39
 550 671 550 671 574.5 648 c 128,-1,40
 599 625 599 625 612.5 588 c 128,-1,41
 626 551 626 551 631.5 505 c 128,-1,42
 637 459 637 459 637 413 c 0,43,44
 637 393 637 393 634.5 384.5 c 128,-1,45
 632 376 632 376 624 376 c 0,46,47
 618 376 618 376 614 384.5 c 128,-1,48
 610 393 610 393 608 401 c 0,49,50
 602 428 602 428 595.5 457.5 c 128,-1,51
 589 487 589 487 579.5 512 c 128,-1,52
 570 537 570 537 554.5 554 c 128,-1,53
 539 571 539 571 515 571 c 0,54,55
 487 571 487 571 467 556.5 c 128,-1,56
 447 542 447 542 432.5 516.5 c 128,-1,57
 418 491 418 491 411 457.5 c 128,-1,58
 404 424 404 424 404 387 c 0,59,60
 404 367 404 367 412.5 346.5 c 128,-1,61
 421 326 421 326 433 305.5 c 128,-1,62
 445 285 445 285 460 264.5 c 128,-1,63
 475 244 475 244 489 226.5 c 128,-1,64
 503 209 503 209 515.5 196 c 128,-1,65
 528 183 528 183 535 176 c 1,66,-1
 505 79 l 1,67,-1
 496 79 l 1,68,69
 475 103 475 103 453.5 135 c 128,-1,70
 432 167 432 167 415 201.5 c 128,-1,71
 398 236 398 236 388 268.5 c 128,-1,72
 378 301 378 301 378 327 c 1,73,-1
 278 327 l 1,0,1
EndSplineSet
Validated: 1
EndChar

StartChar: uniE003
Encoding: 57347 57347 3
Width: 631
Flags: W
LayerCount: 2
Fore
SplineSet
397 327 m 1,0,-1
 397 243 l 2,1,2
 397 207 397 207 419.5 189.5 c 128,-1,3
 442 172 442 172 479 172 c 0,4,5
 514 172 514 172 533.5 189.5 c 128,-1,6
 553 207 553 207 553 243 c 2,7,-1
 553 327 l 1,8,-1
 397 327 l 1,0,-1
260 327 m 1,9,10
 259 279 259 279 253 231 c 128,-1,11
 247 183 247 183 238 133 c 1,12,-1
 215 128 l 1,13,14
 202 154 202 154 194 186.5 c 128,-1,15
 186 219 186 219 179.5 250.5 c 128,-1,16
 173 282 173 282 170 308 c 128,-1,17
 167 334 167 334 167 346 c 2,18,-1
 167 439 l 2,19,20
 167 464 167 464 161.5 480 c 128,-1,21
 156 496 156 496 142 496 c 0,22,23
 132 496 132 496 124 494 c 128,-1,24
 116 492 116 492 109 488.5 c 128,-1,25
 102 485 102 485 94.5 481.5 c 128,-1,26
 87 478 87 478 77 470 c 0,27,28
 63 460 63 460 54 452 c 128,-1,29
 45 444 45 444 41 444 c 1,30,31
 34 451 34 451 28.5 458.5 c 128,-1,32
 23 466 23 466 23 472 c 1,33,34
 30 479 30 479 38.5 490 c 128,-1,35
 47 501 47 501 56 510 c 0,36,37
 98 557 98 557 127.5 579 c 128,-1,38
 157 601 157 601 178 601 c 0,39,40
 207 601 207 601 222.5 573.5 c 128,-1,41
 238 546 238 546 238 501 c 2,42,-1
 238 439 l 1,43,-1
 587 439 l 1,44,-1
 587 243 l 2,45,46
 587 168 587 168 560.5 126 c 128,-1,47
 534 84 534 84 478 84 c 0,48,49
 422 84 422 84 393.5 126 c 128,-1,50
 365 168 365 168 365 243 c 2,51,-1
 365 327 l 1,52,-1
 260 327 l 1,9,10
EndSplineSet
Validated: 1
EndChar

StartChar: uniE004
Encoding: 57348 57348 4
Width: 830
Flags: W
LayerCount: 2
Fore
SplineSet
397 327 m 5,0,-1
 397 243 l 6,1,2
 397 207 397 207 419.5 189.5 c 132,-1,3
 442 172 442 172 479 172 c 4,4,5
 514 172 514 172 533.5 189.5 c 132,-1,6
 553 207 553 207 553 243 c 6,7,-1
 553 327 l 5,8,-1
 397 327 l 5,0,-1
587 327 m 5,9,-1
 587 243 l 6,10,11
 587 168 587 168 560.5 126 c 132,-1,12
 534 84 534 84 478 84 c 4,13,14
 422 84 422 84 393.5 126 c 132,-1,15
 365 168 365 168 365 243 c 6,16,-1
 365 327 l 5,17,-1
 260 327 l 5,18,19
 259 279 259 279 253 231 c 132,-1,20
 247 183 247 183 238 133 c 5,21,-1
 215 128 l 5,22,23
 202 154 202 154 194 186.5 c 132,-1,24
 186 219 186 219 179.5 250.5 c 132,-1,25
 173 282 173 282 170 308 c 132,-1,26
 167 334 167 334 167 346 c 6,27,-1
 167 439 l 6,28,29
 167 464 167 464 161.5 480 c 132,-1,30
 156 496 156 496 142 496 c 4,31,32
 132 496 132 496 124 494 c 132,-1,33
 116 492 116 492 109 488.5 c 132,-1,34
 102 485 102 485 94.5 481.5 c 132,-1,35
 87 478 87 478 77 470 c 4,36,37
 63 460 63 460 54 452 c 132,-1,38
 45 444 45 444 41 444 c 5,39,40
 34 451 34 451 28.5 458.5 c 132,-1,41
 23 466 23 466 23 472 c 5,42,43
 30 479 30 479 38.5 490 c 132,-1,44
 47 501 47 501 56 510 c 4,45,46
 98 557 98 557 127.5 579 c 132,-1,47
 157 601 157 601 178 601 c 4,48,49
 207 601 207 601 222.5 573.5 c 132,-1,50
 238 546 238 546 238 501 c 6,51,-1
 238 439 l 5,52,-1
 697 439 l 5,53,54
 742 436 742 436 768 401.5 c 132,-1,55
 794 367 794 367 794 309 c 6,56,-1
 794 250 l 6,57,58
 794 215 794 215 782 193.5 c 132,-1,59
 770 172 770 172 752 172 c 5,60,-1
 752 183 l 6,61,62
 752 249 752 249 727 287 c 132,-1,63
 702 325 702 325 654 327 c 5,64,-1
 587 327 l 5,9,-1
EndSplineSet
Validated: 1
EndChar

StartChar: uniE005
Encoding: 57349 57349 5
Width: 537
Flags: W
LayerCount: 2
Fore
SplineSet
260 327 m 5,0,1
 259 279 259 279 253 231 c 132,-1,2
 247 183 247 183 238 133 c 5,3,-1
 215 128 l 5,4,5
 202 154 202 154 194 186.5 c 132,-1,6
 186 219 186 219 179.5 250.5 c 132,-1,7
 173 282 173 282 170 308 c 132,-1,8
 167 334 167 334 167 346 c 6,9,-1
 167 439 l 6,10,11
 167 464 167 464 161.5 480 c 132,-1,12
 156 496 156 496 142 496 c 4,13,14
 132 496 132 496 124 494 c 132,-1,15
 116 492 116 492 109 488.5 c 132,-1,16
 102 485 102 485 94.5 481.5 c 132,-1,17
 87 478 87 478 77 470 c 4,18,19
 63 460 63 460 54 452 c 132,-1,20
 45 444 45 444 41 444 c 5,21,22
 34 451 34 451 28.5 458.5 c 132,-1,23
 23 466 23 466 23 472 c 5,24,25
 30 479 30 479 38.5 490 c 132,-1,26
 47 501 47 501 56 510 c 4,27,28
 98 557 98 557 127.5 579 c 132,-1,29
 157 601 157 601 178 601 c 4,30,31
 207 601 207 601 222.5 573.5 c 132,-1,32
 238 546 238 546 238 501 c 6,33,-1
 238 439 l 5,34,-1
 586 439 l 5,35,-1
 586 327 l 5,36,-1
 458 327 l 5,37,38
 457 312 457 312 454 286 c 132,-1,39
 451 260 451 260 448 231 c 132,-1,40
 445 202 445 202 441.5 176 c 132,-1,41
 438 150 438 150 433 135 c 5,42,-1
 411 127 l 5,43,44
 391 173 391 173 380 224 c 132,-1,45
 369 275 369 275 365 327 c 5,46,-1
 260 327 l 5,0,1
EndSplineSet
Validated: 1
EndChar

StartChar: uniE006
Encoding: 57350 57350 6
Width: 341
Flags: W
LayerCount: 2
Fore
SplineSet
260 327 m 5,0,1
 259 279 259 279 253 231 c 132,-1,2
 247 183 247 183 238 133 c 5,3,-1
 215 128 l 5,4,5
 202 154 202 154 194 186.5 c 132,-1,6
 186 219 186 219 179.5 250.5 c 132,-1,7
 173 282 173 282 170 308 c 132,-1,8
 167 334 167 334 167 346 c 6,9,-1
 167 439 l 6,10,11
 167 464 167 464 161.5 480 c 132,-1,12
 156 496 156 496 142 496 c 4,13,14
 132 496 132 496 124 494 c 132,-1,15
 116 492 116 492 109 488.5 c 132,-1,16
 102 485 102 485 94.5 481.5 c 132,-1,17
 87 478 87 478 77 470 c 4,18,19
 63 460 63 460 54 452 c 132,-1,20
 45 444 45 444 41 444 c 5,21,22
 34 451 34 451 28.5 458.5 c 132,-1,23
 23 466 23 466 23 472 c 5,24,25
 30 479 30 479 38.5 490 c 132,-1,26
 47 501 47 501 56 510 c 4,27,28
 98 557 98 557 127.5 579 c 132,-1,29
 157 601 157 601 178 601 c 4,30,31
 207 601 207 601 222.5 573.5 c 132,-1,32
 238 546 238 546 238 501 c 6,33,-1
 238 439 l 5,34,-1
 391 439 l 5,35,-1
 391 327 l 5,36,-1
 260 327 l 5,0,1
EndSplineSet
Validated: 1
EndChar

StartChar: uniE007
Encoding: 57351 57351 7
Width: 585
Flags: W
LayerCount: 2
Fore
SplineSet
260 327 m 5,0,1
 259 279 259 279 253 231 c 132,-1,2
 247 183 247 183 238 133 c 5,3,-1
 215 128 l 5,4,5
 202 154 202 154 194 186.5 c 132,-1,6
 186 219 186 219 179.5 250.5 c 132,-1,7
 173 282 173 282 170 308 c 132,-1,8
 167 334 167 334 167 346 c 6,9,-1
 167 439 l 6,10,11
 167 464 167 464 161.5 480 c 132,-1,12
 156 496 156 496 142 496 c 4,13,14
 132 496 132 496 124 494 c 132,-1,15
 116 492 116 492 109 488.5 c 132,-1,16
 102 485 102 485 94.5 481.5 c 132,-1,17
 87 478 87 478 77 470 c 4,18,19
 63 460 63 460 54 452 c 132,-1,20
 45 444 45 444 41 444 c 5,21,22
 34 451 34 451 28.5 458.5 c 132,-1,23
 23 466 23 466 23 472 c 5,24,25
 30 479 30 479 38.5 490 c 132,-1,26
 47 501 47 501 56 510 c 4,27,28
 98 557 98 557 127.5 579 c 132,-1,29
 157 601 157 601 178 601 c 4,30,31
 207 601 207 601 222.5 573.5 c 132,-1,32
 238 546 238 546 238 501 c 6,33,-1
 238 439 l 5,34,-1
 635 439 l 5,35,-1
 635 327 l 5,36,-1
 404 327 l 5,37,-1
 531 146 l 5,38,-1
 531 130 l 5,39,-1
 504 2 l 5,40,-1
 490 2 l 5,41,-1
 361 327 l 5,42,-1
 260 327 l 5,0,1
EndSplineSet
Validated: 1
EndChar

StartChar: uniE008
Encoding: 57352 57352 8
Width: 634
Flags: W
LayerCount: 2
Fore
SplineSet
397 327 m 5,0,-1
 397 243 l 6,1,2
 397 207 397 207 419.5 189.5 c 132,-1,3
 442 172 442 172 479 172 c 4,4,5
 514 172 514 172 533.5 189.5 c 132,-1,6
 553 207 553 207 553 243 c 6,7,-1
 553 327 l 5,8,-1
 397 327 l 5,0,-1
587 327 m 5,9,-1
 587 243 l 6,10,11
 587 168 587 168 560.5 126 c 132,-1,12
 534 84 534 84 478 84 c 4,13,14
 422 84 422 84 393.5 126 c 132,-1,15
 365 168 365 168 365 243 c 6,16,-1
 365 327 l 5,17,-1
 260 327 l 5,18,19
 259 279 259 279 253 231 c 132,-1,20
 247 183 247 183 238 133 c 5,21,-1
 215 128 l 5,22,23
 202 154 202 154 194 186.5 c 132,-1,24
 186 219 186 219 179.5 250.5 c 132,-1,25
 173 282 173 282 170 308 c 132,-1,26
 167 334 167 334 167 346 c 6,27,-1
 167 439 l 6,28,29
 167 464 167 464 161.5 480 c 132,-1,30
 156 496 156 496 142 496 c 4,31,32
 132 496 132 496 124 494 c 132,-1,33
 116 492 116 492 109 488.5 c 132,-1,34
 102 485 102 485 94.5 481.5 c 132,-1,35
 87 478 87 478 77 470 c 4,36,37
 63 460 63 460 54 452 c 132,-1,38
 45 444 45 444 41 444 c 5,39,40
 34 451 34 451 28.5 458.5 c 132,-1,41
 23 466 23 466 23 472 c 5,42,43
 30 479 30 479 38.5 490 c 132,-1,44
 47 501 47 501 56 510 c 4,45,46
 98 557 98 557 127.5 579 c 132,-1,47
 157 601 157 601 178 601 c 4,48,49
 207 601 207 601 222.5 573.5 c 132,-1,50
 238 546 238 546 238 501 c 6,51,-1
 238 439 l 5,52,-1
 684 439 l 5,53,-1
 684 327 l 5,54,-1
 587 327 l 5,9,-1
EndSplineSet
Validated: 1
EndChar

StartChar: uniE009
Encoding: 57353 57353 9
Width: 878
Flags: W
LayerCount: 2
Fore
SplineSet
397 327 m 5,0,-1
 397 243 l 6,1,2
 397 207 397 207 419.5 189.5 c 132,-1,3
 442 172 442 172 479 172 c 4,4,5
 514 172 514 172 533.5 189.5 c 132,-1,6
 553 207 553 207 553 243 c 6,7,-1
 553 327 l 5,8,-1
 397 327 l 5,0,-1
587 327 m 5,9,-1
 587 243 l 6,10,11
 587 168 587 168 560.5 126 c 132,-1,12
 534 84 534 84 478 84 c 4,13,14
 422 84 422 84 393.5 126 c 132,-1,15
 365 168 365 168 365 243 c 6,16,-1
 365 327 l 5,17,-1
 260 327 l 5,18,19
 259 279 259 279 253 231 c 132,-1,20
 247 183 247 183 238 133 c 5,21,-1
 215 128 l 5,22,23
 202 154 202 154 194 186.5 c 132,-1,24
 186 219 186 219 179.5 250.5 c 132,-1,25
 173 282 173 282 170 308 c 132,-1,26
 167 334 167 334 167 346 c 6,27,-1
 167 439 l 6,28,29
 167 464 167 464 161.5 480 c 132,-1,30
 156 496 156 496 142 496 c 4,31,32
 132 496 132 496 124 494 c 132,-1,33
 116 492 116 492 109 488.5 c 132,-1,34
 102 485 102 485 94.5 481.5 c 132,-1,35
 87 478 87 478 77 470 c 4,36,37
 63 460 63 460 54 452 c 132,-1,38
 45 444 45 444 41 444 c 5,39,40
 34 451 34 451 28.5 458.5 c 132,-1,41
 23 466 23 466 23 472 c 5,42,43
 30 479 30 479 38.5 490 c 132,-1,44
 47 501 47 501 56 510 c 4,45,46
 98 557 98 557 127.5 579 c 132,-1,47
 157 601 157 601 178 601 c 4,48,49
 207 601 207 601 222.5 573.5 c 132,-1,50
 238 546 238 546 238 501 c 6,51,-1
 238 439 l 5,52,-1
 927 439 l 5,53,-1
 927 327 l 5,54,-1
 696 327 l 5,55,-1
 823 146 l 5,56,-1
 823 130 l 5,57,-1
 796 2 l 5,58,-1
 782 2 l 5,59,-1
 653 327 l 5,60,-1
 587 327 l 5,9,-1
EndSplineSet
Validated: 1
EndChar

StartChar: uniE00A
Encoding: 57354 57354 10
Width: 850
Flags: W
LayerCount: 2
Fore
SplineSet
254 -14 m 4,0,1
 254 -20 254 -20 249.5 -25 c 132,-1,2
 245 -30 245 -30 240 -35.5 c 132,-1,3
 235 -41 235 -41 227 -46.5 c 132,-1,4
 219 -52 219 -52 212 -60 c 4,5,6
 206 -68 206 -68 200.5 -75 c 132,-1,7
 195 -82 195 -82 191 -87 c 132,-1,8
 187 -92 187 -92 183.5 -95 c 132,-1,9
 180 -98 180 -98 175 -98 c 4,10,11
 165 -98 165 -98 157.5 -93.5 c 132,-1,12
 150 -89 150 -89 150 -76 c 4,13,14
 150 -62 150 -62 152 -51 c 132,-1,15
 154 -40 154 -40 159 -24 c 4,16,17
 162 -16 162 -16 167 -6.5 c 132,-1,18
 172 3 172 3 179 12 c 132,-1,19
 186 21 186 21 194 26 c 132,-1,20
 202 31 202 31 211 31 c 260,21,22
 220 31 220 31 233 20 c 4,23,24
 254 1 254 1 254 -14 c 4,0,1
291 327 m 1,25,26
 290 279 290 279 283.5 231 c 128,-1,27
 277 183 277 183 269 133 c 1,28,-1
 246 128 l 1,29,30
 233 154 233 154 224.5 186.5 c 128,-1,31
 216 219 216 219 210 250.5 c 128,-1,32
 204 282 204 282 201 308 c 128,-1,33
 198 334 198 334 198 346 c 2,34,-1
 198 439 l 2,35,36
 198 464 198 464 192.5 480 c 128,-1,37
 187 496 187 496 173 496 c 0,38,39
 163 496 163 496 154.5 494 c 128,-1,40
 146 492 146 492 139 488.5 c 128,-1,41
 132 485 132 485 125 481.5 c 128,-1,42
 118 478 118 478 108 470 c 0,43,44
 94 460 94 460 85 452 c 128,-1,45
 76 444 76 444 72 444 c 1,46,47
 65 451 65 451 59.5 458.5 c 128,-1,48
 54 466 54 466 54 472 c 1,49,50
 61 479 61 479 69.5 490 c 128,-1,51
 78 501 78 501 86 510 c 0,52,53
 128 557 128 557 158 579 c 128,-1,54
 188 601 188 601 209 601 c 0,55,56
 238 601 238 601 253.5 573.5 c 128,-1,57
 269 546 269 546 269 501 c 2,58,-1
 269 439 l 1,59,-1
 430 439 l 1,60,-1
 430 372 l 2,61,62
 430 349 430 349 438.5 319.5 c 128,-1,63
 447 290 447 290 460 261.5 c 128,-1,64
 473 233 473 233 486 210.5 c 128,-1,65
 499 188 499 188 511 178 c 1,66,67
 508 187 508 187 508 203 c 0,68,69
 508 213 508 213 509 226 c 0,70,71
 512 257 512 257 526 320 c 128,-1,72
 540 383 540 383 582.5 489.5 c 128,-1,73
 625 596 625 596 644.5 669 c 128,-1,74
 664 742 664 742 664 762 c 0,75,76
 664 775 664 775 661 791 c 128,-1,77
 658 807 658 807 655 824 c 128,-1,78
 652 841 652 841 649 855.5 c 128,-1,79
 646 870 646 870 646 874 c 0,80,81
 646 891 646 891 650.5 898.5 c 128,-1,82
 655 906 655 906 667 906 c 0,83,84
 670 906 670 906 676.5 897.5 c 128,-1,85
 683 889 683 889 690 877 c 0,86,87
 705 849 705 849 716.5 826 c 128,-1,88
 728 803 728 803 739 780 c 128,-1,89
 750 757 750 757 762 733 c 128,-1,90
 774 709 774 709 789 681 c 1,91,92
 744 623 744 623 712.5 577.5 c 128,-1,93
 681 532 681 532 647.5 448.5 c 128,-1,94
 614 365 614 365 586.5 266 c 128,-1,95
 559 167 559 167 559 71 c 1,96,97
 524 89 524 89 494.5 120 c 128,-1,98
 465 151 465 151 442.5 187 c 128,-1,99
 420 223 420 223 405.5 260 c 128,-1,100
 391 297 391 297 389 327 c 1,101,-1
 291 327 l 1,25,26
EndSplineSet
Validated: 1
EndChar

StartChar: uniE00B
Encoding: 57355 57355 11
Width: 698
Flags: W
LayerCount: 2
Fore
SplineSet
254 -14 m 4,0,1
 254 -20 254 -20 249.5 -25 c 132,-1,2
 245 -30 245 -30 240 -35.5 c 132,-1,3
 235 -41 235 -41 227 -46.5 c 132,-1,4
 219 -52 219 -52 212 -60 c 4,5,6
 206 -68 206 -68 200.5 -75 c 132,-1,7
 195 -82 195 -82 191 -87 c 132,-1,8
 187 -92 187 -92 183.5 -95 c 132,-1,9
 180 -98 180 -98 175 -98 c 4,10,11
 165 -98 165 -98 157.5 -93.5 c 132,-1,12
 150 -89 150 -89 150 -76 c 4,13,14
 150 -62 150 -62 152 -51 c 132,-1,15
 154 -40 154 -40 159 -24 c 4,16,17
 162 -16 162 -16 167 -6.5 c 132,-1,18
 172 3 172 3 179 12 c 132,-1,19
 186 21 186 21 194 26 c 132,-1,20
 202 31 202 31 211 31 c 260,21,22
 220 31 220 31 233 20 c 4,23,24
 254 1 254 1 254 -14 c 4,0,1
278 327 m 1,25,26
 277 279 277 279 270.5 231 c 128,-1,27
 264 183 264 183 256 133 c 1,28,-1
 233 128 l 1,29,30
 220 154 220 154 211.5 186.5 c 128,-1,31
 203 219 203 219 196.5 250.5 c 128,-1,32
 190 282 190 282 187.5 308 c 128,-1,33
 185 334 185 334 185 346 c 2,34,-1
 185 439 l 2,35,36
 185 464 185 464 179 480 c 128,-1,37
 173 496 173 496 160 496 c 0,38,39
 150 496 150 496 141.5 494 c 128,-1,40
 133 492 133 492 126 488.5 c 128,-1,41
 119 485 119 485 111.5 481.5 c 128,-1,42
 104 478 104 478 95 470 c 0,43,44
 81 460 81 460 72 452 c 128,-1,45
 63 444 63 444 59 444 c 1,46,47
 52 451 52 451 46.5 458.5 c 128,-1,48
 41 466 41 466 41 472 c 1,49,50
 48 479 48 479 56.5 490 c 128,-1,51
 65 501 65 501 73 510 c 0,52,53
 115 557 115 557 145 579 c 128,-1,54
 175 601 175 601 196 601 c 0,55,56
 225 601 225 601 240.5 573.5 c 128,-1,57
 256 546 256 546 256 501 c 2,58,-1
 256 439 l 1,59,-1
 378 439 l 1,60,61
 386 550 386 550 420.5 610.5 c 128,-1,62
 455 671 455 671 516 671 c 0,63,64
 550 671 550 671 574.5 648 c 128,-1,65
 599 625 599 625 612.5 588 c 128,-1,66
 626 551 626 551 631.5 505 c 128,-1,67
 637 459 637 459 637 413 c 0,68,69
 637 393 637 393 634.5 384.5 c 128,-1,70
 632 376 632 376 624 376 c 0,71,72
 618 376 618 376 614 384.5 c 128,-1,73
 610 393 610 393 608 401 c 0,74,75
 602 428 602 428 595.5 457.5 c 128,-1,76
 589 487 589 487 579.5 512 c 128,-1,77
 570 537 570 537 554.5 554 c 128,-1,78
 539 571 539 571 515 571 c 0,79,80
 487 571 487 571 467 556.5 c 128,-1,81
 447 542 447 542 432.5 516.5 c 128,-1,82
 418 491 418 491 411 457.5 c 128,-1,83
 404 424 404 424 404 387 c 0,84,85
 404 367 404 367 412.5 346.5 c 128,-1,86
 421 326 421 326 433 305.5 c 128,-1,87
 445 285 445 285 460 264.5 c 128,-1,88
 475 244 475 244 489 226.5 c 128,-1,89
 503 209 503 209 515.5 196 c 128,-1,90
 528 183 528 183 535 176 c 1,91,-1
 505 79 l 1,92,-1
 496 79 l 1,93,94
 475 103 475 103 453.5 135 c 128,-1,95
 432 167 432 167 415 201.5 c 128,-1,96
 398 236 398 236 388 268.5 c 128,-1,97
 378 301 378 301 378 327 c 1,98,-1
 278 327 l 1,25,26
EndSplineSet
Validated: 1
EndChar

StartChar: uniE00C
Encoding: 57356 57356 12
Width: 631
Flags: W
LayerCount: 2
Fore
SplineSet
254 -14 m 4,0,1
 254 -20 254 -20 249.5 -25 c 132,-1,2
 245 -30 245 -30 240 -35.5 c 132,-1,3
 235 -41 235 -41 227 -46.5 c 132,-1,4
 219 -52 219 -52 212 -60 c 4,5,6
 206 -68 206 -68 200.5 -75 c 132,-1,7
 195 -82 195 -82 191 -87 c 132,-1,8
 187 -92 187 -92 183.5 -95 c 132,-1,9
 180 -98 180 -98 175 -98 c 4,10,11
 165 -98 165 -98 157.5 -93.5 c 132,-1,12
 150 -89 150 -89 150 -76 c 4,13,14
 150 -62 150 -62 152 -51 c 132,-1,15
 154 -40 154 -40 159 -24 c 4,16,17
 162 -16 162 -16 167 -6.5 c 132,-1,18
 172 3 172 3 179 12 c 132,-1,19
 186 21 186 21 194 26 c 132,-1,20
 202 31 202 31 211 31 c 260,21,22
 220 31 220 31 233 20 c 4,23,24
 254 1 254 1 254 -14 c 4,0,1
397 327 m 1,25,-1
 397 243 l 2,26,27
 397 207 397 207 419.5 189.5 c 128,-1,28
 442 172 442 172 479 172 c 0,29,30
 514 172 514 172 533.5 189.5 c 128,-1,31
 553 207 553 207 553 243 c 2,32,-1
 553 327 l 1,33,-1
 397 327 l 1,25,-1
260 327 m 1,34,35
 259 279 259 279 253 231 c 128,-1,36
 247 183 247 183 238 133 c 1,37,-1
 215 128 l 1,38,39
 202 154 202 154 194 186.5 c 128,-1,40
 186 219 186 219 179.5 250.5 c 128,-1,41
 173 282 173 282 170 308 c 128,-1,42
 167 334 167 334 167 346 c 2,43,-1
 167 439 l 2,44,45
 167 464 167 464 161.5 480 c 128,-1,46
 156 496 156 496 142 496 c 0,47,48
 132 496 132 496 124 494 c 128,-1,49
 116 492 116 492 109 488.5 c 128,-1,50
 102 485 102 485 94.5 481.5 c 128,-1,51
 87 478 87 478 77 470 c 0,52,53
 63 460 63 460 54 452 c 128,-1,54
 45 444 45 444 41 444 c 1,55,56
 34 451 34 451 28.5 458.5 c 128,-1,57
 23 466 23 466 23 472 c 1,58,59
 30 479 30 479 38.5 490 c 128,-1,60
 47 501 47 501 56 510 c 0,61,62
 98 557 98 557 127.5 579 c 128,-1,63
 157 601 157 601 178 601 c 0,64,65
 207 601 207 601 222.5 573.5 c 128,-1,66
 238 546 238 546 238 501 c 2,67,-1
 238 439 l 1,68,-1
 587 439 l 1,69,-1
 587 243 l 2,70,71
 587 168 587 168 560.5 126 c 128,-1,72
 534 84 534 84 478 84 c 0,73,74
 422 84 422 84 393.5 126 c 128,-1,75
 365 168 365 168 365 243 c 2,76,-1
 365 327 l 1,77,-1
 260 327 l 1,34,35
EndSplineSet
Validated: 1
EndChar

StartChar: uniE00D
Encoding: 57357 57357 13
Width: 830
Flags: W
LayerCount: 2
Fore
SplineSet
254 -14 m 4,0,1
 254 -20 254 -20 249.5 -25 c 132,-1,2
 245 -30 245 -30 240 -35.5 c 132,-1,3
 235 -41 235 -41 227 -46.5 c 132,-1,4
 219 -52 219 -52 212 -60 c 4,5,6
 206 -68 206 -68 200.5 -75 c 132,-1,7
 195 -82 195 -82 191 -87 c 132,-1,8
 187 -92 187 -92 183.5 -95 c 132,-1,9
 180 -98 180 -98 175 -98 c 4,10,11
 165 -98 165 -98 157.5 -93.5 c 132,-1,12
 150 -89 150 -89 150 -76 c 4,13,14
 150 -62 150 -62 152 -51 c 132,-1,15
 154 -40 154 -40 159 -24 c 4,16,17
 162 -16 162 -16 167 -6.5 c 132,-1,18
 172 3 172 3 179 12 c 132,-1,19
 186 21 186 21 194 26 c 132,-1,20
 202 31 202 31 211 31 c 260,21,22
 220 31 220 31 233 20 c 4,23,24
 254 1 254 1 254 -14 c 4,0,1
397 327 m 1,25,-1
 397 243 l 2,26,27
 397 207 397 207 419.5 189.5 c 128,-1,28
 442 172 442 172 479 172 c 0,29,30
 514 172 514 172 533.5 189.5 c 128,-1,31
 553 207 553 207 553 243 c 2,32,-1
 553 327 l 1,33,-1
 397 327 l 1,25,-1
587 327 m 1,34,-1
 587 243 l 2,35,36
 587 168 587 168 560.5 126 c 128,-1,37
 534 84 534 84 478 84 c 0,38,39
 422 84 422 84 393.5 126 c 128,-1,40
 365 168 365 168 365 243 c 2,41,-1
 365 327 l 1,42,-1
 260 327 l 1,43,44
 259 279 259 279 253 231 c 128,-1,45
 247 183 247 183 238 133 c 1,46,-1
 215 128 l 1,47,48
 202 154 202 154 194 186.5 c 128,-1,49
 186 219 186 219 179.5 250.5 c 128,-1,50
 173 282 173 282 170 308 c 128,-1,51
 167 334 167 334 167 346 c 2,52,-1
 167 439 l 2,53,54
 167 464 167 464 161.5 480 c 128,-1,55
 156 496 156 496 142 496 c 0,56,57
 132 496 132 496 124 494 c 128,-1,58
 116 492 116 492 109 488.5 c 128,-1,59
 102 485 102 485 94.5 481.5 c 128,-1,60
 87 478 87 478 77 470 c 0,61,62
 63 460 63 460 54 452 c 128,-1,63
 45 444 45 444 41 444 c 1,64,65
 34 451 34 451 28.5 458.5 c 128,-1,66
 23 466 23 466 23 472 c 1,67,68
 30 479 30 479 38.5 490 c 128,-1,69
 47 501 47 501 56 510 c 0,70,71
 98 557 98 557 127.5 579 c 128,-1,72
 157 601 157 601 178 601 c 0,73,74
 207 601 207 601 222.5 573.5 c 128,-1,75
 238 546 238 546 238 501 c 2,76,-1
 238 439 l 1,77,-1
 697 439 l 1,78,79
 742 436 742 436 768 401.5 c 128,-1,80
 794 367 794 367 794 309 c 2,81,-1
 794 250 l 2,82,83
 794 215 794 215 782 193.5 c 128,-1,84
 770 172 770 172 752 172 c 1,85,-1
 752 183 l 2,86,87
 752 249 752 249 727 287 c 128,-1,88
 702 325 702 325 654 327 c 1,89,-1
 587 327 l 1,34,-1
EndSplineSet
Validated: 1
EndChar

StartChar: uniE00E
Encoding: 57358 57358 14
Width: 537
Flags: W
LayerCount: 2
Fore
SplineSet
286 -14 m 4,0,1
 286 -20 286 -20 282 -25 c 132,-1,2
 278 -30 278 -30 272.5 -35.5 c 132,-1,3
 267 -41 267 -41 259.5 -46.5 c 132,-1,4
 252 -52 252 -52 244 -60 c 4,5,6
 237 -68 237 -68 232 -75 c 132,-1,7
 227 -82 227 -82 223 -87 c 132,-1,8
 219 -92 219 -92 215.5 -95.5 c 132,-1,9
 212 -99 212 -99 208 -99 c 4,10,11
 197 -99 197 -99 190 -94 c 132,-1,12
 183 -89 183 -89 183 -77 c 4,13,14
 183 -62 183 -62 185 -50.5 c 132,-1,15
 187 -39 187 -39 192 -25 c 4,16,17
 195 -17 195 -17 200 -7 c 132,-1,18
 205 3 205 3 211.5 11.5 c 132,-1,19
 218 20 218 20 226 25.5 c 132,-1,20
 234 31 234 31 243 31 c 132,-1,21
 252 31 252 31 265 20 c 4,22,23
 286 1 286 1 286 -14 c 4,0,1
260 327 m 5,24,25
 259 279 259 279 253 231 c 132,-1,26
 247 183 247 183 238 133 c 5,27,-1
 215 128 l 5,28,29
 202 154 202 154 194 186.5 c 132,-1,30
 186 219 186 219 179.5 250.5 c 132,-1,31
 173 282 173 282 170 308 c 132,-1,32
 167 334 167 334 167 346 c 6,33,-1
 167 439 l 6,34,35
 167 464 167 464 161.5 480 c 132,-1,36
 156 496 156 496 142 496 c 4,37,38
 132 496 132 496 124 494 c 132,-1,39
 116 492 116 492 109 488.5 c 132,-1,40
 102 485 102 485 94.5 481.5 c 132,-1,41
 87 478 87 478 77 470 c 4,42,43
 63 460 63 460 54 452 c 132,-1,44
 45 444 45 444 41 444 c 5,45,46
 34 451 34 451 28.5 458.5 c 132,-1,47
 23 466 23 466 23 472 c 5,48,49
 30 479 30 479 38.5 490 c 132,-1,50
 47 501 47 501 56 510 c 4,51,52
 98 557 98 557 127.5 579 c 132,-1,53
 157 601 157 601 178 601 c 4,54,55
 207 601 207 601 222.5 573.5 c 132,-1,56
 238 546 238 546 238 501 c 6,57,-1
 238 439 l 5,58,-1
 586 439 l 5,59,-1
 586 327 l 5,60,-1
 458 327 l 5,61,62
 457 312 457 312 454 286 c 132,-1,63
 451 260 451 260 448 231 c 132,-1,64
 445 202 445 202 441.5 176 c 132,-1,65
 438 150 438 150 433 135 c 5,66,-1
 411 127 l 5,67,68
 391 173 391 173 380 224 c 132,-1,69
 369 275 369 275 365 327 c 5,70,-1
 260 327 l 5,24,25
EndSplineSet
Validated: 1
EndChar

StartChar: uniE00F
Encoding: 57359 57359 15
Width: 390
Flags: W
LayerCount: 2
Fore
SplineSet
135 -14 m 0,0,1
 135 -20 135 -20 131 -25 c 128,-1,2
 127 -30 127 -30 121.5 -35.5 c 128,-1,3
 116 -41 116 -41 108.5 -46.5 c 128,-1,4
 101 -52 101 -52 93 -60 c 0,5,6
 86 -68 86 -68 81 -75 c 128,-1,7
 76 -82 76 -82 72 -87 c 128,-1,8
 68 -92 68 -92 64 -95.5 c 128,-1,9
 60 -99 60 -99 56 -99 c 0,10,11
 45 -99 45 -99 38 -94 c 128,-1,12
 31 -89 31 -89 31 -77 c 0,13,14
 31 -62 31 -62 33.5 -50.5 c 128,-1,15
 36 -39 36 -39 41 -25 c 0,16,17
 44 -17 44 -17 48.5 -7 c 128,-1,18
 53 3 53 3 59.5 11.5 c 128,-1,19
 66 20 66 20 74 25.5 c 128,-1,20
 82 31 82 31 91 31 c 0,21,22
 101 31 101 31 114 20 c 0,23,24
 135 1 135 1 135 -14 c 0,0,1
116 327 m 1,25,26
 115 312 115 312 112 286 c 128,-1,27
 109 260 109 260 106.5 231 c 128,-1,28
 104 202 104 202 100 176 c 128,-1,29
 96 150 96 150 91 135 c 1,30,-1
 69 127 l 1,31,32
 49 173 49 173 38 224 c 128,-1,33
 27 275 27 275 23 327 c 1,34,-1
 0 327 l 1,35,-1
 0 439 l 1,36,-1
 439 439 l 1,37,-1
 439 327 l 1,38,-1
 312 327 l 1,39,40
 311 312 311 312 308 286 c 128,-1,41
 305 260 305 260 302 231 c 128,-1,42
 299 202 299 202 295 176 c 128,-1,43
 291 150 291 150 286 135 c 1,44,-1
 264 127 l 1,45,46
 244 173 244 173 233.5 224 c 128,-1,47
 223 275 223 275 218 327 c 1,48,-1
 116 327 l 1,25,26
EndSplineSet
Validated: 1
EndChar

StartChar: uniE010
Encoding: 57360 57360 16
Width: 671
Flags: W
LayerCount: 2
Fore
SplineSet
135 -14 m 0,0,1
 135 -20 135 -20 131 -25 c 128,-1,2
 127 -30 127 -30 121.5 -35.5 c 128,-1,3
 116 -41 116 -41 108.5 -46.5 c 128,-1,4
 101 -52 101 -52 93 -60 c 0,5,6
 86 -68 86 -68 81 -75 c 128,-1,7
 76 -82 76 -82 72 -87 c 128,-1,8
 68 -92 68 -92 64 -95.5 c 128,-1,9
 60 -99 60 -99 56 -99 c 0,10,11
 45 -99 45 -99 38 -94 c 128,-1,12
 31 -89 31 -89 31 -77 c 0,13,14
 31 -62 31 -62 33.5 -50.5 c 128,-1,15
 36 -39 36 -39 41 -25 c 0,16,17
 44 -17 44 -17 48.5 -7 c 128,-1,18
 53 3 53 3 59.5 11.5 c 128,-1,19
 66 20 66 20 74 25.5 c 128,-1,20
 82 31 82 31 91 31 c 0,21,22
 101 31 101 31 114 20 c 0,23,24
 135 1 135 1 135 -14 c 0,0,1
255 439 m 17,25,-1
 255 372 l 2,26,27
 255 349 255 349 263.5 319.5 c 128,-1,28
 272 290 272 290 284.5 261.5 c 128,-1,29
 297 233 297 233 310 210.5 c 128,-1,30
 323 188 323 188 335 178 c 1,31,32
 333 187 333 187 333 203 c 0,33,34
 333 213 333 213 334 226 c 0,35,36
 337 257 337 257 351 320 c 128,-1,37
 365 383 365 383 407 489.5 c 128,-1,38
 449 596 449 596 468.5 669 c 128,-1,39
 488 742 488 742 488 762 c 0,40,41
 488 774 488 774 485.5 790.5 c 128,-1,42
 483 807 483 807 480 824 c 128,-1,43
 477 841 477 841 474 855.5 c 128,-1,44
 471 870 471 870 471 874 c 0,45,46
 471 891 471 891 475.5 898.5 c 128,-1,47
 480 906 480 906 492 906 c 0,48,49
 495 906 495 906 501.5 897.5 c 128,-1,50
 508 889 508 889 515 877 c 0,51,52
 530 849 530 849 541.5 826 c 128,-1,53
 553 803 553 803 564 780 c 128,-1,54
 575 757 575 757 587 733 c 128,-1,55
 599 709 599 709 613 681 c 1,56,57
 568 623 568 623 536.5 577.5 c 128,-1,58
 505 532 505 532 472 448.5 c 128,-1,59
 439 365 439 365 411.5 266 c 128,-1,60
 384 167 384 167 384 71 c 1,61,62
 349 88 349 88 319.5 119.5 c 128,-1,63
 290 151 290 151 267.5 187 c 128,-1,64
 245 223 245 223 230.5 260 c 128,-1,65
 216 297 216 297 214 327 c 1,66,-1
 116 327 l 1,67,68
 115 312 115 312 112 286 c 128,-1,69
 109 260 109 260 106.5 231 c 128,-1,70
 104 202 104 202 100 176 c 128,-1,71
 96 150 96 150 91 135 c 1,72,-1
 69 127 l 1,73,74
 49 173 49 173 38 224 c 128,-1,75
 27 275 27 275 23 327 c 1,76,-1
 0 327 l 1,77,-1
 0 439 l 9,78,-1
 255 439 l 17,25,-1
EndSplineSet
Validated: 1
EndChar

StartChar: uniE011
Encoding: 57361 57361 17
Width: 677
Flags: W
LayerCount: 2
Fore
SplineSet
614 214 m 2,0,-1
 614 11 l 2,1,2
 614 -31 614 -31 606.5 -62.5 c 128,-1,3
 599 -94 599 -94 584 -117.5 c 128,-1,4
 569 -141 569 -141 546.5 -157.5 c 128,-1,5
 524 -174 524 -174 496 -187 c 0,6,7
 479 -194 479 -194 469 -200 c 128,-1,8
 459 -206 459 -206 452 -212.5 c 128,-1,9
 445 -219 445 -219 440 -227.5 c 128,-1,10
 435 -236 435 -236 429 -250 c 1,11,-1
 417 -250 l 1,12,-1
 450 -110 l 1,13,14
 457 -108 457 -108 463.5 -106 c 128,-1,15
 470 -104 470 -104 477.5 -102 c 128,-1,16
 485 -100 485 -100 493.5 -95 c 128,-1,17
 502 -90 502 -90 515 -83 c 0,18,19
 522 -79 522 -79 532 -72.5 c 128,-1,20
 542 -66 542 -66 550 -55 c 128,-1,21
 558 -44 558 -44 563.5 -28 c 128,-1,22
 569 -12 569 -12 569 11 c 2,23,-1
 569 214 l 2,24,25
 569 270 569 270 548 298.5 c 128,-1,26
 527 327 527 327 490 327 c 2,27,-1
 389 327 l 1,28,-1
 389 439 l 1,29,-1
 490 439 l 2,30,31
 552 439 552 439 583 383.5 c 128,-1,32
 614 328 614 328 614 214 c 2,0,-1
472 144 m 0,33,34
 472 137 472 137 467.5 132 c 128,-1,35
 463 127 463 127 458 122 c 128,-1,36
 453 117 453 117 445 110.5 c 128,-1,37
 437 104 437 104 430 98 c 0,38,39
 423 90 423 90 418 83 c 128,-1,40
 413 76 413 76 409 70.5 c 128,-1,41
 405 65 405 65 401.5 61.5 c 128,-1,42
 398 58 398 58 393 58 c 0,43,44
 383 58 383 58 375.5 63.5 c 128,-1,45
 368 69 368 69 368 80 c 0,46,47
 368 95 368 95 370.5 106.5 c 128,-1,48
 373 118 373 118 377 132 c 0,49,50
 380 142 380 142 385 151.5 c 128,-1,51
 390 161 390 161 397 169 c 128,-1,52
 404 177 404 177 412 182.5 c 128,-1,53
 420 188 420 188 429 188 c 0,54,55
 438 188 438 188 451 177 c 0,56,57
 472 159 472 159 472 144 c 0,33,34
417 681 m 1,58,59
 372 623 372 623 340.5 577.5 c 128,-1,60
 309 532 309 532 276 448.5 c 128,-1,61
 243 365 243 365 215.5 266 c 128,-1,62
 188 167 188 167 188 71 c 1,63,64
 153 89 153 89 123 120 c 128,-1,65
 93 151 93 151 70.5 187 c 128,-1,66
 48 223 48 223 34 260 c 128,-1,67
 20 297 20 297 18 327 c 1,68,-1
 0 327 l 1,69,-1
 0 439 l 1,70,-1
 59 439 l 1,71,-1
 59 372 l 2,72,73
 59 349 59 349 67.5 319.5 c 128,-1,74
 76 290 76 290 88.5 261.5 c 128,-1,75
 101 233 101 233 114 210.5 c 128,-1,76
 127 188 127 188 139 178 c 1,77,78
 136 187 136 187 136 203 c 0,79,80
 136 213 136 213 138 226 c 0,81,82
 141 257 141 257 154.5 320 c 128,-1,83
 168 383 168 383 210.5 489.5 c 128,-1,84
 253 596 253 596 272.5 669 c 128,-1,85
 292 742 292 742 292 762 c 0,86,87
 292 775 292 775 289.5 791 c 128,-1,88
 287 807 287 807 284 824 c 128,-1,89
 281 841 281 841 277.5 855.5 c 128,-1,90
 274 870 274 870 274 874 c 0,91,92
 274 891 274 891 278.5 898.5 c 128,-1,93
 283 906 283 906 295 906 c 0,94,95
 298 906 298 906 305 897.5 c 128,-1,96
 312 889 312 889 318 877 c 0,97,98
 333 849 333 849 344.5 826 c 128,-1,99
 356 803 356 803 367 780 c 128,-1,100
 378 757 378 757 390.5 733 c 128,-1,101
 403 709 403 709 417 681 c 1,58,59
EndSplineSet
Validated: 1
EndChar

StartChar: uniE012
Encoding: 57362 57362 18
Width: 585
Flags: W
LayerCount: 2
Fore
SplineSet
254 -14 m 4,0,1
 254 -20 254 -20 249.5 -25 c 132,-1,2
 245 -30 245 -30 240 -35.5 c 132,-1,3
 235 -41 235 -41 227 -46.5 c 132,-1,4
 219 -52 219 -52 212 -60 c 4,5,6
 206 -68 206 -68 200.5 -75 c 132,-1,7
 195 -82 195 -82 191 -87 c 132,-1,8
 187 -92 187 -92 183.5 -95 c 132,-1,9
 180 -98 180 -98 175 -98 c 4,10,11
 165 -98 165 -98 157.5 -93.5 c 132,-1,12
 150 -89 150 -89 150 -76 c 4,13,14
 150 -62 150 -62 152 -51 c 132,-1,15
 154 -40 154 -40 159 -24 c 4,16,17
 162 -16 162 -16 167 -6.5 c 132,-1,18
 172 3 172 3 179 12 c 132,-1,19
 186 21 186 21 194 26 c 132,-1,20
 202 31 202 31 211 31 c 260,21,22
 220 31 220 31 233 20 c 4,23,24
 254 1 254 1 254 -14 c 4,0,1
260 327 m 1,25,26
 259 279 259 279 253 231 c 128,-1,27
 247 183 247 183 238 133 c 1,28,-1
 215 128 l 1,29,30
 202 154 202 154 194 186.5 c 128,-1,31
 186 219 186 219 179.5 250.5 c 128,-1,32
 173 282 173 282 170 308 c 128,-1,33
 167 334 167 334 167 346 c 2,34,-1
 167 439 l 2,35,36
 167 464 167 464 161.5 480 c 128,-1,37
 156 496 156 496 142 496 c 0,38,39
 132 496 132 496 124 494 c 128,-1,40
 116 492 116 492 109 488.5 c 128,-1,41
 102 485 102 485 94.5 481.5 c 128,-1,42
 87 478 87 478 77 470 c 0,43,44
 63 460 63 460 54 452 c 128,-1,45
 45 444 45 444 41 444 c 1,46,47
 34 451 34 451 28.5 458.5 c 128,-1,48
 23 466 23 466 23 472 c 1,49,50
 30 479 30 479 38.5 490 c 128,-1,51
 47 501 47 501 56 510 c 0,52,53
 98 557 98 557 127.5 579 c 128,-1,54
 157 601 157 601 178 601 c 0,55,56
 207 601 207 601 222.5 573.5 c 128,-1,57
 238 546 238 546 238 501 c 2,58,-1
 238 439 l 1,59,-1
 635 439 l 1,60,-1
 635 327 l 1,61,-1
 404 327 l 1,62,-1
 531 146 l 1,63,-1
 531 130 l 1,64,-1
 504 2 l 1,65,-1
 490 2 l 1,66,-1
 361 327 l 1,67,-1
 260 327 l 1,25,26
EndSplineSet
Validated: 1
EndChar

StartChar: uniE013
Encoding: 57363 57363 19
Width: 439
Flags: W
LayerCount: 2
Fore
SplineSet
151 -14 m 4,0,1
 151 -20 151 -20 147 -25 c 132,-1,2
 143 -30 143 -30 138 -35.5 c 132,-1,3
 133 -41 133 -41 124.5 -46.5 c 132,-1,4
 116 -52 116 -52 109 -60 c 4,5,6
 103 -68 103 -68 97.5 -75 c 132,-1,7
 92 -82 92 -82 88 -87 c 132,-1,8
 84 -92 84 -92 81 -95 c 132,-1,9
 78 -98 78 -98 73 -98 c 4,10,11
 63 -98 63 -98 55 -93.5 c 132,-1,12
 47 -89 47 -89 47 -76 c 4,13,14
 47 -62 47 -62 49.5 -51 c 132,-1,15
 52 -40 52 -40 57 -24 c 4,16,17
 60 -16 60 -16 64.5 -6.5 c 132,-1,18
 69 3 69 3 76 12 c 132,-1,19
 83 21 83 21 91 26 c 132,-1,20
 99 31 99 31 108 31 c 260,21,22
 117 31 117 31 130 20 c 4,23,24
 151 1 151 1 151 -14 c 4,0,1
215 327 m 1,25,-1
 116 327 l 1,26,27
 115 312 115 312 112 286 c 128,-1,28
 109 260 109 260 106.5 231 c 128,-1,29
 104 202 104 202 100 176 c 128,-1,30
 96 150 96 150 91 135 c 1,31,-1
 69 127 l 1,32,33
 49 173 49 173 38 224 c 128,-1,34
 27 275 27 275 23 327 c 1,35,-1
 0 327 l 1,36,-1
 0 439 l 1,37,-1
 488 439 l 1,38,-1
 488 327 l 1,39,-1
 257 327 l 1,40,-1
 385 146 l 1,41,-1
 385 130 l 1,42,-1
 358 2 l 1,43,-1
 343 2 l 1,44,-1
 215 327 l 1,25,-1
EndSplineSet
Validated: 1
EndChar

StartChar: uniE014
Encoding: 57364 57364 20
Width: 482
Flags: W
LayerCount: 2
Fore
SplineSet
125 -14 m 0,0,1
 125 -20 125 -20 120.5 -25 c 128,-1,2
 116 -30 116 -30 111 -35.5 c 128,-1,3
 106 -41 106 -41 97.5 -46.5 c 128,-1,4
 89 -52 89 -52 83 -60 c 0,5,6
 77 -68 77 -68 71 -75 c 128,-1,7
 65 -82 65 -82 61.5 -87 c 128,-1,8
 58 -92 58 -92 54.5 -95 c 128,-1,9
 51 -98 51 -98 46 -98 c 0,10,11
 36 -98 36 -98 28.5 -93.5 c 128,-1,12
 21 -89 21 -89 21 -76 c 0,13,14
 21 -62 21 -62 23 -51 c 128,-1,15
 25 -40 25 -40 30 -24 c 0,16,17
 33 -16 33 -16 37.5 -6.5 c 128,-1,18
 42 3 42 3 49 12 c 128,-1,19
 56 21 56 21 64 26 c 128,-1,20
 72 31 72 31 82 31 c 256,21,22
 91 31 91 31 104 20 c 0,23,24
 125 1 125 1 125 -14 c 0,0,1
190 439 m 1,25,26
 194 494 194 494 208.5 528 c 128,-1,27
 223 562 223 562 241 580 c 128,-1,28
 259 598 259 598 278 604 c 128,-1,29
 297 610 297 610 310 610 c 0,30,31
 346 610 346 610 372 589 c 128,-1,32
 398 568 398 568 415 533 c 128,-1,33
 432 498 432 498 439.5 453.5 c 128,-1,34
 447 409 447 409 447 362 c 0,35,36
 447 343 447 343 445 334.5 c 128,-1,37
 443 326 443 326 435 326 c 0,38,39
 428 326 428 326 424 334 c 128,-1,40
 420 342 420 342 417 352 c 0,41,42
 412 378 412 378 406 405.5 c 128,-1,43
 400 433 400 433 389.5 456 c 128,-1,44
 379 479 379 479 360 494.5 c 128,-1,45
 341 510 341 510 310 510 c 0,46,47
 294 510 294 510 278 505 c 128,-1,48
 262 500 262 500 248.5 486 c 128,-1,49
 235 472 235 472 226 447.5 c 128,-1,50
 217 423 217 423 217 385 c 0,51,52
 217 363 217 363 226 343 c 128,-1,53
 235 323 235 323 248 305 c 128,-1,54
 261 287 261 287 276.5 270.5 c 128,-1,55
 292 254 292 254 303 241 c 1,56,-1
 286 138 l 1,57,-1
 278 138 l 1,58,59
 275 146 275 146 268 155.5 c 128,-1,60
 261 165 261 165 254 175.5 c 128,-1,61
 247 186 247 186 239 197.5 c 128,-1,62
 231 209 231 209 226 218 c 0,63,64
 219 228 219 228 213 240.5 c 128,-1,65
 207 253 207 253 201.5 267.5 c 128,-1,66
 196 282 196 282 193 297 c 128,-1,67
 190 312 190 312 190 327 c 1,68,-1
 94 327 l 1,69,70
 93 312 93 312 90 286 c 128,-1,71
 87 260 87 260 84 231 c 128,-1,72
 81 202 81 202 77 176 c 128,-1,73
 73 150 73 150 68 135 c 1,74,-1
 46 127 l 1,75,76
 26 173 26 173 15.5 224 c 128,-1,77
 5 275 5 275 0 327 c 1,78,-1
 0 439 l 1,79,-1
 190 439 l 1,25,26
EndSplineSet
Validated: 1
EndChar

StartChar: uniE015
Encoding: 57365 57365 21
Width: 634
Flags: W
LayerCount: 2
Fore
SplineSet
254 -14 m 4,0,1
 254 -20 254 -20 249.5 -25 c 132,-1,2
 245 -30 245 -30 240 -35.5 c 132,-1,3
 235 -41 235 -41 227 -46.5 c 132,-1,4
 219 -52 219 -52 212 -60 c 4,5,6
 206 -68 206 -68 200.5 -75 c 132,-1,7
 195 -82 195 -82 191 -87 c 132,-1,8
 187 -92 187 -92 183.5 -95 c 132,-1,9
 180 -98 180 -98 175 -98 c 4,10,11
 165 -98 165 -98 157.5 -93.5 c 132,-1,12
 150 -89 150 -89 150 -76 c 4,13,14
 150 -62 150 -62 152 -51 c 132,-1,15
 154 -40 154 -40 159 -24 c 4,16,17
 162 -16 162 -16 167 -6.5 c 132,-1,18
 172 3 172 3 179 12 c 132,-1,19
 186 21 186 21 194 26 c 132,-1,20
 202 31 202 31 211 31 c 260,21,22
 220 31 220 31 233 20 c 4,23,24
 254 1 254 1 254 -14 c 4,0,1
397 327 m 1,25,-1
 397 243 l 2,26,27
 397 207 397 207 419.5 189.5 c 128,-1,28
 442 172 442 172 479 172 c 0,29,30
 514 172 514 172 533.5 189.5 c 128,-1,31
 553 207 553 207 553 243 c 2,32,-1
 553 327 l 1,33,-1
 397 327 l 1,25,-1
587 327 m 1,34,-1
 587 243 l 2,35,36
 587 168 587 168 560.5 126 c 128,-1,37
 534 84 534 84 478 84 c 0,38,39
 422 84 422 84 393.5 126 c 128,-1,40
 365 168 365 168 365 243 c 2,41,-1
 365 327 l 1,42,-1
 260 327 l 1,43,44
 259 279 259 279 253 231 c 128,-1,45
 247 183 247 183 238 133 c 1,46,-1
 215 128 l 1,47,48
 202 154 202 154 194 186.5 c 128,-1,49
 186 219 186 219 179.5 250.5 c 128,-1,50
 173 282 173 282 170 308 c 128,-1,51
 167 334 167 334 167 346 c 2,52,-1
 167 439 l 2,53,54
 167 464 167 464 161.5 480 c 128,-1,55
 156 496 156 496 142 496 c 0,56,57
 132 496 132 496 124 494 c 128,-1,58
 116 492 116 492 109 488.5 c 128,-1,59
 102 485 102 485 94.5 481.5 c 128,-1,60
 87 478 87 478 77 470 c 0,61,62
 63 460 63 460 54 452 c 128,-1,63
 45 444 45 444 41 444 c 1,64,65
 34 451 34 451 28.5 458.5 c 128,-1,66
 23 466 23 466 23 472 c 1,67,68
 30 479 30 479 38.5 490 c 128,-1,69
 47 501 47 501 56 510 c 0,70,71
 98 557 98 557 127.5 579 c 128,-1,72
 157 601 157 601 178 601 c 0,73,74
 207 601 207 601 222.5 573.5 c 128,-1,75
 238 546 238 546 238 501 c 2,76,-1
 238 439 l 1,77,-1
 684 439 l 1,78,-1
 684 327 l 1,79,-1
 587 327 l 1,34,-1
EndSplineSet
Validated: 1
EndChar

StartChar: uniE016
Encoding: 57366 57366 22
Width: 488
Flags: W
LayerCount: 2
Fore
SplineSet
134 -14 m 4,0,1
 134 -20 134 -20 129.5 -25 c 132,-1,2
 125 -30 125 -30 120 -35.5 c 132,-1,3
 115 -41 115 -41 107 -46.5 c 132,-1,4
 99 -52 99 -52 92 -60 c 4,5,6
 86 -68 86 -68 80.5 -75 c 132,-1,7
 75 -82 75 -82 71 -87 c 132,-1,8
 67 -92 67 -92 63.5 -95 c 132,-1,9
 60 -98 60 -98 55 -98 c 4,10,11
 45 -98 45 -98 37.5 -93.5 c 132,-1,12
 30 -89 30 -89 30 -76 c 4,13,14
 30 -62 30 -62 32 -51 c 132,-1,15
 34 -40 34 -40 39 -24 c 4,16,17
 42 -16 42 -16 47 -6.5 c 132,-1,18
 52 3 52 3 58.5 12 c 132,-1,19
 65 21 65 21 73.5 26 c 132,-1,20
 82 31 82 31 91 31 c 260,21,22
 100 31 100 31 113 20 c 4,23,24
 134 1 134 1 134 -14 c 4,0,1
252 327 m 1,25,-1
 252 243 l 2,26,27
 252 207 252 207 274.5 189.5 c 128,-1,28
 297 172 297 172 333 172 c 0,29,30
 368 172 368 172 387.5 189.5 c 128,-1,31
 407 207 407 207 407 243 c 2,32,-1
 407 327 l 1,33,-1
 252 327 l 1,25,-1
116 327 m 1,34,35
 115 312 115 312 112 286 c 128,-1,36
 109 260 109 260 106.5 231 c 128,-1,37
 104 202 104 202 100 176 c 128,-1,38
 96 150 96 150 91 135 c 1,39,-1
 69 127 l 1,40,41
 49 173 49 173 38 224 c 128,-1,42
 27 275 27 275 23 327 c 1,43,-1
 0 327 l 1,44,-1
 0 439 l 1,45,-1
 537 439 l 1,46,-1
 537 327 l 1,47,-1
 441 327 l 1,48,-1
 441 243 l 2,49,50
 441 168 441 168 415 126 c 128,-1,51
 389 84 389 84 332 84 c 0,52,53
 276 84 276 84 248 126 c 128,-1,54
 220 168 220 168 220 243 c 2,55,-1
 220 327 l 1,56,-1
 116 327 l 1,34,35
EndSplineSet
Validated: 1
EndChar

StartChar: uniE017
Encoding: 57367 57367 23
Width: 601
Flags: W
LayerCount: 2
Fore
SplineSet
134 -14 m 4,0,1
 134 -20 134 -20 129.5 -25 c 132,-1,2
 125 -30 125 -30 120 -35.5 c 132,-1,3
 115 -41 115 -41 107 -46.5 c 132,-1,4
 99 -52 99 -52 92 -60 c 4,5,6
 86 -68 86 -68 80.5 -75 c 132,-1,7
 75 -82 75 -82 71 -87 c 132,-1,8
 67 -92 67 -92 63.5 -95 c 132,-1,9
 60 -98 60 -98 55 -98 c 4,10,11
 45 -98 45 -98 37.5 -93.5 c 132,-1,12
 30 -89 30 -89 30 -76 c 4,13,14
 30 -62 30 -62 32 -51 c 132,-1,15
 34 -40 34 -40 39 -24 c 4,16,17
 42 -16 42 -16 47 -6.5 c 132,-1,18
 52 3 52 3 58.5 12 c 132,-1,19
 65 21 65 21 73.5 26 c 132,-1,20
 82 31 82 31 91 31 c 260,21,22
 100 31 100 31 113 20 c 4,23,24
 134 1 134 1 134 -14 c 4,0,1
260 327 m 1,25,26
 260 294 260 294 261 266.5 c 128,-1,27
 262 239 262 239 269.5 218.5 c 128,-1,28
 277 198 277 198 293.5 185.5 c 128,-1,29
 310 173 310 173 339 173 c 256,30,31
 369 173 369 173 386 184.5 c 128,-1,32
 403 196 403 196 410 216.5 c 128,-1,33
 417 237 417 237 418.5 265.5 c 128,-1,34
 420 294 420 294 420 327 c 1,35,-1
 260 327 l 1,25,26
220 439 m 17,36,37
 230 563 230 563 271 628 c 0,38,39
 313 692 313 692 390 692 c 0,40,41
 429 692 429 692 457.5 672 c 128,-1,42
 486 652 486 652 506.5 616.5 c 128,-1,43
 527 581 527 581 537.5 531 c 128,-1,44
 548 481 548 481 548 423 c 0,45,46
 548 400 548 400 542.5 388 c 128,-1,47
 537 376 537 376 534 376 c 0,48,49
 526 376 526 376 522 386 c 128,-1,50
 518 396 518 396 512 424 c 1,51,52
 507 468 507 468 494 500 c 128,-1,53
 481 532 481 532 465.5 553 c 128,-1,54
 450 574 450 574 430.5 584.5 c 128,-1,55
 411 595 411 595 390 595 c 0,56,57
 289 595 289 595 262 439 c 1,58,-1
 407 439 l 2,59,60
 459 439 459 439 459 386 c 2,61,-1
 459 271 l 2,62,63
 459 237 459 237 454 204 c 128,-1,64
 449 171 449 171 434.5 144.5 c 128,-1,65
 420 118 420 118 397 102.5 c 128,-1,66
 374 87 374 87 339 87 c 0,67,68
 313 87 313 87 294.5 98.5 c 128,-1,69
 276 110 276 110 262.5 130 c 128,-1,70
 249 150 249 150 240.5 175 c 128,-1,71
 232 200 232 200 227.5 227 c 128,-1,72
 223 254 223 254 221.5 280 c 128,-1,73
 220 306 220 306 220 327 c 1,74,-1
 116 327 l 1,75,76
 115 312 115 312 112 286 c 128,-1,77
 109 260 109 260 106.5 231 c 128,-1,78
 104 202 104 202 100 176 c 128,-1,79
 96 150 96 150 91 135 c 1,80,-1
 69 127 l 1,81,82
 49 173 49 173 38 224 c 128,-1,83
 27 275 27 275 23 327 c 1,84,-1
 0 327 l 1,85,-1
 0 439 l 9,86,-1
 220 439 l 17,36,37
EndSplineSet
Validated: 1
EndChar

StartChar: uniE018
Encoding: 57368 57368 24
Width: 878
Flags: W
LayerCount: 2
Fore
SplineSet
282 -14 m 4,0,1
 282 -20 282 -20 277.5 -25 c 132,-1,2
 273 -30 273 -30 268.5 -35.5 c 132,-1,3
 264 -41 264 -41 255.5 -46.5 c 132,-1,4
 247 -52 247 -52 240 -60 c 4,5,6
 234 -68 234 -68 228.5 -75 c 132,-1,7
 223 -82 223 -82 219 -87 c 132,-1,8
 215 -92 215 -92 211.5 -95 c 132,-1,9
 208 -98 208 -98 204 -98 c 4,10,11
 194 -98 194 -98 186 -93.5 c 132,-1,12
 178 -89 178 -89 178 -76 c 4,13,14
 178 -62 178 -62 180.5 -51 c 4,15,16
 184 -40 184 -40 188 -24 c 4,17,18
 191 -16 191 -16 195.5 -6.5 c 132,-1,19
 200 3 200 3 207 12 c 132,-1,20
 214 21 214 21 222 26 c 132,-1,21
 230 31 230 31 239 31 c 260,22,23
 248 31 248 31 261 20 c 4,24,25
 282 1 282 1 282 -14 c 4,0,1
397 327 m 1,26,-1
 397 243 l 2,27,28
 397 207 397 207 419.5 189.5 c 128,-1,29
 442 172 442 172 479 172 c 0,30,31
 514 172 514 172 533.5 189.5 c 128,-1,32
 553 207 553 207 553 243 c 2,33,-1
 553 327 l 1,34,-1
 397 327 l 1,26,-1
587 327 m 1,35,-1
 587 243 l 2,36,37
 587 168 587 168 560.5 126 c 128,-1,38
 534 84 534 84 478 84 c 128,-1,39
 422 84 422 84 393.5 126 c 128,-1,40
 365 168 365 168 365 243 c 2,41,-1
 365 327 l 1,42,-1
 260 327 l 1,43,44
 259 279 259 279 253 231 c 128,-1,45
 247 183 247 183 238 133 c 1,46,-1
 215 128 l 1,47,48
 202 154 202 154 194 186.5 c 128,-1,49
 186 219 186 219 179.5 250.5 c 128,-1,50
 173 282 173 282 170 308 c 128,-1,51
 167 334 167 334 167 346 c 2,52,-1
 167 439 l 2,53,54
 167 464 167 464 161.5 480 c 128,-1,55
 156 496 156 496 142 496 c 0,56,57
 132 496 132 496 124 494 c 128,-1,58
 116 492 116 492 109 488.5 c 128,-1,59
 102 485 102 485 94.5 481.5 c 128,-1,60
 87 478 87 478 77 470 c 0,61,62
 63 460 63 460 54 452 c 128,-1,63
 45 444 45 444 41 444 c 1,64,65
 34 451 34 451 28.5 458.5 c 128,-1,66
 23 466 23 466 23 472 c 1,67,68
 30 479 30 479 38.5 490 c 128,-1,69
 47 501 47 501 56 510 c 0,70,71
 98 557 98 557 127.5 579 c 128,-1,72
 157 601 157 601 178 601 c 0,73,74
 207 601 207 601 222.5 573.5 c 128,-1,75
 238 546 238 546 238 501 c 2,76,-1
 238 439 l 1,77,-1
 927 439 l 1,78,-1
 927 327 l 1,79,-1
 696 327 l 1,80,-1
 823 146 l 1,81,-1
 823 130 l 1,82,-1
 796 2 l 1,83,-1
 782 2 l 1,84,-1
 653 327 l 1,85,-1
 587 327 l 1,35,-1
EndSplineSet
Validated: 1
EndChar

StartChar: uniE019
Encoding: 57369 57369 25
Width: 828
Flags: W
LayerCount: 2
Fore
SplineSet
265 327 m 1,0,-1
 103 327 l 1,1,2
 103 295 103 295 104 266.5 c 128,-1,3
 105 238 105 238 112.5 217 c 128,-1,4
 120 196 120 196 136.5 184 c 128,-1,5
 153 172 153 172 184 172 c 0,6,7
 215 172 215 172 231.5 183.5 c 128,-1,8
 248 195 248 195 255.5 215.5 c 128,-1,9
 263 236 263 236 264 264.5 c 128,-1,10
 265 293 265 293 265 327 c 1,0,-1
453 327 m 1,11,12
 452 312 452 312 449 286 c 128,-1,13
 446 260 446 260 443 231 c 128,-1,14
 440 202 440 202 436 176 c 128,-1,15
 432 150 432 150 427 135 c 1,16,-1
 405 127 l 1,17,18
 385 173 385 173 374.5 224 c 128,-1,19
 364 275 364 275 360 395 c 0,20,21
 359 433 359 433 350 469 c 0,22,23
 340 508 340 508 324 536 c 128,-1,24
 308 564 308 564 286 580 c 128,-1,25
 264 596 264 596 235 596 c 0,26,27
 134 596 134 596 105 439 c 1,28,-1
 253 439 l 2,29,30
 306 439 306 439 306 386 c 2,31,-1
 306 271 l 2,32,33
 306 235 306 235 299.5 201 c 128,-1,34
 293 167 293 167 279 141 c 128,-1,35
 265 115 265 115 242 99 c 128,-1,36
 219 83 219 83 184 83 c 0,37,38
 158 83 158 83 138.5 95 c 128,-1,39
 119 107 119 107 105.5 127 c 128,-1,40
 92 147 92 147 84 172.5 c 128,-1,41
 76 198 76 198 71 224.5 c 128,-1,42
 66 251 66 251 64.5 278 c 128,-1,43
 63 305 63 305 63 327 c 2,44,-1
 63 440 l 1,45,46
 72 565 72 565 114.5 630.5 c 128,-1,47
 157 696 157 696 235 696 c 0,48,49
 273 696 273 696 302.5 677.5 c 128,-1,50
 332 659 332 659 352.5 625 c 128,-1,51
 373 591 373 591 385.5 544 c 128,-1,52
 398 497 398 497 403 439 c 1,53,-1
 633 439 l 2,54,55
 695 439 695 439 726 383.5 c 128,-1,56
 757 328 757 328 757 214 c 2,57,-1
 757 11 l 2,58,59
 757 -31 757 -31 749.5 -62.5 c 128,-1,60
 742 -94 742 -94 727 -117.5 c 128,-1,61
 712 -141 712 -141 689.5 -157.5 c 128,-1,62
 667 -174 667 -174 639 -187 c 0,63,64
 622 -194 622 -194 612.5 -200 c 128,-1,65
 603 -206 603 -206 595.5 -212.5 c 128,-1,66
 588 -219 588 -219 583 -227.5 c 128,-1,67
 578 -236 578 -236 572 -250 c 1,68,-1
 561 -250 l 1,69,-1
 593 -110 l 1,70,71
 600 -108 600 -108 606.5 -106 c 128,-1,72
 613 -104 613 -104 620.5 -102 c 128,-1,73
 628 -100 628 -100 637 -95 c 128,-1,74
 646 -90 646 -90 658 -83 c 0,75,76
 665 -79 665 -79 675 -72.5 c 128,-1,77
 685 -66 685 -66 693 -55 c 128,-1,78
 701 -44 701 -44 706.5 -28 c 128,-1,79
 712 -12 712 -12 712 11 c 2,80,-1
 712 214 l 2,81,82
 712 270 712 270 691 298.5 c 128,-1,83
 670 327 670 327 633 327 c 2,84,-1
 453 327 l 1,11,12
EndSplineSet
Validated: 1
EndChar

StartChar: uniE01A
Encoding: 57370 57370 26
Width: 848
Flags: W
LayerCount: 2
Fore
SplineSet
261 327 m 1,0,-1
 100 327 l 1,1,2
 100 294 100 294 101 265.5 c 128,-1,3
 102 237 102 237 109 216 c 128,-1,4
 116 195 116 195 133 183 c 128,-1,5
 150 171 150 171 181 171 c 0,6,7
 211 171 211 171 227 182.5 c 128,-1,8
 243 194 243 194 251 215 c 128,-1,9
 259 236 259 236 260 264 c 128,-1,10
 261 292 261 292 261 327 c 1,0,-1
429 327 m 1,11,12
 438 292 438 292 451 264.5 c 128,-1,13
 464 237 464 237 477 216.5 c 128,-1,14
 490 196 490 196 503 181 c 128,-1,15
 516 166 516 166 523 154 c 1,16,-1
 504 55 l 1,17,-1
 490 55 l 1,18,19
 444 108 444 108 413 200 c 128,-1,20
 382 292 382 292 369 374.5 c 128,-1,21
 356 457 356 457 342.5 491 c 128,-1,22
 329 525 329 525 311 548 c 128,-1,23
 293 571 293 571 272.5 584 c 128,-1,24
 252 597 252 597 230 597 c 0,25,26
 130 597 130 597 102 439 c 1,27,-1
 249 439 l 2,28,29
 300.018867925 439 300.018867925 439 300.018867925 387.981132075 c 0,30,31
 300.018867925 387 300.018867925 387 300 386 c 2,32,-1
 300 270 l 2,33,34
 300 236 300 236 294.5 202.5 c 128,-1,35
 289 169 289 169 275 142.5 c 128,-1,36
 261 116 261 116 238 99.5 c 128,-1,37
 215 83 215 83 181 83 c 0,38,39
 154 83 154 83 134.5 95.5 c 128,-1,40
 115 108 115 108 102 128 c 128,-1,41
 89 148 89 148 80 173.5 c 128,-1,42
 71 199 71 199 66.5 225 c 128,-1,43
 62 251 62 251 61 278.5 c 128,-1,44
 60 306 60 306 60 327 c 2,45,-1
 60 440 l 1,46,47
 68 564 68 564 110.5 630 c 128,-1,48
 153 696 153 696 230 696 c 0,49,50
 269 696 269 696 298 672 c 128,-1,51
 327 648 327 648 347.5 611.5 c 128,-1,52
 368 575 368 575 380.5 529.5 c 128,-1,53
 393 484 393 484 397 439 c 1,54,-1
 674 439 l 1,55,56
 720 436 720 436 745.5 402 c 128,-1,57
 771 368 771 368 771 311 c 2,58,-1
 771 252 l 2,59,60
 771 217 771 217 759 195.5 c 128,-1,61
 747 174 747 174 728 174 c 1,62,-1
 728 185 l 2,63,64
 728 252 728 252 703.5 288.5 c 128,-1,65
 679 325 679 325 630 327 c 1,66,-1
 429 327 l 1,11,12
EndSplineSet
Validated: 1
EndChar

StartChar: uniE01B
Encoding: 57371 57371 27
Width: 534
Flags: W
LayerCount: 2
Fore
SplineSet
464 440 m 1,0,-1
 464 325 l 2,1,2
 464 273 464 273 458 232.5 c 128,-1,3
 452 192 452 192 439.5 163.5 c 128,-1,4
 427 135 427 135 408 120 c 128,-1,5
 389 105 389 105 360 105 c 0,6,7
 314 105 314 105 289.5 139.5 c 128,-1,8
 265 174 265 174 263 244 c 1,9,10
 261 175 261 175 236.5 140 c 128,-1,11
 212 105 212 105 166 105 c 0,12,13
 138 105 138 105 118 120 c 128,-1,14
 98 135 98 135 86 163.5 c 128,-1,15
 74 192 74 192 68.5 232.5 c 128,-1,16
 63 273 63 273 63 325 c 2,17,-1
 63 440 l 1,18,19
 66 502 66 502 84 550.5 c 128,-1,20
 102 599 102 599 129 631.5 c 128,-1,21
 156 664 156 664 191 681 c 128,-1,22
 226 698 226 698 265 698 c 0,23,24
 318 698 318 698 354 675.5 c 128,-1,25
 390 653 390 653 414 617 c 128,-1,26
 438 581 438 581 450 534 c 128,-1,27
 462 487 462 487 464 440 c 1,0,-1
416 439 m 1,28,29
 413 464 413 464 404 492.5 c 128,-1,30
 395 521 395 521 377 543.5 c 128,-1,31
 359 566 359 566 331.5 582 c 128,-1,32
 304 598 304 598 265 598 c 0,33,34
 239 598 239 598 213.5 587.5 c 128,-1,35
 188 577 188 577 166 557.5 c 128,-1,36
 144 538 144 538 128.5 508.5 c 128,-1,37
 113 479 113 479 106 439 c 1,38,-1
 209 439 l 2,39,40
 234 439 234 439 247.5 424 c 128,-1,41
 261 409 261 409 263 384 c 1,42,43
 264 409 264 409 277.5 424 c 128,-1,44
 291 439 291 439 317 439 c 2,45,-1
 416 439 l 1,28,29
224 327 m 1,46,-1
 104 327 l 1,47,48
 104 259 104 259 116 226 c 128,-1,49
 128 193 128 193 166 193 c 0,50,51
 185 193 185 193 196 200.5 c 128,-1,52
 207 208 207 208 212.5 224.5 c 128,-1,53
 218 241 218 241 221 265.5 c 128,-1,54
 224 290 224 290 224 327 c 1,46,-1
423 327 m 1,55,-1
 304 327 l 1,56,57
 304 290 304 290 305.5 265.5 c 128,-1,58
 307 241 307 241 313 224.5 c 128,-1,59
 319 208 319 208 330.5 200.5 c 128,-1,60
 342 193 342 193 360 193 c 0,61,62
 398 193 398 193 410.5 226 c 128,-1,63
 423 259 423 259 423 327 c 1,55,-1
EndSplineSet
Validated: 1
EndChar

StartChar: uniE01C
Encoding: 57372 57372 28
Width: 763
Flags: W
LayerCount: 2
Fore
SplineSet
426 439 m 5,0,1
 423 464 423 464 414 492.5 c 132,-1,2
 405 521 405 521 387 543.5 c 132,-1,3
 369 566 369 566 341.5 582 c 132,-1,4
 314 598 314 598 275 598 c 0,5,6
 249 598 249 598 223.5 587.5 c 128,-1,7
 198 577 198 577 176 557.5 c 132,-1,8
 154 538 154 538 138.5 508.5 c 132,-1,9
 123 479 123 479 116 439 c 1,10,-1
 220 439 l 6,11,12
 245 439 245 439 258 424 c 132,-1,13
 271 409 271 409 273 384 c 5,14,15
 275 409 275 409 288 424 c 132,-1,16
 301 439 301 439 327 439 c 6,17,-1
 426 439 l 5,0,1
434 327 m 1,18,-1
 314 327 l 5,19,20
 314 291 314 291 315.5 266 c 128,-1,21
 317 241 317 241 323 224.5 c 128,-1,22
 329 208 329 208 340.5 200.5 c 128,-1,23
 352 193 352 193 370 193 c 0,24,25
 408 193 408 193 421 226 c 128,-1,26
 434 259 434 259 434 327 c 1,18,-1
234 327 m 5,27,-1
 114 327 l 1,28,29
 114 259 114 259 126 226 c 128,-1,30
 138 193 138 193 176 193 c 0,31,32
 194 193 194 193 205.5 200.5 c 128,-1,33
 217 208 217 208 223 224.5 c 128,-1,34
 229 241 229 241 231.5 265.5 c 128,-1,35
 234 290 234 290 234 327 c 5,27,-1
74 327 m 9,36,-1
 74 439 l 17,37,-1
 74 440 l 1,38,39
 77 502 77 502 94.5 550.5 c 128,-1,40
 112 599 112 599 139 631.5 c 128,-1,41
 166 664 166 664 201 681 c 128,-1,42
 236 698 236 698 275 698 c 0,43,44
 328 698 328 698 364 675.5 c 128,-1,45
 400 653 400 653 424 617 c 128,-1,46
 448 581 448 581 460 534 c 128,-1,47
 472 487 472 487 474 440 c 1,48,-1
 474 439 l 1,49,-1
 589 439 l 1,50,51
 636 437 636 437 661 403 c 128,-1,52
 686 369 686 369 686 311 c 2,53,-1
 686 252 l 2,54,55
 686 217 686 217 674.5 195.5 c 128,-1,56
 663 174 663 174 644 174 c 1,57,-1
 644 185 l 2,58,59
 644 252 644 252 619.5 288.5 c 128,-1,60
 595 325 595 325 546 327 c 1,61,-1
 474 327 l 1,62,-1
 474 325 l 2,63,64
 474 273 474 273 468 232.5 c 128,-1,65
 462 192 462 192 449.5 163.5 c 128,-1,66
 437 135 437 135 418 120 c 128,-1,67
 399 105 399 105 370 105 c 0,68,69
 324 105 324 105 299 140 c 128,-1,70
 274 175 274 175 273 244 c 1,71,72
 271 174 271 174 246.5 139.5 c 128,-1,73
 222 105 222 105 176 105 c 0,74,75
 147 105 147 105 127.5 120 c 128,-1,76
 108 135 108 135 96 163.5 c 128,-1,77
 84 192 84 192 79 232.5 c 128,-1,78
 74 273 74 273 74 325 c 2,79,-1
 74 327 l 9,36,-1
EndSplineSet
Validated: 1
EndChar

StartChar: uniE01D
Encoding: 57373 57373 29
Width: 524
Flags: W
LayerCount: 2
Fore
SplineSet
258 327 m 1,0,-1
 96 327 l 1,1,2
 96 295 96 295 97 266.5 c 128,-1,3
 98 238 98 238 105.5 217 c 128,-1,4
 113 196 113 196 129.5 184 c 128,-1,5
 146 172 146 172 176 172 c 0,6,7
 207 172 207 172 223.5 183.5 c 128,-1,8
 240 195 240 195 247.5 215.5 c 128,-1,9
 255 236 255 236 256.5 264.5 c 128,-1,10
 258 293 258 293 258 327 c 1,0,-1
353 395 m 0,11,12
 352 433 352 433 343 469 c 0,13,14
 333 508 333 508 316.5 536 c 128,-1,15
 300 564 300 564 278.5 580 c 128,-1,16
 257 596 257 596 228 596 c 0,17,18
 127 596 127 596 98 439 c 1,19,-1
 246 439 l 2,20,21
 298.018518519 439 298.018518519 439 298.018518519 387.94478738 c 0,22,23
 298.018518519 386.981481481 298.018518519 386.981481481 298 386 c 2,24,-1
 298 271 l 2,25,26
 298 235 298 235 292 201 c 128,-1,27
 286 167 286 167 272 141 c 128,-1,28
 258 115 258 115 235 99 c 128,-1,29
 212 83 212 83 176 83 c 0,30,31
 150 83 150 83 131 95 c 128,-1,32
 112 107 112 107 98.5 127 c 128,-1,33
 85 147 85 147 76.5 172.5 c 128,-1,34
 68 198 68 198 63.5 224.5 c 128,-1,35
 59 251 59 251 57.5 278 c 128,-1,36
 56 305 56 305 56 327 c 2,37,-1
 56 440 l 1,38,39
 65 565 65 565 107.5 630.5 c 128,-1,40
 150 696 150 696 228 696 c 0,41,42
 266 696 266 696 295 677.5 c 128,-1,43
 324 659 324 659 345 625 c 128,-1,44
 366 591 366 591 378.5 544 c 128,-1,45
 391 497 391 497 396 439 c 1,46,-1
 574 439 l 1,47,-1
 574 327 l 1,48,-1
 445 327 l 1,49,50
 444 312 444 312 441 286 c 128,-1,51
 438 260 438 260 435.5 231 c 128,-1,52
 433 202 433 202 429 176 c 128,-1,53
 425 150 425 150 420 135 c 1,54,-1
 398 127 l 1,55,56
 378 173 378 173 367 224.5 c 128,-1,57
 356 276 356 276 353 395 c 0,11,12
EndSplineSet
Validated: 1
EndChar

StartChar: uniE01E
Encoding: 57374 57374 30
Width: 527
Flags: W
LayerCount: 2
Fore
SplineSet
59 327 m 9,0,1
 0 327 l 25,2,-1
 0 439 l 25,3,-1
 59 439 l 1,4,-1
 59 440 l 1,5,6
 68 565 68 565 110.5 630.5 c 128,-1,7
 153 696 153 696 231 696 c 0,8,9
 269 696 269 696 298.5 677.5 c 128,-1,10
 328 659 328 659 348.5 625 c 128,-1,11
 369 591 369 591 382 544 c 128,-1,12
 395 497 395 497 399 439 c 1,13,-1
 577 439 l 1,14,-1
 577 327 l 1,15,-1
 449 327 l 1,16,17
 448 312 448 312 445 286 c 128,-1,18
 442 260 442 260 439 231 c 128,-1,19
 436 202 436 202 432 176 c 128,-1,20
 428 150 428 150 423 135 c 1,21,-1
 401 127 l 1,22,23
 381 173 381 173 370.5 224 c 128,-1,24
 360 275 360 275 356 395 c 0,25,26
 355 433 355 433 346 469 c 0,27,28
 336 508 336 508 320 536 c 128,-1,29
 304 564 304 564 282 580 c 128,-1,30
 260 596 260 596 231 596 c 0,31,32
 130 596 130 596 102 439 c 1,33,-1
 249 439 l 2,34,35
 302 439 302 439 302 386 c 2,36,-1
 302 271 l 2,37,38
 302 235 302 235 296 201 c 128,-1,39
 290 167 290 167 275.5 141 c 128,-1,40
 261 115 261 115 238 99 c 128,-1,41
 215 83 215 83 180 83 c 0,42,43
 154 83 154 83 134.5 95 c 128,-1,44
 115 107 115 107 101.5 127 c 128,-1,45
 88 147 88 147 80 172.5 c 128,-1,46
 72 198 72 198 67 224.5 c 128,-1,47
 62 251 62 251 60.5 278 c 128,-1,48
 59 305 59 305 59 327 c 9,0,1
99 327 m 5,49,50
 99 295 99 295 100.5 266.5 c 132,-1,51
 102 238 102 238 109 217 c 132,-1,52
 116 196 116 196 132.5 184 c 132,-1,53
 149 172 149 172 180 172 c 4,54,55
 211 172 211 172 227.5 183.5 c 132,-1,56
 244 195 244 195 251.5 215.5 c 132,-1,57
 259 236 259 236 260 264.5 c 132,-1,58
 261 293 261 293 261 327 c 5,59,-1
 99 327 l 5,49,50
EndSplineSet
Validated: 1
EndChar

StartChar: uniE026
Encoding: 57382 57382 31
Width: 733
Flags: W
LayerCount: 2
Fore
SplineSet
421 439 m 1,0,1
 418 464 418 464 409.5 492.5 c 128,-1,2
 401 521 401 521 383 543.5 c 128,-1,3
 365 566 365 566 337.5 582 c 128,-1,4
 310 598 310 598 271 598 c 0,5,6
 245 598 245 598 219 587.5 c 128,-1,7
 193 577 193 577 171 557.5 c 128,-1,8
 149 538 149 538 134 508.5 c 128,-1,9
 119 479 119 479 112 439 c 1,10,-1
 215 439 l 2,11,12
 240 439 240 439 253.5 424 c 128,-1,13
 267 409 267 409 269 384 c 1,14,15
 270 409 270 409 283.5 424 c 128,-1,16
 297 439 297 439 323 439 c 2,17,-1
 421 439 l 1,0,1
229 327 m 1,18,-1
 110 327 l 1,19,20
 110 259 110 259 122 226 c 128,-1,21
 134 193 134 193 171 193 c 0,22,23
 190 193 190 193 201.5 200.5 c 128,-1,24
 213 208 213 208 218.5 224.5 c 128,-1,25
 224 241 224 241 226.5 265.5 c 128,-1,26
 229 290 229 290 229 327 c 1,18,-1
429 327 m 1,27,-1
 310 327 l 1,28,29
 310 290 310 290 311.5 265.5 c 128,-1,30
 313 241 313 241 319 224.5 c 128,-1,31
 325 208 325 208 336.5 200.5 c 128,-1,32
 348 193 348 193 366 193 c 0,33,34
 404 193 404 193 416.5 226 c 128,-1,35
 429 259 429 259 429 327 c 1,27,-1
470 327 m 1,36,-1
 470 325 l 2,37,38
 470 273 470 273 464 232.5 c 128,-1,39
 458 192 458 192 445.5 163.5 c 128,-1,40
 433 135 433 135 414 120 c 128,-1,41
 395 105 395 105 366 105 c 0,42,43
 320 105 320 105 295.5 139.5 c 128,-1,44
 271 174 271 174 269 244 c 1,45,46
 267 175 267 175 242.5 140 c 128,-1,47
 218 105 218 105 171 105 c 0,48,49
 143 105 143 105 123.5 120 c 128,-1,50
 104 135 104 135 92 163.5 c 128,-1,51
 80 192 80 192 74.5 232.5 c 128,-1,52
 69 273 69 273 69 325 c 2,53,-1
 69 440 l 1,54,55
 72 502 72 502 89.5 550.5 c 128,-1,56
 107 599 107 599 134.5 631.5 c 128,-1,57
 162 664 162 664 196.5 681 c 128,-1,58
 231 698 231 698 271 698 c 0,59,60
 324 698 324 698 360 675.5 c 128,-1,61
 396 653 396 653 419.5 617 c 128,-1,62
 443 581 443 581 455 534 c 128,-1,63
 467 487 467 487 470 440 c 1,64,-1
 470 439 l 1,65,-1
 782 439 l 1,66,-1
 782 327 l 1,67,-1
 551 327 l 1,68,-1
 679 146 l 1,69,-1
 679 130 l 1,70,-1
 652 2 l 1,71,-1
 637 2 l 1,72,-1
 509 327 l 1,73,-1
 470 327 l 1,36,-1
EndSplineSet
Validated: 1
EndChar

StartChar: uniE01F
Encoding: 57375 57375 32
Width: 834
Flags: W
LayerCount: 2
Fore
SplineSet
253 439 m 2,0,1
 306 439 306 439 306 386 c 2,2,-1
 306 271 l 2,3,4
 306 235 306 235 300 201 c 128,-1,5
 294 167 294 167 280 141 c 128,-1,6
 266 115 266 115 243 99 c 128,-1,7
 220 83 220 83 184 83 c 0,8,9
 158 83 158 83 139 95 c 128,-1,10
 120 107 120 107 106.5 127 c 128,-1,11
 93 147 93 147 84.5 172.5 c 128,-1,12
 76 198 76 198 71.5 224.5 c 128,-1,13
 67 251 67 251 65 278 c 128,-1,14
 63 305 63 305 63 327 c 1,15,-1
 0 327 l 1,16,-1
 0 439 l 5,17,-1
 63 439 l 1,18,-1
 63 440 l 1,19,20
 72 565 72 565 115 630.5 c 128,-1,21
 158 696 158 696 235 696 c 0,22,23
 273 696 273 696 302.5 677.5 c 128,-1,24
 332 659 332 659 353 625 c 128,-1,25
 374 591 374 591 386.5 544 c 128,-1,26
 399 497 399 497 404 439 c 1,27,-1
 634 439 l 2,28,29
 696 439 696 439 727 383.5 c 128,-1,30
 758 328 758 328 758 214 c 2,31,-1
 758 11 l 2,32,33
 758 -31 758 -31 750 -62.5 c 128,-1,34
 742 -94 742 -94 727 -117.5 c 128,-1,35
 712 -141 712 -141 689.5 -157.5 c 128,-1,36
 667 -174 667 -174 639 -187 c 0,37,38
 622 -194 622 -194 612.5 -200 c 128,-1,39
 603 -206 603 -206 596 -212.5 c 128,-1,40
 589 -219 589 -219 584 -227.5 c 128,-1,41
 579 -236 579 -236 572 -250 c 1,42,-1
 561 -250 l 1,43,-1
 593 -110 l 1,44,45
 600 -108 600 -108 606.5 -106 c 128,-1,46
 613 -104 613 -104 621 -102 c 128,-1,47
 629 -100 629 -100 637.5 -95 c 128,-1,48
 646 -90 646 -90 659 -83 c 0,49,50
 666 -79 666 -79 675.5 -72.5 c 128,-1,51
 685 -66 685 -66 693 -55 c 128,-1,52
 701 -44 701 -44 706.5 -28 c 128,-1,53
 712 -12 712 -12 712 11 c 2,54,-1
 712 214 l 2,55,56
 712 270 712 270 691.5 298.5 c 128,-1,57
 671 327 671 327 634 327 c 2,58,-1
 453 327 l 1,59,60
 452 312 452 312 449 286 c 128,-1,61
 446 260 446 260 443 231 c 128,-1,62
 440 202 440 202 436.5 176 c 128,-1,63
 433 150 433 150 428 135 c 1,64,-1
 406 127 l 1,65,66
 386 173 386 173 375 224 c 128,-1,67
 364 275 364 275 361 395 c 0,68,69
 360 433 360 433 351 469 c 0,70,71
 341 508 341 508 324.5 536 c 128,-1,72
 308 564 308 564 286.5 580 c 128,-1,73
 265 596 265 596 235 596 c 0,74,75
 134 596 134 596 106 439 c 1,76,-1
 253 439 l 2,0,1
104 327 m 1,77,78
 104 295 104 295 105 266.5 c 128,-1,79
 106 238 106 238 113.5 217 c 128,-1,80
 121 196 121 196 137.5 184 c 128,-1,81
 154 172 154 172 184 172 c 0,82,83
 215 172 215 172 231.5 183.5 c 128,-1,84
 248 195 248 195 255.5 215.5 c 128,-1,85
 263 236 263 236 264.5 264.5 c 128,-1,86
 266 293 266 293 266 327 c 1,87,-1
 104 327 l 1,77,78
EndSplineSet
Validated: 1
EndChar

StartChar: uniE020
Encoding: 57376 57376 33
Width: 581
Flags: W
LayerCount: 2
Fore
SplineSet
630 439 m 1,0,-1
 630 327 l 1,1,-1
 432 327 l 1,2,3
 441 292 441 292 454 264.5 c 128,-1,4
 467 237 467 237 480 216.5 c 128,-1,5
 493 196 493 196 506 181 c 128,-1,6
 519 166 519 166 526 154 c 1,7,-1
 507 55 l 1,8,-1
 493 55 l 1,9,10
 447 108 447 108 416 200 c 128,-1,11
 385 292 385 292 372 374.5 c 128,-1,12
 359 457 359 457 345.5 491 c 128,-1,13
 332 525 332 525 314 548 c 128,-1,14
 296 571 296 571 275.5 584 c 128,-1,15
 255 597 255 597 233 597 c 0,16,17
 133 597 133 597 104 439 c 1,18,-1
 251 439 l 2,19,20
 303 439 303 439 303 386 c 2,21,-1
 303 270 l 2,22,23
 303 236 303 236 297.5 202.5 c 128,-1,24
 292 169 292 169 278 142.5 c 128,-1,25
 264 116 264 116 241 99.5 c 128,-1,26
 218 83 218 83 184 83 c 0,27,28
 157 83 157 83 137.5 95.5 c 128,-1,29
 118 108 118 108 105 128 c 128,-1,30
 92 148 92 148 83 173.5 c 128,-1,31
 74 199 74 199 69.5 225 c 128,-1,32
 65 251 65 251 64 278.5 c 128,-1,33
 63 306 63 306 63 327 c 2,34,-1
 63 440 l 1,35,36
 71 564 71 564 113.5 630 c 128,-1,37
 156 696 156 696 233 696 c 0,38,39
 272 696 272 696 301 672 c 128,-1,40
 330 648 330 648 350.5 611.5 c 128,-1,41
 371 575 371 575 383.5 529.5 c 128,-1,42
 396 484 396 484 400 439 c 1,43,-1
 630 439 l 1,0,-1
264 327 m 1,44,-1
 103 327 l 1,45,46
 103 294 103 294 103.5 265.5 c 128,-1,47
 104 237 104 237 111.5 216 c 128,-1,48
 119 195 119 195 136 183 c 128,-1,49
 153 171 153 171 184 171 c 0,50,51
 214 171 214 171 230 182.5 c 128,-1,52
 246 194 246 194 254 215 c 128,-1,53
 262 236 262 236 263 264 c 128,-1,54
 264 292 264 292 264 327 c 1,44,-1
EndSplineSet
Validated: 1
EndChar

StartChar: uniE021
Encoding: 57377 57377 34
Width: 589
Flags: W
LayerCount: 2
Fore
SplineSet
260 439 m 2,0,1
 312 439 312 439 312 386 c 2,2,-1
 312 270 l 2,3,4
 312 236 312 236 306.5 202.5 c 128,-1,5
 301 169 301 169 287 142.5 c 128,-1,6
 273 116 273 116 250 99.5 c 128,-1,7
 227 83 227 83 192 83 c 0,8,9
 165 83 165 83 146 95.5 c 128,-1,10
 127 108 127 108 114 128 c 128,-1,11
 101 148 101 148 92 173.5 c 128,-1,12
 83 199 83 199 78.5 225 c 128,-1,13
 74 251 74 251 73 278.5 c 128,-1,14
 72 306 72 306 72 327 c 1,15,-1
 0 327 l 1,16,-1
 0 439 l 5,17,-1
 72 439 l 1,18,-1
 72 440 l 1,19,20
 80 564 80 564 122.5 630 c 128,-1,21
 165 696 165 696 242 696 c 0,22,23
 281 696 281 696 309.5 672 c 128,-1,24
 338 648 338 648 359 611.5 c 128,-1,25
 380 575 380 575 392 529.5 c 128,-1,26
 404 484 404 484 409 439 c 1,27,-1
 639 439 l 1,28,-1
 639 327 l 1,29,-1
 441 327 l 1,30,31
 450 292 450 292 463 264.5 c 128,-1,32
 476 237 476 237 489 216.5 c 128,-1,33
 502 196 502 196 514.5 181 c 128,-1,34
 527 166 527 166 535 154 c 1,35,-1
 516 55 l 1,36,-1
 502 55 l 1,37,38
 456 108 456 108 425 200 c 128,-1,39
 394 292 394 292 381 374.5 c 128,-1,40
 368 457 368 457 354.5 491 c 128,-1,41
 341 525 341 525 323 548 c 128,-1,42
 305 571 305 571 284.5 584 c 128,-1,43
 264 597 264 597 242 597 c 0,44,45
 142 597 142 597 113 439 c 1,46,-1
 260 439 l 2,0,1
111 327 m 1,47,48
 111 294 111 294 112 265.5 c 128,-1,49
 113 237 113 237 120.5 216 c 128,-1,50
 128 195 128 195 145 183 c 128,-1,51
 162 171 162 171 192 171 c 0,52,53
 222 171 222 171 238.5 182.5 c 128,-1,54
 255 194 255 194 263 215 c 128,-1,55
 271 236 271 236 272 264 c 128,-1,56
 273 292 273 292 273 327 c 1,57,-1
 111 327 l 1,47,48
EndSplineSet
Validated: 1
EndChar

StartChar: uniE022
Encoding: 57378 57378 35
Width: 856
Flags: W
LayerCount: 2
Fore
SplineSet
276 327 m 1,0,-1
 114 327 l 1,1,2
 114 294 114 294 115 265.5 c 128,-1,3
 116 237 116 237 123.5 216 c 128,-1,4
 131 195 131 195 148 183 c 128,-1,5
 165 171 165 171 195 171 c 0,6,7
 225 171 225 171 241.5 182.5 c 128,-1,8
 258 194 258 194 265.5 215 c 128,-1,9
 273 236 273 236 274.5 264 c 128,-1,10
 276 292 276 292 276 327 c 1,0,-1
75 439 m 1,11,-1
 75 440 l 1,12,13
 83 564 83 564 125.5 630 c 128,-1,14
 168 696 168 696 245 696 c 0,15,16
 284 696 284 696 312.5 672 c 128,-1,17
 341 648 341 648 362 611.5 c 128,-1,18
 383 575 383 575 395 529.5 c 128,-1,19
 407 484 407 484 412 439 c 1,20,-1
 688 439 l 1,21,22
 734 436 734 436 759.5 402 c 128,-1,23
 785 368 785 368 785 311 c 2,24,-1
 785 252 l 2,25,26
 785 217 785 217 773 195.5 c 128,-1,27
 761 174 761 174 743 174 c 1,28,-1
 743 185 l 2,29,30
 743 252 743 252 718.5 288.5 c 128,-1,31
 694 325 694 325 645 327 c 1,32,-1
 444 327 l 1,33,34
 453 292 453 292 466 264.5 c 128,-1,35
 479 237 479 237 492 216.5 c 128,-1,36
 505 196 505 196 517.5 181 c 128,-1,37
 530 166 530 166 538 154 c 1,38,-1
 519 55 l 1,39,-1
 505 55 l 1,40,41
 459 108 459 108 428 200 c 0,42,43
 400 284 400 284 378 412 c 0,44,45
 371 457 371 457 357.5 491 c 128,-1,46
 344 525 344 525 326 548 c 128,-1,47
 308 571 308 571 287.5 584 c 128,-1,48
 267 597 267 597 245 597 c 0,49,50
 145 597 145 597 116 439 c 1,51,-1
 263 439 l 2,52,53
 315 439 315 439 315 386 c 2,54,-1
 315 270 l 2,55,56
 315 236 315 236 309.5 202.5 c 128,-1,57
 304 169 304 169 290 142.5 c 128,-1,58
 276 116 276 116 252.5 99.5 c 128,-1,59
 229 83 229 83 195 83 c 0,60,61
 168 83 168 83 149 95.5 c 128,-1,62
 130 108 130 108 117 128 c 128,-1,63
 104 148 104 148 95 173.5 c 128,-1,64
 86 199 86 199 81.5 225 c 128,-1,65
 77 251 77 251 76 278.5 c 128,-1,66
 75 306 75 306 75 327 c 1,67,-1
 0 327 l 1,68,-1
 0 439 l 1,69,-1
 75 439 l 1,11,-1
EndSplineSet
Validated: 1
EndChar

StartChar: uniE023
Encoding: 57379 57379 36
Width: 479
Flags: W
LayerCount: 2
Fore
SplineSet
411 439 m 1,0,1
 408 464 408 464 399.5 492.5 c 128,-1,2
 391 521 391 521 372.5 543.5 c 128,-1,3
 354 566 354 566 326.5 582 c 128,-1,4
 299 598 299 598 260 598 c 0,5,6
 234 598 234 598 208.5 587.5 c 128,-1,7
 183 577 183 577 161 557.5 c 128,-1,8
 139 538 139 538 123.5 508.5 c 128,-1,9
 108 479 108 479 102 439 c 1,10,-1
 205 439 l 2,11,12
 230 439 230 439 243.5 424 c 128,-1,13
 257 409 257 409 259 384 c 1,14,15
 260 409 260 409 273.5 424 c 0,16,17
 286 439 286 439 312 439 c 2,18,-1
 411 439 l 1,0,1
419 327 m 1,19,-1
 299 327 l 1,20,21
 299 290 299 290 301 265.5 c 128,-1,22
 303 241 303 241 308.5 224.5 c 128,-1,23
 314 208 314 208 325.5 200.5 c 128,-1,24
 337 193 337 193 355 193 c 0,25,26
 393 193 393 193 406 226 c 128,-1,27
 419 259 419 259 419 327 c 1,19,-1
219 327 m 1,28,-1
 100 327 l 1,29,30
 100 259 100 259 112 226 c 128,-1,31
 124 193 124 193 161 193 c 0,32,33
 180 193 180 193 191.5 200.5 c 128,-1,34
 203 208 203 208 208.5 224.5 c 128,-1,35
 214 241 214 241 216.5 265.5 c 128,-1,36
 219 290 219 290 219 327 c 1,28,-1
459 327 m 1,37,-1
 459 325 l 2,38,39
 459 273 459 273 453.5 232.5 c 128,-1,40
 448 192 448 192 435 163.5 c 128,-1,41
 422 135 422 135 403.5 120 c 128,-1,42
 385 105 385 105 355 105 c 0,43,44
 309 105 309 105 284.5 139.5 c 128,-1,45
 260 174 260 174 259 244 c 1,46,47
 257 175 257 175 232.5 140 c 128,-1,48
 208 105 208 105 161 105 c 0,49,50
 133 105 133 105 113 120 c 128,-1,51
 93 135 93 135 81 163.5 c 128,-1,52
 69 192 69 192 64 232.5 c 128,-1,53
 59 273 59 273 59 325 c 2,54,-1
 59 440 l 1,55,56
 62 502 62 502 79.5 550.5 c 128,-1,57
 97 599 97 599 124 631.5 c 128,-1,58
 151 664 151 664 186 681 c 128,-1,59
 221 698 221 698 260 698 c 0,60,61
 313 698 313 698 349.5 675.5 c 128,-1,62
 386 653 386 653 409.5 617 c 128,-1,63
 433 581 433 581 445 534 c 128,-1,64
 457 487 457 487 459 440 c 1,65,-1
 459 439 l 1,66,-1
 528 439 l 1,67,-1
 528 327 l 1,68,-1
 459 327 l 1,37,-1
EndSplineSet
Validated: 1
EndChar

StartChar: uniE024
Encoding: 57380 57380 37
Width: 486
Flags: W
LayerCount: 2
Fore
SplineSet
418 439 m 1,0,1
 415 464 415 464 406.5 492.5 c 128,-1,2
 398 521 398 521 380 543.5 c 128,-1,3
 362 566 362 566 334.5 582 c 128,-1,4
 307 598 307 598 268 598 c 0,5,6
 242 598 242 598 216 587.5 c 128,-1,7
 190 577 190 577 168 557.5 c 128,-1,8
 146 538 146 538 131 508.5 c 128,-1,9
 116 479 116 479 109 439 c 1,10,-1
 212 439 l 2,11,12
 237 439 237 439 250.5 424 c 128,-1,13
 264 409 264 409 266 384 c 1,14,15
 267 409 267 409 280.5 424 c 128,-1,16
 294 439 294 439 320 439 c 2,17,-1
 418 439 l 1,0,1
227 327 m 1,18,-1
 107 327 l 1,19,20
 107 259 107 259 119 226 c 128,-1,21
 131 193 131 193 168 193 c 0,22,23
 187 193 187 193 198.5 200.5 c 128,-1,24
 210 208 210 208 215.5 224.5 c 128,-1,25
 221 241 221 241 224 265.5 c 128,-1,26
 227 290 227 290 227 327 c 1,18,-1
426 327 m 1,27,-1
 307 327 l 1,28,29
 307 290 307 290 308.5 265.5 c 128,-1,30
 310 241 310 241 316 224.5 c 128,-1,31
 322 208 322 208 333.5 200.5 c 128,-1,32
 345 193 345 193 363 193 c 0,33,34
 401 193 401 193 413.5 226 c 128,-1,35
 426 259 426 259 426 327 c 1,27,-1
467 327 m 1,36,-1
 467 325 l 2,37,38
 467 273 467 273 461 232.5 c 128,-1,39
 455 192 455 192 442.5 163.5 c 128,-1,40
 430 135 430 135 411 120 c 128,-1,41
 392 105 392 105 363 105 c 0,42,43
 317 105 317 105 292.5 139.5 c 128,-1,44
 268 174 268 174 266 244 c 1,45,46
 264 175 264 175 239.5 140 c 128,-1,47
 215 105 215 105 168 105 c 0,48,49
 140 105 140 105 120.5 120 c 128,-1,50
 101 135 101 135 89 163.5 c 128,-1,51
 77 192 77 192 71.5 232.5 c 128,-1,52
 66 273 66 273 66 325 c 2,53,-1
 66 327 l 1,54,-1
 0 327 l 5,55,-1
 0 439 l 1,56,-1
 66 439 l 1,57,-1
 66 440 l 1,58,59
 69 502 69 502 86.5 550.5 c 128,-1,60
 104 599 104 599 131.5 631.5 c 128,-1,61
 159 664 159 664 194 681 c 128,-1,62
 229 698 229 698 268 698 c 0,63,64
 321 698 321 698 357 675.5 c 128,-1,65
 393 653 393 653 416.5 617 c 128,-1,66
 440 581 440 581 452 534 c 128,-1,67
 464 487 464 487 467 440 c 1,68,-1
 467 439 l 1,69,-1
 535 439 l 1,70,-1
 535 327 l 1,71,-1
 467 327 l 1,36,-1
EndSplineSet
Validated: 1
EndChar

StartChar: uniE025
Encoding: 57381 57381 38
Width: 531
Flags: W
LayerCount: 2
Fore
SplineSet
426 439 m 5,0,1
 423 464 423 464 414 492.5 c 132,-1,2
 405 521 405 521 387 543.5 c 132,-1,3
 369 566 369 566 341.5 582 c 132,-1,4
 314 598 314 598 275 598 c 4,5,6
 249 598 249 598 223.5 587.5 c 132,-1,7
 198 577 198 577 176 557.5 c 132,-1,8
 154 538 154 538 138.5 508.5 c 132,-1,9
 123 479 123 479 116 439 c 5,10,-1
 220 439 l 6,11,12
 245 439 245 439 258 424 c 132,-1,13
 271 409 271 409 273 384 c 5,14,15
 274 409 274 409 287.5 424 c 132,-1,16
 301 439 301 439 327 439 c 6,17,-1
 426 439 l 5,0,1
434 327 m 1,18,-1
 314 327 l 1,19,20
 314 290 314 290 315.5 265.5 c 128,-1,21
 317 241 317 241 323 224.5 c 128,-1,22
 329 208 329 208 340.5 200.5 c 128,-1,23
 352 193 352 193 370 193 c 0,24,25
 408 193 408 193 421 226 c 128,-1,26
 434 259 434 259 434 327 c 1,18,-1
234 327 m 1,27,-1
 114 327 l 1,28,29
 114 259 114 259 126 226 c 128,-1,30
 138 193 138 193 176 193 c 0,31,32
 195 193 195 193 206 200.5 c 128,-1,33
 217 208 217 208 223 224.5 c 128,-1,34
 229 241 229 241 231.5 265.5 c 128,-1,35
 234 290 234 290 234 327 c 1,27,-1
74 327 m 9,36,-1
 0 327 l 25,37,-1
 0 439 l 25,38,-1
 74 439 l 17,39,-1
 74 440 l 1,40,41
 77 502 77 502 94.5 550.5 c 128,-1,42
 112 599 112 599 139 631.5 c 128,-1,43
 166 664 166 664 201 681 c 128,-1,44
 236 698 236 698 275 698 c 0,45,46
 328 698 328 698 364 675.5 c 128,-1,47
 400 653 400 653 424 617 c 128,-1,48
 448 581 448 581 460 534 c 128,-1,49
 472 487 472 487 474 440 c 1,50,-1
 474 325 l 2,51,52
 474 273 474 273 468 232.5 c 128,-1,53
 462 192 462 192 449.5 163.5 c 128,-1,54
 437 135 437 135 418 120 c 128,-1,55
 399 105 399 105 370 105 c 0,56,57
 324 105 324 105 299.5 139.5 c 128,-1,58
 275 174 275 174 273 244 c 1,59,60
 271 175 271 175 246.5 140 c 128,-1,61
 222 105 222 105 176 105 c 0,62,63
 148 105 148 105 128 120 c 128,-1,64
 108 135 108 135 96 163.5 c 128,-1,65
 84 192 84 192 79 232.5 c 128,-1,66
 74 273 74 273 74 325 c 2,67,-1
 74 327 l 9,36,-1
EndSplineSet
Validated: 1
EndChar

StartChar: uniE027
Encoding: 57383 57383 39
Width: 817
Flags: W
LayerCount: 2
Fore
SplineSet
448 327 m 1,0,1
 447 311 447 311 444.5 284 c 128,-1,2
 442 257 442 257 439 228.5 c 128,-1,3
 436 200 436 200 432 173.5 c 128,-1,4
 428 147 428 147 423 132 c 1,5,-1
 401 125 l 1,6,7
 391 148 391 148 383 181 c 128,-1,8
 375 214 375 214 368.5 250 c 128,-1,9
 362 286 362 286 358 320.5 c 128,-1,10
 354 355 354 355 354 381 c 0,11,12
 354 436 354 436 343 477 c 128,-1,13
 332 518 332 518 314.5 544 c 128,-1,14
 297 570 297 570 275.5 583 c 128,-1,15
 254 596 254 596 234 596 c 0,16,17
 133 596 133 596 104 439 c 1,18,-1
 252 439 l 2,19,20
 304 439 304 439 304 386 c 2,21,-1
 304 283 l 2,22,23
 304 241 304 241 297 211.5 c 128,-1,24
 290 182 290 182 275 161.5 c 128,-1,25
 260 141 260 141 238 130 c 128,-1,26
 216 119 216 119 186 116 c 0,27,28
 141 111 141 111 116.5 100 c 128,-1,29
 92 89 92 89 80 83 c 1,30,31
 79 91 79 91 78 101.5 c 128,-1,32
 77 112 77 112 77 117 c 0,33,34
 77 139 77 139 81 155 c 128,-1,35
 85 171 85 171 98 183 c 128,-1,36
 111 195 111 195 134.5 202.5 c 128,-1,37
 158 210 158 210 194 214 c 0,38,39
 210 215 210 215 222 220 c 128,-1,40
 234 225 234 225 242.5 233.5 c 128,-1,41
 251 242 251 242 255.5 257.5 c 128,-1,42
 260 273 260 273 260 297 c 2,43,-1
 260 327 l 1,44,-1
 62 327 l 1,45,-1
 62 439 l 1,46,47
 71 564 71 564 113.5 630 c 128,-1,48
 156 696 156 696 234 696 c 0,49,50
 272 696 272 696 301 677.5 c 128,-1,51
 330 659 330 659 351 625.5 c 128,-1,52
 372 592 372 592 384.5 544.5 c 128,-1,53
 397 497 397 497 402 439 c 1,54,-1
 632 439 l 2,55,56
 694 439 694 439 725 383.5 c 128,-1,57
 756 328 756 328 756 214 c 2,58,-1
 756 11 l 2,59,60
 756 -31 756 -31 748.5 -62.5 c 128,-1,61
 741 -94 741 -94 726 -117.5 c 128,-1,62
 711 -141 711 -141 688.5 -157.5 c 128,-1,63
 666 -174 666 -174 638 -187 c 0,64,65
 621 -194 621 -194 611.5 -200 c 128,-1,66
 602 -206 602 -206 594.5 -212.5 c 128,-1,67
 587 -219 587 -219 582 -227.5 c 128,-1,68
 577 -236 577 -236 571 -250 c 1,69,-1
 560 -250 l 1,70,-1
 592 -110 l 1,71,72
 599 -108 599 -108 605.5 -106 c 128,-1,73
 612 -104 612 -104 619.5 -102 c 128,-1,74
 627 -100 627 -100 636 -95 c 128,-1,75
 645 -90 645 -90 657 -83 c 0,76,77
 664 -79 664 -79 674 -72.5 c 128,-1,78
 684 -66 684 -66 692 -55 c 128,-1,79
 700 -44 700 -44 705.5 -28 c 128,-1,80
 711 -12 711 -12 711 11 c 2,81,-1
 711 214 l 2,82,83
 711 270 711 270 690 298.5 c 128,-1,84
 669 327 669 327 632 327 c 2,85,-1
 448 327 l 1,0,1
EndSplineSet
Validated: 1
EndChar

StartChar: uniE028
Encoding: 57384 57384 40
Width: 861
Flags: W
LayerCount: 2
Fore
SplineSet
451 327 m 1,0,1
 462 279 462 279 485.5 236 c 128,-1,2
 509 193 509 193 540 155 c 1,3,-1
 523 54 l 1,4,-1
 508 54 l 1,5,6
 457 126 457 126 429 210 c 128,-1,7
 401 294 401 294 386 384 c 0,8,9
 376 439 376 439 361 479 c 128,-1,10
 346 519 346 519 328.5 545 c 128,-1,11
 311 571 311 571 290.5 584 c 128,-1,12
 270 597 270 597 248 597 c 0,13,14
 148 597 148 597 120 439 c 1,15,-1
 267 439 l 2,16,17
 318.018867925 439 318.018867925 439 318.018867925 387.981132075 c 0,18,19
 318.018867925 387 318.018867925 387 318 386 c 2,20,-1
 318 285 l 2,21,22
 318 243 318 243 310.5 213.5 c 128,-1,23
 303 184 303 184 289 164 c 128,-1,24
 275 144 275 144 253 133 c 128,-1,25
 231 122 231 122 201 117 c 0,26,27
 156 112 156 112 131.5 102 c 128,-1,28
 107 92 107 92 96 84 c 1,29,30
 95 94 95 94 94 104.5 c 128,-1,31
 93 115 93 115 93 120 c 0,32,33
 93 142 93 142 97 157.5 c 128,-1,34
 101 173 101 173 114 185.5 c 128,-1,35
 127 198 127 198 149.5 205.5 c 128,-1,36
 172 213 172 213 209 217 c 0,37,38
 224 218 224 218 236 222 c 128,-1,39
 248 226 248 226 257 235 c 128,-1,40
 266 244 266 244 269.5 258.5 c 128,-1,41
 273 273 273 273 273 299 c 2,42,-1
 273 327 l 1,43,-1
 78 327 l 1,44,-1
 78 439 l 1,45,46
 86 563 86 563 128.5 629.5 c 128,-1,47
 171 696 171 696 248 696 c 0,48,49
 287 696 287 696 315.5 674.5 c 128,-1,50
 344 653 344 653 365 617.5 c 128,-1,51
 386 582 386 582 400 535 c 128,-1,52
 414 488 414 488 421 439 c 1,53,-1
 683 439 l 1,54,55
 728 436 728 436 754 401.5 c 128,-1,56
 780 367 780 367 780 309 c 2,57,-1
 780 250 l 2,58,59
 780 215 780 215 768 193.5 c 128,-1,60
 756 172 756 172 738 172 c 1,61,-1
 738 183 l 2,62,63
 738 249 738 249 713 287 c 128,-1,64
 688 325 688 325 640 327 c 1,65,-1
 451 327 l 1,0,1
EndSplineSet
Validated: 1
EndChar

StartChar: uniE029
Encoding: 57385 57385 41
Width: 552
Flags: W
LayerCount: 2
Fore
SplineSet
427 439 m 1,0,1
 424 464 424 464 415.5 492.5 c 128,-1,2
 407 521 407 521 389 543.5 c 128,-1,3
 371 566 371 566 343 582 c 128,-1,4
 315 598 315 598 276 598 c 0,5,6
 250 598 250 598 224.5 587.5 c 128,-1,7
 199 577 199 577 177 557.5 c 128,-1,8
 155 538 155 538 140 508.5 c 128,-1,9
 125 479 125 479 118 439 c 1,10,-1
 221 439 l 2,11,12
 246 439 246 439 259.5 424 c 128,-1,13
 273 409 273 409 275 384 c 1,14,15
 276 409 276 409 289.5 424 c 128,-1,16
 303 439 303 439 329 439 c 2,17,-1
 427 439 l 1,0,1
435 327 m 1,18,-1
 315 327 l 1,19,20
 315 290 315 290 317 265.5 c 128,-1,21
 319 241 319 241 325 224.5 c 128,-1,22
 331 208 331 208 342.5 200.5 c 128,-1,23
 354 193 354 193 372 193 c 0,24,25
 410 193 410 193 422.5 226 c 128,-1,26
 435 259 435 259 435 327 c 1,18,-1
236 327 m 1,27,-1
 75 327 l 1,28,-1
 75 440 l 1,29,30
 78 502 78 502 95.5 550.5 c 128,-1,31
 113 599 113 599 140 631.5 c 128,-1,32
 167 664 167 664 202 681 c 128,-1,33
 237 698 237 698 276 698 c 0,34,35
 329 698 329 698 365.5 675.5 c 128,-1,36
 402 653 402 653 425.5 617 c 128,-1,37
 449 581 449 581 461 534 c 128,-1,38
 473 487 473 487 476 440 c 1,39,-1
 476 325 l 2,40,41
 476 273 476 273 470 232.5 c 128,-1,42
 464 192 464 192 451 163.5 c 128,-1,43
 438 135 438 135 419.5 120 c 128,-1,44
 401 105 401 105 372 105 c 0,45,46
 326 105 326 105 301 140 c 0,47,48
 277 173 277 173 275 239 c 1,49,50
 272 189 272 189 249 158 c 0,51,52
 223 125 223 125 172 118 c 0,53,54
 132 113 132 113 110 103 c 128,-1,55
 88 93 88 93 77 86 c 1,56,57
 76 94 76 94 75.5 105 c 128,-1,58
 75 116 75 116 75 121 c 0,59,60
 75 143 75 143 79 158.5 c 128,-1,61
 83 174 83 174 94.5 186.5 c 128,-1,62
 106 199 106 199 126 206 c 128,-1,63
 146 213 146 213 178 217 c 0,64,65
 192 219 192 219 202.5 223 c 128,-1,66
 213 227 213 227 221 236 c 128,-1,67
 229 245 229 245 232.5 259.5 c 128,-1,68
 236 274 236 274 236 299 c 2,69,-1
 236 327 l 1,27,-1
EndSplineSet
Validated: 1
EndChar

StartChar: uniE02A
Encoding: 57386 57386 42
Width: 773
Flags: W
LayerCount: 2
Fore
SplineSet
442 327 m 5,0,-1
 323 327 l 5,1,2
 323 290 323 290 324.5 265.5 c 132,-1,3
 326 241 326 241 332 224.5 c 132,-1,4
 338 208 338 208 349.5 200.5 c 132,-1,5
 361 193 361 193 379 193 c 4,6,7
 417 193 417 193 429.5 226 c 132,-1,8
 442 259 442 259 442 327 c 5,0,-1
229 439 m 6,9,10
 254 439 254 439 267 424 c 132,-1,11
 280 409 280 409 282 384 c 5,12,13
 283 409 283 409 296.5 424 c 132,-1,14
 310 439 310 439 336 439 c 6,15,-1
 435 439 l 5,16,17
 432 464 432 464 423 492.5 c 132,-1,18
 414 521 414 521 396 543.5 c 132,-1,19
 378 566 378 566 350.5 582 c 132,-1,20
 323 598 323 598 284 598 c 4,21,22
 258 598 258 598 232.5 587.5 c 132,-1,23
 207 577 207 577 185 557.5 c 132,-1,24
 163 538 163 538 147.5 508.5 c 132,-1,25
 132 479 132 479 125 439 c 5,26,-1
 229 439 l 6,9,10
83 439 m 21,27,-1
 83 440 l 5,28,29
 86 502 86 502 103.5 550.5 c 132,-1,30
 121 599 121 599 148 631.5 c 132,-1,31
 175 664 175 664 210 681 c 132,-1,32
 245 698 245 698 284 698 c 4,33,34
 337 698 337 698 373 675.5 c 132,-1,35
 409 653 409 653 433 617 c 132,-1,36
 457 581 457 581 468.5 534 c 132,-1,37
 480 487 480 487 483 440 c 5,38,-1
 483 439 l 5,39,-1
 598 439 l 5,40,41
 644 436 644 436 669.5 402 c 132,-1,42
 695 368 695 368 695 311 c 6,43,-1
 695 252 l 6,44,45
 695 217 695 217 683 195.5 c 132,-1,46
 671 174 671 174 652 174 c 5,47,-1
 652 185 l 6,48,49
 652 252 652 252 628 288.5 c 132,-1,50
 604 325 604 325 555 327 c 5,51,-1
 483 327 l 5,52,-1
 483 325 l 6,53,54
 483 273 483 273 477 232.5 c 132,-1,55
 471 192 471 192 458.5 163.5 c 132,-1,56
 446 135 446 135 427 120 c 132,-1,57
 408 105 408 105 379 105 c 4,58,59
 334 105 334 105 309 140 c 4,60,61
 285 173 285 173 282 239 c 5,62,63
 279 189 279 189 256 158 c 4,64,65
 230 124 230 124 179 118 c 4,66,67
 139 113 139 113 117.5 103 c 132,-1,68
 96 93 96 93 84 86 c 5,69,70
 83 94 83 94 83 105 c 132,-1,71
 83 116 83 116 83 121 c 4,72,73
 83 143 83 143 86.5 158.5 c 132,-1,74
 90 174 90 174 101.5 186.5 c 132,-1,75
 113 199 113 199 133 206 c 132,-1,76
 153 213 153 213 185 217 c 4,77,78
 199 219 199 219 210 223 c 132,-1,79
 221 227 221 227 228.5 236 c 132,-1,80
 236 245 236 245 239.5 259.5 c 132,-1,81
 243 274 243 274 243 299 c 6,82,-1
 243 327 l 5,83,-1
 82 327 l 13,84,-1
 83 439 l 21,27,-1
EndSplineSet
Validated: 1
EndChar

StartChar: uniE02B
Encoding: 57387 57387 43
Width: 548
Flags: W
LayerCount: 2
Fore
SplineSet
597 439 m 1,0,-1
 597 327 l 1,1,-1
 465 327 l 1,2,3
 464 311 464 311 461.5 284 c 128,-1,4
 459 257 459 257 456 228.5 c 128,-1,5
 453 200 453 200 449 173.5 c 128,-1,6
 445 147 445 147 440 132 c 1,7,-1
 418 125 l 1,8,9
 408 148 408 148 400 181 c 128,-1,10
 392 214 392 214 385.5 250 c 128,-1,11
 379 286 379 286 375 320.5 c 128,-1,12
 371 355 371 355 371 381 c 0,13,14
 371 436 371 436 360 477 c 128,-1,15
 349 518 349 518 331.5 544 c 128,-1,16
 314 570 314 570 292.5 583 c 128,-1,17
 271 596 271 596 251 596 c 0,18,19
 150 596 150 596 121 439 c 1,20,-1
 269 439 l 2,21,22
 321 439 321 439 321 386 c 2,23,-1
 321 283 l 2,24,25
 321 241 321 241 314 211.5 c 128,-1,26
 307 182 307 182 292 161.5 c 128,-1,27
 277 141 277 141 255 130 c 128,-1,28
 233 119 233 119 203 116 c 0,29,30
 158 111 158 111 133.5 100 c 128,-1,31
 109 89 109 89 97 83 c 1,32,33
 96 91 96 91 95 101.5 c 128,-1,34
 94 112 94 112 94 117 c 0,35,36
 94 139 94 139 98.5 155 c 128,-1,37
 103 171 103 171 115.5 183 c 128,-1,38
 128 195 128 195 151.5 202.5 c 128,-1,39
 175 210 175 210 211 214 c 0,40,41
 227 215 227 215 239 220 c 128,-1,42
 251 225 251 225 260 233.5 c 128,-1,43
 269 242 269 242 273 257.5 c 128,-1,44
 277 273 277 273 277 297 c 2,45,-1
 277 327 l 1,46,-1
 79 327 l 1,47,-1
 79 439 l 1,48,49
 88 564 88 564 130.5 630 c 128,-1,50
 173 696 173 696 251 696 c 0,51,52
 289 696 289 696 318 677.5 c 128,-1,53
 347 659 347 659 368 625.5 c 128,-1,54
 389 592 389 592 402 544.5 c 128,-1,55
 415 497 415 497 419 439 c 1,56,-1
 597 439 l 1,0,-1
EndSplineSet
Validated: 1
EndChar

StartChar: uniE02C
Encoding: 57388 57388 44
Width: 546
Flags: W
LayerCount: 2
Fore
SplineSet
78 439 m 1,0,1
 87 564 87 564 129.5 630 c 128,-1,2
 172 696 172 696 250 696 c 0,3,4
 288 696 288 696 317 677.5 c 128,-1,5
 346 659 346 659 367 625.5 c 128,-1,6
 388 592 388 592 401 544.5 c 128,-1,7
 414 497 414 497 418 439 c 1,8,-1
 596 439 l 1,9,-1
 596 327 l 1,10,-1
 464 327 l 1,11,12
 463 311 463 311 460.5 284 c 128,-1,13
 458 257 458 257 455 228.5 c 128,-1,14
 452 200 452 200 448 173.5 c 128,-1,15
 444 147 444 147 439 132 c 1,16,-1
 417 125 l 1,17,18
 407 148 407 148 399 181 c 128,-1,19
 391 214 391 214 384.5 250 c 128,-1,20
 378 286 378 286 374 320.5 c 128,-1,21
 370 355 370 355 370 381 c 0,22,23
 370 436 370 436 359 477 c 128,-1,24
 348 518 348 518 330.5 544 c 128,-1,25
 313 570 313 570 292 583 c 128,-1,26
 271 596 271 596 250 596 c 0,27,28
 149 596 149 596 120 439 c 1,29,-1
 268 439 l 2,30,31
 320 439 320 439 320 386 c 2,32,-1
 320 283 l 2,33,34
 320 241 320 241 313 211.5 c 128,-1,35
 306 182 306 182 291 161.5 c 128,-1,36
 276 141 276 141 254 130 c 128,-1,37
 232 119 232 119 202 116 c 0,38,39
 157 111 157 111 132.5 100 c 128,-1,40
 108 89 108 89 96 83 c 1,41,42
 95 91 95 91 94 101.5 c 128,-1,43
 93 112 93 112 93 117 c 0,44,45
 93 139 93 139 97.5 155 c 128,-1,46
 102 171 102 171 114.5 183 c 128,-1,47
 127 195 127 195 151 203 c 0,48,49
 179 212 179 212 210 214 c 0,50,51
 226 215 226 215 238 220 c 128,-1,52
 250 225 250 225 259 233.5 c 128,-1,53
 268 242 268 242 272 257.5 c 128,-1,54
 276 273 276 273 276 297 c 2,55,-1
 276 327 l 1,56,-1
 0 327 l 1,57,-1
 0 439 l 1,58,-1
 78 439 l 1,0,1
EndSplineSet
Validated: 1
EndChar

StartChar: uniE02D
Encoding: 57389 57389 45
Width: 848
Flags: W
LayerCount: 2
Fore
SplineSet
81 439 m 1,0,1
 90 564 90 564 132.5 630 c 128,-1,2
 175 696 175 696 253 696 c 0,3,4
 291 696 291 696 320 677.5 c 128,-1,5
 349 659 349 659 370 625.5 c 128,-1,6
 391 592 391 592 404 544.5 c 128,-1,7
 417 497 417 497 421 439 c 1,8,-1
 651 439 l 2,9,10
 713 439 713 439 744 383.5 c 128,-1,11
 775 328 775 328 775 214 c 2,12,-1
 775 11 l 2,13,14
 775 -31 775 -31 767.5 -62.5 c 128,-1,15
 760 -94 760 -94 745 -117.5 c 128,-1,16
 730 -141 730 -141 707.5 -157.5 c 128,-1,17
 685 -174 685 -174 657 -187 c 0,18,19
 640 -194 640 -194 630.5 -200 c 128,-1,20
 621 -206 621 -206 613.5 -212.5 c 128,-1,21
 606 -219 606 -219 601 -227.5 c 128,-1,22
 596 -236 596 -236 590 -250 c 1,23,-1
 579 -250 l 1,24,-1
 611 -110 l 1,25,26
 618 -108 618 -108 624.5 -106 c 128,-1,27
 631 -104 631 -104 638.5 -102 c 128,-1,28
 646 -100 646 -100 655 -95 c 128,-1,29
 664 -90 664 -90 676 -83 c 0,30,31
 683 -79 683 -79 693 -72.5 c 128,-1,32
 703 -66 703 -66 711 -55 c 128,-1,33
 719 -44 719 -44 724.5 -28 c 128,-1,34
 730 -12 730 -12 730 11 c 2,35,-1
 730 214 l 2,36,37
 730 270 730 270 709 298.5 c 128,-1,38
 688 327 688 327 651 327 c 2,39,-1
 467 327 l 1,40,41
 466 311 466 311 463.5 284 c 128,-1,42
 461 257 461 257 458 228.5 c 128,-1,43
 455 200 455 200 451 173.5 c 128,-1,44
 447 147 447 147 442 132 c 1,45,-1
 420 125 l 1,46,47
 410 148 410 148 402 181 c 128,-1,48
 394 214 394 214 387.5 250 c 128,-1,49
 381 286 381 286 377 320.5 c 128,-1,50
 373 355 373 355 373 381 c 0,51,52
 373 436 373 436 362 477 c 128,-1,53
 351 518 351 518 333.5 544 c 128,-1,54
 316 570 316 570 294.5 583 c 128,-1,55
 273 596 273 596 253 596 c 0,56,57
 152 596 152 596 123 439 c 1,58,-1
 271 439 l 2,59,60
 323 439 323 439 323 386 c 2,61,-1
 323 283 l 2,62,63
 323 241 323 241 316 211.5 c 128,-1,64
 309 182 309 182 294 161.5 c 128,-1,65
 279 141 279 141 257 130 c 128,-1,66
 235 119 235 119 205 116 c 0,67,68
 160 111 160 111 135.5 100 c 128,-1,69
 111 89 111 89 99 83 c 1,70,71
 98 91 98 91 97 101.5 c 128,-1,72
 96 112 96 112 96 117 c 0,73,74
 96 139 96 139 100 155 c 128,-1,75
 104 171 104 171 117 183 c 128,-1,76
 130 195 130 195 154 203 c 0,77,78
 182 212 182 212 213 214 c 0,79,80
 229 215 229 215 241 220 c 128,-1,81
 253 225 253 225 262 233.5 c 128,-1,82
 271 242 271 242 275 257.5 c 128,-1,83
 279 273 279 273 279 297 c 2,84,-1
 279 327 l 1,85,-1
 0 327 l 5,86,-1
 0 439 l 1,87,-1
 81 439 l 1,0,1
EndSplineSet
Validated: 1
EndChar

StartChar: uniE02E
Encoding: 57390 57390 46
Width: 597
Flags: W
LayerCount: 2
Fore
SplineSet
646 439 m 1,0,-1
 646 327 l 1,1,-1
 453 327 l 1,2,3
 464 279 464 279 487.5 236 c 128,-1,4
 511 193 511 193 542 155 c 1,5,-1
 525 54 l 1,6,-1
 510 54 l 1,7,8
 459 126 459 126 430.5 210 c 128,-1,9
 402 294 402 294 388 384 c 0,10,11
 378 439 378 439 363 479 c 128,-1,12
 348 519 348 519 330 545 c 128,-1,13
 312 571 312 571 291.5 584 c 128,-1,14
 271 597 271 597 250 597 c 0,15,16
 150 597 150 597 121 439 c 1,17,-1
 268 439 l 2,18,19
 320 439 320 439 320 386 c 2,20,-1
 320 285 l 2,21,22
 320 243 320 243 312.5 213.5 c 128,-1,23
 305 184 305 184 290.5 164 c 128,-1,24
 276 144 276 144 254 133 c 128,-1,25
 232 122 232 122 203 117 c 0,26,27
 158 112 158 112 133 102 c 128,-1,28
 108 92 108 92 97 84 c 1,29,30
 96 94 96 94 95.5 104.5 c 128,-1,31
 95 115 95 115 95 120 c 0,32,33
 95 142 95 142 99 157.5 c 128,-1,34
 103 173 103 173 116 185.5 c 128,-1,35
 129 198 129 198 151.5 205.5 c 128,-1,36
 174 213 174 213 210 217 c 0,37,38
 225 218 225 218 237.5 222 c 128,-1,39
 250 226 250 226 258.5 235 c 128,-1,40
 267 244 267 244 271 258.5 c 128,-1,41
 275 273 275 273 275 299 c 2,42,-1
 275 327 l 1,43,-1
 80 327 l 1,44,-1
 80 439 l 1,45,46
 88 563 88 563 130.5 629.5 c 128,-1,47
 173 696 173 696 250 696 c 0,48,49
 289 696 289 696 317 674.5 c 128,-1,50
 345 653 345 653 366.5 617.5 c 128,-1,51
 388 582 388 582 402 535 c 128,-1,52
 416 488 416 488 422 439 c 1,53,-1
 646 439 l 1,0,-1
EndSplineSet
Validated: 1
EndChar

StartChar: uniE02F
Encoding: 57391 57391 47
Width: 595
Flags: W
LayerCount: 2
Fore
SplineSet
79 439 m 1,0,1
 87 563 87 563 129.5 629.5 c 128,-1,2
 172 696 172 696 249 696 c 0,3,4
 288 696 288 696 316 674.5 c 128,-1,5
 344 653 344 653 365.5 617.5 c 128,-1,6
 387 582 387 582 401 535 c 128,-1,7
 415 488 415 488 421 439 c 1,8,-1
 645 439 l 1,9,-1
 645 327 l 1,10,-1
 452 327 l 1,11,12
 463 279 463 279 486.5 236 c 128,-1,13
 510 193 510 193 541 155 c 1,14,-1
 524 54 l 1,15,-1
 509 54 l 1,16,17
 458 126 458 126 430 210 c 0,18,19
 403 289 403 289 387 384 c 0,20,21
 378 434 378 434 362 479 c 0,22,23
 347 519 347 519 329 545 c 128,-1,24
 311 571 311 571 291 584 c 128,-1,25
 271 597 271 597 249 597 c 0,26,27
 149 597 149 597 120 439 c 1,28,-1
 267 439 l 2,29,30
 319 439 319 439 319 386 c 2,31,-1
 319 285 l 2,32,33
 319 243 319 243 311.5 213.5 c 128,-1,34
 304 184 304 184 289.5 164 c 128,-1,35
 275 144 275 144 253 133 c 0,36,37
 229 121 229 121 202 117 c 0,38,39
 155 111 155 111 132 102 c 0,40,41
 107 92 107 92 96 84 c 1,42,43
 95 94 95 94 94.5 104.5 c 128,-1,44
 94 115 94 115 94 120 c 0,45,46
 94 142 94 142 98 157.5 c 128,-1,47
 102 173 102 173 115 185.5 c 128,-1,48
 128 198 128 198 150 205 c 0,49,50
 175 214 175 214 209 217 c 0,51,52
 227 219 227 219 237 222 c 0,53,54
 249 226 249 226 257.5 235 c 128,-1,55
 266 244 266 244 270 258.5 c 128,-1,56
 274 273 274 273 274 299 c 2,57,-1
 274 327 l 1,58,-1
 0 327 l 5,59,-1
 0 439 l 1,60,-1
 79 439 l 1,0,1
EndSplineSet
Validated: 1
EndChar

StartChar: uniE030
Encoding: 57392 57392 48
Width: 796
Flags: W
LayerCount: 2
Fore
SplineSet
458 327 m 1,0,1
 469 279 469 279 492.5 236 c 128,-1,2
 516 193 516 193 546 155 c 1,3,-1
 530 54 l 1,4,-1
 515 54 l 1,5,6
 464 126 464 126 436 210 c 0,7,8
 409 289 409 289 393 384 c 0,9,10
 384 434 384 434 367 479 c 0,11,12
 352 519 352 519 334.5 545 c 128,-1,13
 317 571 317 571 296.5 584 c 128,-1,14
 276 597 276 597 254 597 c 0,15,16
 154 597 154 597 126 439 c 1,17,-1
 273 439 l 2,18,19
 325 439 325 439 325 386 c 2,20,-1
 325 285 l 2,21,22
 325 243 325 243 317.5 213.5 c 128,-1,23
 310 184 310 184 295.5 164 c 128,-1,24
 281 144 281 144 259 133 c 0,25,26
 235 121 235 121 208 117 c 0,27,28
 161 111 161 111 138 102 c 0,29,30
 113 92 113 92 102 84 c 1,31,32
 101 94 101 94 100.5 104.5 c 128,-1,33
 100 115 100 115 100 120 c 0,34,35
 100 142 100 142 103.5 157.5 c 128,-1,36
 107 173 107 173 120.5 185.5 c 128,-1,37
 134 198 134 198 156 205 c 0,38,39
 181 214 181 214 215 217 c 0,40,41
 233 219 233 219 242 222 c 0,42,43
 254 226 254 226 263 235 c 128,-1,44
 272 244 272 244 276 258.5 c 128,-1,45
 280 273 280 273 280 299 c 2,46,-1
 280 327 l 1,47,-1
 0 327 l 5,48,-1
 0 439 l 1,49,-1
 84 439 l 1,50,51
 92 563 92 563 135 629.5 c 128,-1,52
 178 696 178 696 254 696 c 0,53,54
 293 696 293 696 321.5 674.5 c 128,-1,55
 350 653 350 653 371.5 617.5 c 128,-1,56
 393 582 393 582 406.5 535 c 128,-1,57
 420 488 420 488 427 439 c 1,58,-1
 689 439 l 1,59,60
 734 436 734 436 760.5 401.5 c 128,-1,61
 787 367 787 367 787 309 c 2,62,-1
 787 250 l 2,63,64
 787 215 787 215 774.5 193.5 c 128,-1,65
 762 172 762 172 744 172 c 1,66,-1
 744 183 l 2,67,68
 744 249 744 249 719 287 c 128,-1,69
 694 325 694 325 646 327 c 1,70,-1
 458 327 l 1,0,1
EndSplineSet
Validated: 1
EndChar

StartChar: uniE031
Encoding: 57393 57393 49
Width: 486
Flags: W
LayerCount: 2
Fore
SplineSet
418 439 m 1,0,1
 415 464 415 464 406.5 492.5 c 128,-1,2
 398 521 398 521 380 543.5 c 128,-1,3
 362 566 362 566 334.5 582 c 128,-1,4
 307 598 307 598 268 598 c 0,5,6
 242 598 242 598 216 587.5 c 128,-1,7
 190 577 190 577 168 557.5 c 128,-1,8
 146 538 146 538 131 508.5 c 128,-1,9
 116 479 116 479 109 439 c 1,10,-1
 212 439 l 2,11,12
 237 439 237 439 250.5 424 c 128,-1,13
 264 409 264 409 266 384 c 1,14,15
 267 409 267 409 280.5 424 c 128,-1,16
 294 439 294 439 320 439 c 2,17,-1
 418 439 l 1,0,1
426 327 m 1,18,-1
 307 327 l 1,19,20
 307 290 307 290 308.5 265.5 c 128,-1,21
 310 241 310 241 316 224.5 c 128,-1,22
 322 208 322 208 333.5 200.5 c 128,-1,23
 345 193 345 193 363 193 c 0,24,25
 401 193 401 193 413.5 226 c 128,-1,26
 426 259 426 259 426 327 c 1,18,-1
467 327 m 1,27,-1
 467 325 l 2,28,29
 467 273 467 273 461 232.5 c 128,-1,30
 455 192 455 192 442.5 163.5 c 128,-1,31
 430 135 430 135 411 120 c 128,-1,32
 392 105 392 105 363 105 c 0,33,34
 317 105 317 105 292 140 c 0,35,36
 268 173 268 173 266 239 c 1,37,38
 263 189 263 189 240 158 c 0,39,40
 214 125 214 125 163 118 c 0,41,42
 123 113 123 113 101.5 103 c 128,-1,43
 80 93 80 93 68 86 c 1,44,45
 67 94 67 94 66.5 105 c 128,-1,46
 66 116 66 116 66 121 c 0,47,48
 66 143 66 143 70 158.5 c 128,-1,49
 74 174 74 174 85.5 186.5 c 128,-1,50
 97 199 97 199 117 206 c 128,-1,51
 137 213 137 213 169 217 c 0,52,53
 183 219 183 219 194 223 c 128,-1,54
 205 227 205 227 212.5 236 c 128,-1,55
 220 245 220 245 223.5 259.5 c 128,-1,56
 227 274 227 274 227 299 c 2,57,-1
 227 327 l 1,58,-1
 66 327 l 1,59,-1
 66 440 l 1,60,61
 69 502 69 502 86.5 550.5 c 128,-1,62
 104 599 104 599 131.5 631.5 c 128,-1,63
 159 664 159 664 194 681 c 128,-1,64
 229 698 229 698 268 698 c 0,65,66
 321 698 321 698 357 675.5 c 128,-1,67
 393 653 393 653 416.5 617 c 128,-1,68
 440 581 440 581 452 534 c 128,-1,69
 464 487 464 487 467 440 c 1,70,-1
 467 439 l 1,71,-1
 535 439 l 1,72,-1
 535 327 l 1,73,-1
 467 327 l 1,27,-1
EndSplineSet
Validated: 1
EndChar

StartChar: uniE032
Encoding: 57394 57394 50
Width: 502
Flags: W
LayerCount: 2
Fore
SplineSet
443 327 m 1,0,-1
 323 327 l 1,1,2
 323 290 323 290 325 265.5 c 128,-1,3
 327 241 327 241 332.5 224.5 c 128,-1,4
 338 208 338 208 349.5 200.5 c 128,-1,5
 361 193 361 193 379 193 c 0,6,7
 417 193 417 193 430 226 c 128,-1,8
 443 259 443 259 443 327 c 1,0,-1
83 439 m 1,9,-1
 83 440 l 1,10,11
 86 502 86 502 103.5 550.5 c 128,-1,12
 121 599 121 599 148 631.5 c 128,-1,13
 175 664 175 664 210 681 c 128,-1,14
 245 698 245 698 284 698 c 0,15,16
 337 698 337 698 373.5 675.5 c 128,-1,17
 410 653 410 653 433.5 617 c 128,-1,18
 457 581 457 581 469 534 c 128,-1,19
 481 487 481 487 483 440 c 1,20,-1
 483 439 l 1,21,-1
 552 439 l 1,22,-1
 552 327 l 1,23,-1
 483 327 l 1,24,-1
 483 325 l 2,25,26
 483 273 483 273 477.5 232.5 c 128,-1,27
 472 192 472 192 459 163.5 c 128,-1,28
 446 135 446 135 427.5 120 c 128,-1,29
 409 105 409 105 379 105 c 0,30,31
 334 105 334 105 309 140 c 0,32,33
 285 173 285 173 283 239 c 1,34,35
 280 189 280 189 256 158 c 0,36,37
 230 124 230 124 180 118 c 0,38,39
 140 113 140 113 118 103 c 128,-1,40
 96 93 96 93 85 86 c 1,41,42
 84 94 84 94 83.5 105 c 128,-1,43
 83 116 83 116 83 121 c 0,44,45
 83 143 83 143 86.5 158.5 c 128,-1,46
 90 174 90 174 102 186.5 c 128,-1,47
 114 199 114 199 133.5 206 c 128,-1,48
 153 213 153 213 186 217 c 0,49,50
 200 219 200 219 210.5 223 c 128,-1,51
 221 227 221 227 229 236 c 128,-1,52
 237 245 237 245 240.5 259.5 c 128,-1,53
 244 274 244 274 244 299 c 2,54,-1
 244 327 l 1,55,-1
 0 327 l 1,56,-1
 0 439 l 1,57,-1
 83 439 l 1,9,-1
229 439 m 2,58,59
 254 439 254 439 267.5 424 c 128,-1,60
 281 409 281 409 283 384 c 1,61,62
 284 409 284 409 297.5 424 c 128,-1,63
 311 439 311 439 336 439 c 2,64,-1
 435 439 l 1,65,66
 432 464 432 464 423.5 492.5 c 128,-1,67
 415 521 415 521 396.5 543.5 c 128,-1,68
 378 566 378 566 350.5 582 c 128,-1,69
 323 598 323 598 284 598 c 0,70,71
 258 598 258 598 232.5 587.5 c 128,-1,72
 207 577 207 577 185 557.5 c 128,-1,73
 163 538 163 538 147.5 508.5 c 128,-1,74
 132 479 132 479 125 439 c 1,75,-1
 229 439 l 2,58,59
EndSplineSet
Validated: 1
EndChar

StartChar: uniE033
Encoding: 57395 57395 51
Width: 550
Flags: W
LayerCount: 2
Fore
SplineSet
435 327 m 1,0,-1
 315 327 l 1,1,2
 315 290 315 290 317 265.5 c 128,-1,3
 319 241 319 241 325 224.5 c 128,-1,4
 331 208 331 208 342.5 200.5 c 128,-1,5
 354 193 354 193 372 193 c 0,6,7
 410 193 410 193 422.5 226 c 128,-1,8
 435 259 435 259 435 327 c 1,0,-1
75 439 m 1,9,-1
 75 440 l 1,10,11
 78 502 78 502 95.5 550.5 c 128,-1,12
 113 599 113 599 140 631.5 c 128,-1,13
 167 664 167 664 202 681 c 128,-1,14
 237 698 237 698 276 698 c 0,15,16
 329 698 329 698 365.5 675.5 c 128,-1,17
 402 653 402 653 425.5 617 c 128,-1,18
 449 581 449 581 461 534 c 128,-1,19
 473 487 473 487 476 440 c 1,20,-1
 476 325 l 2,21,22
 476 273 476 273 470 232.5 c 128,-1,23
 464 192 464 192 451 163.5 c 128,-1,24
 438 135 438 135 419.5 120 c 128,-1,25
 401 105 401 105 372 105 c 0,26,27
 327 105 327 105 301 140 c 0,28,29
 277 173 277 173 275 239 c 1,30,31
 272 189 272 189 249 158 c 0,32,33
 223 124 223 124 172 118 c 0,34,35
 132 113 132 113 110 103 c 128,-1,36
 88 93 88 93 77 86 c 1,37,38
 76 94 76 94 75.5 105 c 128,-1,39
 75 116 75 116 75 121 c 0,40,41
 75 143 75 143 79 158.5 c 128,-1,42
 83 174 83 174 94.5 186.5 c 128,-1,43
 106 199 106 199 126 206 c 128,-1,44
 146 213 146 213 178 217 c 0,45,46
 192 219 192 219 202.5 223 c 128,-1,47
 213 227 213 227 221 236 c 128,-1,48
 229 245 229 245 232.5 259.5 c 128,-1,49
 236 274 236 274 236 299 c 2,50,-1
 236 327 l 1,51,-1
 0 327 l 1,52,-1
 0 439 l 5,53,-1
 75 439 l 1,9,-1
221 439 m 2,54,55
 246 439 246 439 259.5 424 c 128,-1,56
 273 409 273 409 275 384 c 1,57,58
 276 409 276 409 289.5 424 c 128,-1,59
 303 439 303 439 329 439 c 2,60,-1
 427 439 l 1,61,62
 424 464 424 464 415.5 492.5 c 128,-1,63
 407 521 407 521 389 543.5 c 128,-1,64
 371 566 371 566 343 582 c 128,-1,65
 315 598 315 598 276 598 c 0,66,67
 250 598 250 598 224.5 587.5 c 128,-1,68
 199 577 199 577 177 557.5 c 128,-1,69
 155 538 155 538 140 508.5 c 128,-1,70
 125 479 125 479 118 439 c 1,71,-1
 221 439 l 2,54,55
EndSplineSet
Validated: 1
EndChar

StartChar: uniE034
Encoding: 57396 57396 52
Width: 752
Flags: W
LayerCount: 2
Fore
SplineSet
440 439 m 1,0,1
 437 464 437 464 428.5 492.5 c 128,-1,2
 420 521 420 521 402 543.5 c 128,-1,3
 384 566 384 566 356.5 582 c 128,-1,4
 329 598 329 598 290 598 c 0,5,6
 264 598 264 598 238 587.5 c 128,-1,7
 212 577 212 577 190 557.5 c 128,-1,8
 168 538 168 538 153 508.5 c 128,-1,9
 138 479 138 479 131 439 c 1,10,-1
 234 439 l 2,11,12
 259 439 259 439 272.5 424 c 128,-1,13
 286 409 286 409 288 384 c 1,14,15
 289 409 289 409 302.5 424 c 128,-1,16
 316 439 316 439 342 439 c 2,17,-1
 440 439 l 1,0,1
448 327 m 1,18,-1
 329 327 l 1,19,20
 329 290 329 290 330.5 265.5 c 128,-1,21
 332 241 332 241 338 224.5 c 128,-1,22
 344 208 344 208 355.5 200.5 c 128,-1,23
 367 193 367 193 385 193 c 0,24,25
 423 193 423 193 435.5 226 c 128,-1,26
 448 259 448 259 448 327 c 1,18,-1
489 327 m 1,27,-1
 489 325 l 2,28,29
 489 273 489 273 483 232.5 c 128,-1,30
 477 192 477 192 464.5 163.5 c 128,-1,31
 452 135 452 135 433 120 c 128,-1,32
 414 105 414 105 385 105 c 0,33,34
 339 105 339 105 314 140 c 0,35,36
 290 173 290 173 288 239 c 1,37,38
 285 189 285 189 262 158 c 0,39,40
 236 125 236 125 185 118 c 0,41,42
 145 113 145 113 123.5 103 c 128,-1,43
 102 93 102 93 90 86 c 1,44,45
 89 94 89 94 88.5 105 c 128,-1,46
 88 116 88 116 88 121 c 0,47,48
 88 143 88 143 92 158.5 c 128,-1,49
 96 174 96 174 107.5 186.5 c 128,-1,50
 119 199 119 199 139 206 c 128,-1,51
 159 213 159 213 191 217 c 0,52,53
 205 219 205 219 216 223 c 128,-1,54
 227 227 227 227 234.5 236 c 128,-1,55
 242 245 242 245 245.5 259.5 c 128,-1,56
 249 274 249 274 249 299 c 2,57,-1
 249 327 l 1,58,-1
 88 327 l 1,59,-1
 88 440 l 1,60,61
 91 502 91 502 108.5 550.5 c 128,-1,62
 126 599 126 599 153.5 631.5 c 128,-1,63
 181 664 181 664 215.5 681 c 128,-1,64
 250 698 250 698 290 698 c 0,65,66
 343 698 343 698 379 675.5 c 128,-1,67
 415 653 415 653 438.5 617 c 128,-1,68
 462 581 462 581 474 534 c 128,-1,69
 486 487 486 487 489 440 c 1,70,-1
 489 439 l 1,71,-1
 801 439 l 1,72,-1
 801 327 l 1,73,-1
 570 327 l 1,74,-1
 698 146 l 1,75,-1
 698 130 l 1,76,-1
 671 2 l 1,77,-1
 656 2 l 1,78,-1
 528 327 l 1,79,-1
 489 327 l 1,27,-1
EndSplineSet
Validated: 1
EndChar

StartChar: uniE035
Encoding: 57397 57397 53
Width: 1056
Flags: W
LayerCount: 2
Fore
SplineSet
607 439 m 17,0,-1
 607 372 l 2,1,2
 607 349 607 349 616 319.5 c 128,-1,3
 625 290 625 290 637.5 261.5 c 128,-1,4
 650 233 650 233 663 210.5 c 128,-1,5
 676 188 676 188 688 178 c 1,6,7
 685 187 685 187 685 203 c 0,8,9
 685 213 685 213 687 226 c 0,10,11
 690 257 690 257 703.5 320 c 128,-1,12
 717 383 717 383 759.5 489.5 c 128,-1,13
 802 596 802 596 821.5 669 c 128,-1,14
 841 742 841 742 841 762 c 0,15,16
 841 775 841 775 838 791 c 128,-1,17
 835 807 835 807 832.5 824 c 128,-1,18
 830 841 830 841 826.5 855.5 c 128,-1,19
 823 870 823 870 823 874 c 0,20,21
 823 891 823 891 827.5 898.5 c 128,-1,22
 832 906 832 906 844 906 c 0,23,24
 847 906 847 906 853.5 897.5 c 128,-1,25
 860 889 860 889 867 877 c 0,26,27
 882 849 882 849 893.5 826 c 128,-1,28
 905 803 905 803 916 780 c 128,-1,29
 927 757 927 757 939.5 733 c 128,-1,30
 952 709 952 709 966 681 c 1,31,32
 921 623 921 623 889.5 577.5 c 128,-1,33
 858 532 858 532 825 448.5 c 128,-1,34
 792 365 792 365 764 266 c 128,-1,35
 736 167 736 167 736 71 c 1,36,37
 701 89 701 89 671.5 120 c 128,-1,38
 642 151 642 151 619.5 187 c 128,-1,39
 597 223 597 223 582.5 260 c 128,-1,40
 568 297 568 297 566 327 c 1,41,-1
 469 327 l 1,42,43
 468 312 468 312 465 286 c 128,-1,44
 462 260 462 260 459 231 c 128,-1,45
 456 202 456 202 452 176 c 128,-1,46
 448 150 448 150 444 135 c 1,47,-1
 422 127 l 1,48,49
 402 173 402 173 390 233 c 128,-1,50
 378 293 378 293 378 391 c 256,51,52
 378 489 378 489 355.5 529.5 c 128,-1,53
 333 570 333 570 304 570 c 0,54,55
 283 570 283 570 266.5 556 c 128,-1,56
 250 542 250 542 238.5 518.5 c 128,-1,57
 227 495 227 495 220.5 463 c 128,-1,58
 214 431 214 431 214 393 c 0,59,60
 214 352 214 352 224.5 324 c 128,-1,61
 235 296 235 296 248 273 c 128,-1,62
 261 250 261 250 271.5 229.5 c 128,-1,63
 282 209 282 209 282 184 c 0,64,65
 282 130 282 130 212 129 c 0,66,67
 196 129 196 129 182 131.5 c 128,-1,68
 168 134 168 134 158.5 138.5 c 128,-1,69
 149 143 149 143 143 147 c 0,70,71
 138 151 138 151 138 155 c 2,72,-1
 138 156 l 2,73,74
 139 170 139 170 150.5 177 c 128,-1,75
 162 184 162 184 174.5 192 c 128,-1,76
 187 200 187 200 197 215 c 128,-1,77
 207 230 207 230 207 261 c 0,78,79
 207 274 207 274 203 288 c 128,-1,80
 199 302 199 302 191 314 c 128,-1,81
 183 326 183 326 171.5 333.5 c 128,-1,82
 160 341 160 341 146 341 c 0,83,84
 139 341 139 341 133 339 c 128,-1,85
 127 337 127 337 120 334 c 128,-1,86
 113 331 113 331 107 329 c 128,-1,87
 101 327 101 327 96 327 c 1,88,89
 86 338 86 338 84 352.5 c 128,-1,90
 82 367 82 367 82 386 c 0,91,92
 82 404 82 404 87 415.5 c 128,-1,93
 92 427 92 427 100 433 c 128,-1,94
 108 439 108 439 119 443.5 c 128,-1,95
 130 448 130 448 140 453 c 128,-1,96
 150 458 150 458 158.5 465 c 128,-1,97
 167 472 167 472 172 485 c 0,98,99
 203 575 203 575 239 622 c 128,-1,100
 275 669 275 669 318 669 c 0,101,102
 340 669 340 669 359 658 c 128,-1,103
 378 647 378 647 394 624 c 128,-1,104
 410 601 410 601 419 565.5 c 128,-1,105
 428 530 428 530 428 480 c 2,106,-1
 427 439 l 9,107,-1
 607 439 l 17,0,-1
EndSplineSet
Validated: 1
EndChar

StartChar: uniE036
Encoding: 57398 57398 54
Width: 798
Flags: W
LayerCount: 2
Fore
SplineSet
418 327 m 1,0,1
 417 312 417 312 414.5 286 c 128,-1,2
 412 260 412 260 408.5 231 c 128,-1,3
 405 202 405 202 401 176 c 128,-1,4
 397 150 397 150 393 135 c 1,5,-1
 371 127 l 1,6,7
 351 173 351 173 338.5 232 c 128,-1,8
 326 291 326 291 326 366 c 0,9,10
 326 439 326 439 323 463 c 128,-1,11
 320 487 320 487 313.5 505 c 128,-1,12
 307 523 307 523 296 538 c 128,-1,13
 285 553 285 553 269.5 562 c 128,-1,14
 254 571 254 571 234 571 c 0,15,16
 203 571 203 571 181 551.5 c 128,-1,17
 159 532 159 532 143.5 504 c 128,-1,18
 128 476 128 476 121.5 444 c 128,-1,19
 115 412 115 412 115 385 c 0,20,21
 115 335 115 335 137.5 282 c 128,-1,22
 160 229 160 229 206 177 c 1,23,-1
 177 78 l 1,24,-1
 167 78 l 1,25,26
 122 134 122 134 97 198 c 128,-1,27
 72 262 72 262 72 327 c 2,28,-1
 72 440 l 1,29,30
 75 490 75 490 89.5 532.5 c 128,-1,31
 104 575 104 575 125.5 605.5 c 128,-1,32
 147 636 147 636 175 653 c 128,-1,33
 203 670 203 670 237 670 c 0,34,35
 270 670 270 670 294.5 653 c 128,-1,36
 319 636 319 636 336.5 605 c 128,-1,37
 354 574 354 574 362 532 c 128,-1,38
 370 490 370 490 372 439 c 1,39,-1
 599 439 l 2,40,41
 661 439 661 439 692 383.5 c 128,-1,42
 723 328 723 328 723 214 c 2,43,-1
 723 11 l 2,44,45
 723 -31 723 -31 715 -62.5 c 128,-1,46
 707 -94 707 -94 692 -117.5 c 128,-1,47
 677 -141 677 -141 654.5 -157.5 c 128,-1,48
 632 -174 632 -174 604 -187 c 0,49,50
 587 -194 587 -194 577.5 -200 c 128,-1,51
 568 -206 568 -206 561 -212.5 c 128,-1,52
 554 -219 554 -219 548.5 -227.5 c 128,-1,53
 543 -236 543 -236 537 -250 c 1,54,-1
 526 -250 l 1,55,-1
 558 -110 l 1,56,57
 565 -108 565 -108 571.5 -106 c 128,-1,58
 578 -104 578 -104 586 -102 c 128,-1,59
 594 -100 594 -100 602.5 -95 c 128,-1,60
 611 -90 611 -90 624 -83 c 0,61,62
 631 -79 631 -79 640.5 -72.5 c 128,-1,63
 650 -66 650 -66 658 -55 c 128,-1,64
 666 -44 666 -44 671.5 -28 c 128,-1,65
 677 -12 677 -12 677 11 c 2,66,-1
 677 214 l 2,67,68
 677 270 677 270 656.5 298.5 c 128,-1,69
 636 327 636 327 599 327 c 2,70,-1
 418 327 l 1,0,1
EndSplineSet
Validated: 1
EndChar

StartChar: uniE037
Encoding: 57399 57399 55
Width: 765
Flags: W
LayerCount: 2
Fore
SplineSet
589 439 m 1,0,1
 634 436 634 436 660.5 401.5 c 128,-1,2
 687 367 687 367 687 309 c 2,3,-1
 687 250 l 2,4,5
 687 215 687 215 674.5 193.5 c 128,-1,6
 662 172 662 172 644 172 c 1,7,-1
 644 183 l 2,8,9
 644 249 644 249 619 287 c 128,-1,10
 594 325 594 325 546 327 c 1,11,-1
 381 327 l 1,12,13
 394 278 394 278 417 234.5 c 128,-1,14
 440 191 440 191 473 154 c 1,15,-1
 456 52 l 1,16,-1
 440 52 l 1,17,18
 408 98 408 98 388.5 138 c 128,-1,19
 369 178 369 178 357.5 216.5 c 128,-1,20
 346 255 346 255 331 331 c 0,21,22
 316 407 316 407 310 447 c 128,-1,23
 304 487 304 487 294 520 c 128,-1,24
 284 553 284 553 268 575 c 128,-1,25
 252 597 252 597 227 597 c 0,26,27
 206 597 206 597 190 586 c 128,-1,28
 174 575 174 575 162.5 557.5 c 128,-1,29
 151 540 151 540 144 517.5 c 128,-1,30
 137 495 137 495 132 471.5 c 128,-1,31
 127 448 127 448 125.5 425 c 128,-1,32
 124 402 124 402 124 384 c 0,33,34
 124 350 124 350 129.5 322.5 c 128,-1,35
 135 295 135 295 147 271.5 c 128,-1,36
 159 248 159 248 176 225 c 128,-1,37
 193 202 193 202 217 176 c 1,38,-1
 188 76 l 1,39,-1
 176 76 l 1,40,41
 133 133 133 133 107.5 198.5 c 128,-1,42
 82 264 82 264 82 385 c 0,43,44
 82 471 82 471 95 527.5 c 128,-1,45
 108 584 108 584 126.5 619.5 c 128,-1,46
 145 655 145 655 170 676 c 128,-1,47
 195 697 195 697 228 697 c 0,48,49
 261 697 261 697 283.5 678 c 128,-1,50
 306 659 306 659 321 625 c 128,-1,51
 336 591 336 591 345 544 c 128,-1,52
 354 497 354 497 358 439 c 1,53,-1
 589 439 l 1,0,1
EndSplineSet
Validated: 1
EndChar

StartChar: uniE038
Encoding: 57400 57400 56
Width: 863
Flags: W
LayerCount: 2
Fore
SplineSet
593 327 m 1,0,-1
 593 243 l 2,1,2
 593 207 593 207 615.5 189.5 c 128,-1,3
 638 172 638 172 674 172 c 0,4,5
 709 172 709 172 728.5 189.5 c 128,-1,6
 748 207 748 207 748 243 c 2,7,-1
 748 327 l 1,8,-1
 593 327 l 1,0,-1
782 439 m 17,9,-1
 782 243 l 2,10,11
 782 168 782 168 755.5 126 c 128,-1,12
 729 84 729 84 673 84 c 0,13,14
 617 84 617 84 589 126 c 128,-1,15
 561 168 561 168 561 243 c 2,16,-1
 561 327 l 1,17,-1
 458 327 l 1,18,19
 457 312 457 312 454 286 c 128,-1,20
 451 260 451 260 447.5 231 c 128,-1,21
 444 202 444 202 440.5 176 c 128,-1,22
 437 150 437 150 432 135 c 1,23,-1
 410 127 l 1,24,25
 390 173 390 173 378 233 c 128,-1,26
 366 293 366 293 366 391 c 256,27,28
 366 489 366 489 343.5 529.5 c 128,-1,29
 321 570 321 570 292 570 c 0,30,31
 271 570 271 570 254.5 556 c 128,-1,32
 238 542 238 542 226.5 518.5 c 128,-1,33
 215 495 215 495 208.5 463 c 128,-1,34
 202 431 202 431 202 393 c 0,35,36
 202 352 202 352 212.5 324 c 128,-1,37
 223 296 223 296 236.5 273 c 128,-1,38
 250 250 250 250 260 229.5 c 128,-1,39
 270 209 270 209 270 184 c 0,40,41
 270 130 270 130 200 129 c 0,42,43
 184 129 184 129 170.5 131.5 c 128,-1,44
 157 134 157 134 147 138.5 c 128,-1,45
 137 143 137 143 131 147 c 0,46,47
 126 151 126 151 126 155 c 2,48,-1
 126 156 l 2,49,50
 127 170 127 170 138.5 177 c 128,-1,51
 150 184 150 184 162.5 192 c 128,-1,52
 175 200 175 200 185 215 c 128,-1,53
 195 230 195 230 195 261 c 0,54,55
 195 274 195 274 191.5 288 c 128,-1,56
 188 302 188 302 179.5 314 c 128,-1,57
 171 326 171 326 159.5 333.5 c 128,-1,58
 148 341 148 341 134 341 c 0,59,60
 127 341 127 341 121 339 c 128,-1,61
 115 337 115 337 108 334 c 128,-1,62
 101 331 101 331 95 329 c 128,-1,63
 89 327 89 327 84 327 c 1,64,65
 74 338 74 338 72 352.5 c 128,-1,66
 70 367 70 367 70 386 c 0,67,68
 70 404 70 404 75.5 415.5 c 128,-1,69
 81 427 81 427 89 433 c 128,-1,70
 97 439 97 439 108 443.5 c 128,-1,71
 119 448 119 448 128.5 453 c 128,-1,72
 138 458 138 458 147 465 c 128,-1,73
 156 472 156 472 160 485 c 0,74,75
 191 575 191 575 227.5 622 c 128,-1,76
 264 669 264 669 306 669 c 0,77,78
 328 669 328 669 347.5 658 c 128,-1,79
 367 647 367 647 382.5 624 c 128,-1,80
 398 601 398 601 407 565.5 c 128,-1,81
 416 530 416 530 416 480 c 2,82,-1
 416 439 l 9,83,-1
 782 439 l 17,9,-1
EndSplineSet
Validated: 1
EndChar

StartChar: uniE039
Encoding: 57401 57401 57
Width: 717
Flags: W
LayerCount: 2
Fore
SplineSet
412 327 m 5,0,-1
 312 327 l 5,1,-1
 312 278 l 6,2,3
 312 254 312 254 314.5 238.5 c 132,-1,4
 317 223 317 223 323 213.5 c 132,-1,5
 329 204 329 204 338 201 c 132,-1,6
 347 198 347 198 362 198 c 260,7,8
 377 198 377 198 387 201 c 132,-1,9
 397 204 397 204 402.5 214 c 132,-1,10
 408 224 408 224 410 239.5 c 132,-1,11
 412 255 412 255 412 278 c 6,12,-1
 412 327 l 5,0,-1
63 327 m 0,13,14
 60 367 60 367 60 397 c 0,15,16
 60 423 60 423 62 439 c 1,17,18
 62 455 62 455 64 470 c 0,19,20
 70 505 70 505 80 537 c 128,-1,21
 90 569 90 569 106 597.5 c 128,-1,22
 122 626 122 626 145 647.5 c 128,-1,23
 168 669 168 669 197.5 681 c 128,-1,24
 227 693 227 693 266 693 c 0,25,26
 315 693 315 693 349 676.5 c 128,-1,27
 383 660 383 660 404 628.5 c 128,-1,28
 425 597 425 597 438.5 546 c 128,-1,29
 452 495 452 495 452 439 c 1,30,-1
 552 439 l 1,31,32
 598 436 598 436 624 402 c 128,-1,33
 650 368 650 368 650 309 c 2,34,-1
 650 250 l 2,35,36
 650 214 650 214 637.5 193 c 128,-1,37
 625 172 625 172 607 172 c 1,38,-1
 607 183 l 2,39,40
 607 250 607 250 582 287.5 c 128,-1,41
 557 325 557 325 509 327 c 1,42,-1
 452 327 l 1,43,-1
 452 246 l 2,44,45
 452 214 452 214 448.5 188.5 c 128,-1,46
 445 163 445 163 435 145.5 c 128,-1,47
 425 128 425 128 408 119 c 128,-1,48
 391 110 391 110 362 110 c 0,49,50
 316 110 316 110 294.5 143 c 128,-1,51
 273 176 273 176 273 246 c 2,52,-1
 273 398 l 2,53,54
 273 407 273 407 274.5 414 c 128,-1,55
 276 421 276 421 280 427.5 c 128,-1,56
 284 434 284 434 292 436.5 c 128,-1,57
 300 439 300 439 312 439 c 2,58,-1
 412 439 l 1,59,60
 412 510 412 510 376.5 552.5 c 128,-1,61
 341 595 341 595 266 595 c 0,62,63
 218 595 218 595 187.5 577.5 c 128,-1,64
 157 560 157 560 138.5 532.5 c 128,-1,65
 120 505 120 505 111.5 470.5 c 128,-1,66
 103 436 103 436 103 401 c 0,67,68
 103 359 103 359 109.5 326.5 c 128,-1,69
 116 294 116 294 127 266.5 c 128,-1,70
 138 239 138 239 152.5 213 c 128,-1,71
 167 187 167 187 188 155 c 1,72,-1
 146 67 l 1,73,74
 123 99 123 99 107 139 c 128,-1,75
 91 179 91 179 80 224 c 128,-1,76
 69 269 69 269 64 314 c 0,77,-1
 63 327 l 0,13,14
EndSplineSet
Validated: 1
EndChar

StartChar: uniE03A
Encoding: 57402 57402 58
Width: 721
Flags: W
LayerCount: 2
Fore
SplineSet
549 327 m 9,0,1
 448 327 l 17,2,3
 447 312 447 312 444 286 c 128,-1,4
 441 260 441 260 438 231 c 128,-1,5
 435 202 435 202 431 176 c 128,-1,6
 427 150 427 150 423 135 c 1,7,-1
 401 127 l 1,8,9
 381 173 381 173 369 233 c 128,-1,10
 357 293 357 293 357 391 c 256,11,12
 357 488 357 488 334.5 529 c 128,-1,13
 312 570 312 570 283 570 c 0,14,15
 262 570 262 570 245.5 556 c 128,-1,16
 229 542 229 542 217.5 518.5 c 128,-1,17
 206 495 206 495 199.5 463 c 128,-1,18
 193 431 193 431 193 393 c 0,19,20
 193 353 193 353 203.5 324.5 c 128,-1,21
 214 296 214 296 227 273 c 128,-1,22
 240 250 240 250 250.5 229.5 c 128,-1,23
 261 209 261 209 261 184 c 0,24,25
 261 129 261 129 191 129 c 0,26,27
 175 129 175 129 161 131.5 c 128,-1,28
 147 134 147 134 137.5 138.5 c 128,-1,29
 128 143 128 143 122 147 c 0,30,31
 117 151 117 151 117 155 c 2,32,-1
 117 156 l 2,33,34
 118 170 118 170 129.5 177 c 128,-1,35
 141 184 141 184 153.5 192 c 128,-1,36
 166 200 166 200 176 215.5 c 128,-1,37
 186 231 186 231 186 261 c 0,38,39
 186 273 186 273 182 287.5 c 128,-1,40
 178 302 178 302 170 314 c 128,-1,41
 162 326 162 326 151 333.5 c 128,-1,42
 140 341 140 341 125 341 c 0,43,44
 117 341 117 341 111.5 339 c 128,-1,45
 106 337 106 337 99 334 c 128,-1,46
 92 331 92 331 85.5 329 c 128,-1,47
 79 327 79 327 75 327 c 1,48,49
 65 338 65 338 63 352 c 128,-1,50
 61 366 61 366 61 386 c 0,51,52
 61 404 61 404 66 415.5 c 128,-1,53
 71 427 71 427 79 433 c 128,-1,54
 87 439 87 439 98 443.5 c 128,-1,55
 109 448 109 448 119 453 c 128,-1,56
 129 458 129 458 138 465 c 128,-1,57
 147 472 147 472 151 485 c 0,58,59
 182 575 182 575 218.5 622 c 128,-1,60
 255 669 255 669 297 669 c 0,61,62
 319 669 319 669 338 658 c 128,-1,63
 357 647 357 647 373 624 c 128,-1,64
 389 601 389 601 398 565 c 128,-1,65
 407 529 407 529 407 480 c 2,66,-1
 406 439 l 1,67,-1
 770 439 l 1,68,-1
 770 327 l 1,69,-1
 642 327 l 1,70,71
 641 312 641 312 638 286 c 128,-1,72
 635 260 635 260 632 231 c 128,-1,73
 629 202 629 202 625.5 176 c 128,-1,74
 622 150 622 150 617 135 c 1,75,-1
 595 127 l 1,76,77
 575 173 575 173 564 224 c 128,-1,78
 553 275 553 275 549 327 c 9,0,1
EndSplineSet
Validated: 1
EndChar

StartChar: uniE03B
Encoding: 57403 57403 59
Width: 610
Flags: W
LayerCount: 2
Fore
SplineSet
664 439 m 17,0,-1
 664 327 l 1,1,-1
 536 327 l 1,2,3
 535 312 535 312 532 286 c 128,-1,4
 529 260 529 260 526 231 c 128,-1,5
 523 202 523 202 519 176 c 128,-1,6
 515 150 515 150 510 135 c 1,7,-1
 488 127 l 1,8,9
 468 173 468 173 457.5 224 c 128,-1,10
 447 275 447 275 442 327 c 1,11,-1
 340 327 l 1,12,13
 339 312 339 312 336 286 c 128,-1,14
 333 260 333 260 330.5 231 c 128,-1,15
 328 202 328 202 324 176 c 128,-1,16
 320 150 320 150 315 135 c 1,17,-1
 293 127 l 1,18,19
 273 173 273 173 262 224 c 128,-1,20
 251 275 251 275 247 327 c 1,21,-1
 145 327 l 1,22,23
 144 312 144 312 141 286 c 128,-1,24
 138 260 138 260 135 231 c 128,-1,25
 132 202 132 202 128.5 176 c 128,-1,26
 125 150 125 150 120 135 c 1,27,-1
 98 127 l 1,28,29
 78 173 78 173 67 224 c 128,-1,30
 56 275 56 275 52 327 c 1,31,-1
 -0 327 l 1,32,-1
 -0 439 l 9,33,-1
 664 439 l 17,0,-1
EndSplineSet
Validated: 1
EndChar

StartChar: uniE03C
Encoding: 57404 57404 60
Width: 816
Flags: W
LayerCount: 2
Fore
SplineSet
756 214 m 2,0,-1
 756 11 l 2,1,2
 756 -31 756 -31 748 -62.5 c 128,-1,3
 740 -94 740 -94 725 -117.5 c 128,-1,4
 710 -141 710 -141 688 -157.5 c 128,-1,5
 666 -174 666 -174 637 -187 c 0,6,7
 620 -194 620 -194 610.5 -200 c 128,-1,8
 601 -206 601 -206 594 -212.5 c 128,-1,9
 587 -219 587 -219 582 -227.5 c 128,-1,10
 577 -236 577 -236 570 -250 c 1,11,-1
 559 -250 l 1,12,-1
 591 -110 l 1,13,14
 598 -108 598 -108 604.5 -106 c 128,-1,15
 611 -104 611 -104 619 -102 c 128,-1,16
 627 -100 627 -100 635.5 -95 c 128,-1,17
 644 -90 644 -90 657 -83 c 0,18,19
 664 -79 664 -79 673.5 -72.5 c 128,-1,20
 683 -66 683 -66 691 -55 c 128,-1,21
 699 -44 699 -44 704.5 -28 c 128,-1,22
 710 -12 710 -12 710 11 c 2,23,-1
 710 214 l 2,24,25
 710 270 710 270 689.5 298.5 c 128,-1,26
 669 327 669 327 632 327 c 2,27,-1
 530 327 l 1,28,-1
 530 439 l 1,29,-1
 632 439 l 2,30,31
 694 439 694 439 725 383.5 c 128,-1,32
 756 328 756 328 756 214 c 2,0,-1
265 439 m 1,33,34
 265 333 265 333 272.5 310 c 128,-1,35
 280 287 280 287 291.5 267.5 c 128,-1,36
 303 248 303 248 316 232.5 c 128,-1,37
 329 217 329 217 340 206 c 1,38,39
 340 227 340 227 340.5 251 c 128,-1,40
 341 275 341 275 344 304.5 c 128,-1,41
 347 334 347 334 353.5 365.5 c 128,-1,42
 360 397 360 397 372 433 c 1,43,44
 391 481 391 481 403.5 516.5 c 128,-1,45
 416 552 416 552 424 578.5 c 128,-1,46
 432 605 432 605 436 627.5 c 128,-1,47
 440 650 440 650 440 673 c 0,48,49
 440 682 440 682 437.5 695.5 c 128,-1,50
 435 709 435 709 432 722.5 c 128,-1,51
 429 736 429 736 425.5 747 c 128,-1,52
 422 758 422 758 422 763 c 0,53,54
 422 779 422 779 427 786.5 c 128,-1,55
 432 794 432 794 444 794 c 0,56,57
 455 794 455 794 467 770.5 c 128,-1,58
 479 747 479 747 498 708 c 0,59,60
 519 667 519 667 536 637 c 128,-1,61
 553 607 553 607 561 584 c 1,62,63
 546 568 546 568 528.5 545 c 128,-1,64
 511 522 511 522 494 495.5 c 128,-1,65
 477 469 477 469 462 442 c 0,66,67
 449 419 449 419 439 390 c 128,-1,68
 429 361 429 361 420 335 c 128,-1,69
 411 309 411 309 404.5 278 c 128,-1,70
 398 247 398 247 395 207 c 128,-1,71
 392 167 392 167 392 110 c 1,72,73
 358 128 358 128 327.5 153 c 128,-1,74
 297 178 297 178 275 207 c 0,75,76
 254 234 254 234 239 267 c 0,77,78
 225 297 225 297 223 327 c 1,79,-1
 149 327 l 1,80,81
 148 312 148 312 145.5 286 c 128,-1,82
 143 260 143 260 140 231 c 128,-1,83
 137 202 137 202 133 176 c 128,-1,84
 129 150 129 150 124 135 c 1,85,-1
 102 127 l 1,86,87
 82 173 82 173 71.5 224 c 128,-1,88
 61 275 61 275 56 327 c 1,89,-1
 -1 327 l 1,90,-1
 -1 439 l 1,91,-1
 265 439 l 1,33,34
EndSplineSet
Validated: 1
EndChar

StartChar: uniE03D
Encoding: 57405 57405 61
Width: 484
Flags: W
LayerCount: 2
Fore
SplineSet
314 366 m 0,0,1
 314 439 314 439 311 463 c 128,-1,2
 308 487 308 487 301.5 505 c 128,-1,3
 295 523 295 523 284 538 c 128,-1,4
 273 553 273 553 257.5 562 c 128,-1,5
 242 571 242 571 222 571 c 0,6,7
 191 571 191 571 168.5 551.5 c 128,-1,8
 146 532 146 532 131 504 c 128,-1,9
 116 476 116 476 109.5 444 c 128,-1,10
 103 412 103 412 103 385 c 0,11,12
 103 335 103 335 125 282 c 128,-1,13
 147 229 147 229 194 177 c 1,14,-1
 165 78 l 1,15,-1
 154 78 l 1,16,17
 109 134 109 134 84.5 198 c 128,-1,18
 60 262 60 262 60 327 c 2,19,-1
 60 440 l 1,20,21
 63 490 63 490 77.5 532.5 c 128,-1,22
 92 575 92 575 113.5 605.5 c 128,-1,23
 135 636 135 636 163 653 c 128,-1,24
 191 670 191 670 225 670 c 0,25,26
 258 670 258 670 282.5 653 c 128,-1,27
 307 636 307 636 324.5 605 c 128,-1,28
 342 574 342 574 350 532 c 128,-1,29
 358 490 358 490 360 439 c 1,30,-1
 534 439 l 1,31,-1
 534 327 l 1,32,-1
 406 327 l 1,33,34
 405 312 405 312 402 286 c 128,-1,35
 399 260 399 260 396 231 c 128,-1,36
 393 202 393 202 389 176 c 128,-1,37
 385 150 385 150 381 135 c 1,38,-1
 359 127 l 1,39,40
 339 173 339 173 326.5 231.5 c 128,-1,41
 314 290 314 290 314 366 c 0,0,1
EndSplineSet
Validated: 1
EndChar

StartChar: uniE03E
Encoding: 57406 57406 62
Width: 478
Flags: W
LayerCount: 2
Fore
SplineSet
54 439 m 1,0,-1
 54 440 l 1,1,2
 57 490 57 490 71.5 532.5 c 128,-1,3
 86 575 86 575 107 605.5 c 128,-1,4
 128 636 128 636 156.5 653 c 128,-1,5
 185 670 185 670 218 670 c 128,-1,6
 251 670 251 670 276 653 c 128,-1,7
 301 636 301 636 318 605 c 128,-1,8
 335 574 335 574 343.5 532 c 128,-1,9
 352 490 352 490 354 439 c 1,10,-1
 527 439 l 1,11,-1
 527 327 l 1,12,-1
 399 327 l 1,13,14
 398 312 398 312 395.5 286 c 128,-1,15
 393 260 393 260 390 231 c 128,-1,16
 387 202 387 202 383 176 c 128,-1,17
 379 150 379 150 375 135 c 1,18,-1
 353 127 l 1,19,20
 333 173 333 173 320.5 232 c 128,-1,21
 308 291 308 291 308 366 c 0,22,23
 308 439 308 439 305 463 c 128,-1,24
 302 487 302 487 295.5 505 c 128,-1,25
 289 523 289 523 278 538 c 128,-1,26
 267 553 267 553 251.5 562 c 128,-1,27
 236 571 236 571 216 571 c 0,28,29
 185 571 185 571 162.5 551.5 c 128,-1,30
 140 532 140 532 125 504 c 128,-1,31
 110 476 110 476 103 444 c 128,-1,32
 96 412 96 412 96 385 c 0,33,34
 96 335 96 335 118.5 282 c 0,35,36
 142 229 142 229 188 177 c 1,37,-1
 158 78 l 1,38,-1
 148 78 l 1,39,40
 103 134 103 134 78.5 198 c 128,-1,41
 54 262 54 262 54 327 c 1,42,-1
 0 327 l 1,43,-1
 0 439 l 1,44,-1
 54 439 l 1,0,-1
EndSplineSet
Validated: 1
EndChar

StartChar: uniE03F
Encoding: 57407 57407 63
Width: 804
Flags: W
LayerCount: 2
Fore
SplineSet
73 439 m 1,0,-1
 73 440 l 1,1,2
 76 490 76 490 90.5 532.5 c 128,-1,3
 105 575 105 575 126.5 605.5 c 128,-1,4
 148 636 148 636 176 653 c 128,-1,5
 204 670 204 670 238 670 c 0,6,7
 271 670 271 670 295.5 653 c 128,-1,8
 320 636 320 636 337.5 605 c 128,-1,9
 355 574 355 574 363 532 c 128,-1,10
 371 490 371 490 373 439 c 1,11,-1
 600 439 l 2,12,13
 662 439 662 439 693 383.5 c 128,-1,14
 724 328 724 328 724 214 c 2,15,-1
 724 11 l 2,16,17
 724 -31 724 -31 716 -62.5 c 128,-1,18
 708 -94 708 -94 693 -117.5 c 128,-1,19
 678 -141 678 -141 655.5 -157.5 c 128,-1,20
 633 -174 633 -174 605 -187 c 0,21,22
 588 -194 588 -194 578.5 -200 c 128,-1,23
 569 -206 569 -206 562 -212.5 c 128,-1,24
 555 -219 555 -219 549.5 -227.5 c 128,-1,25
 544 -236 544 -236 538 -250 c 1,26,-1
 527 -250 l 1,27,-1
 559 -110 l 1,28,29
 566 -108 566 -108 572.5 -106 c 128,-1,30
 579 -104 579 -104 587 -102 c 128,-1,31
 595 -100 595 -100 603.5 -95 c 128,-1,32
 612 -90 612 -90 625 -83 c 0,33,34
 632 -79 632 -79 641.5 -72.5 c 128,-1,35
 651 -66 651 -66 659 -55 c 128,-1,36
 667 -44 667 -44 672.5 -28 c 128,-1,37
 678 -12 678 -12 678 11 c 2,38,-1
 678 214 l 2,39,40
 678 270 678 270 657.5 298.5 c 128,-1,41
 637 327 637 327 600 327 c 2,42,-1
 419 327 l 1,43,44
 418 312 418 312 415.5 286 c 128,-1,45
 413 260 413 260 409.5 231 c 128,-1,46
 406 202 406 202 402 176 c 128,-1,47
 398 150 398 150 394 135 c 1,48,-1
 372 127 l 1,49,50
 352 173 352 173 339.5 232 c 128,-1,51
 327 291 327 291 327 366 c 0,52,53
 327 439 327 439 324 463 c 128,-1,54
 321 487 321 487 314.5 505 c 128,-1,55
 308 523 308 523 297 538 c 128,-1,56
 286 553 286 553 270.5 562 c 128,-1,57
 255 571 255 571 235 571 c 0,58,59
 204 571 204 571 182 551.5 c 128,-1,60
 160 532 160 532 144.5 504 c 128,-1,61
 129 476 129 476 122.5 444 c 128,-1,62
 116 412 116 412 116 385 c 0,63,64
 116 335 116 335 138.5 282 c 128,-1,65
 161 229 161 229 207 177 c 1,66,-1
 178 78 l 1,67,-1
 167 78 l 1,68,69
 122 134 122 134 97.5 198 c 128,-1,70
 73 262 73 262 73 327 c 1,71,-1
 0 327 l 5,72,-1
 0 439 l 1,73,-1
 73 439 l 1,0,-1
EndSplineSet
Validated: 1
EndChar

StartChar: uniE040
Encoding: 57408 57408 64
Width: 504
Flags: W
LayerCount: 2
Fore
SplineSet
554 439 m 1,0,-1
 554 327 l 1,1,-1
 360 327 l 1,2,3
 373 278 373 278 396 234.5 c 128,-1,4
 419 191 419 191 452 154 c 1,5,-1
 434 52 l 1,6,-1
 418 52 l 1,7,8
 386 98 386 98 367 138 c 128,-1,9
 348 178 348 178 336 216.5 c 128,-1,10
 324 255 324 255 310 331 c 0,11,12
 295 407 295 407 288.5 447 c 128,-1,13
 282 487 282 487 272 520 c 128,-1,14
 262 553 262 553 246.5 575 c 128,-1,15
 231 597 231 597 205 597 c 0,16,17
 184 597 184 597 168 586 c 128,-1,18
 152 575 152 575 141 557.5 c 128,-1,19
 130 540 130 540 122.5 517.5 c 128,-1,20
 115 495 115 495 110.5 471.5 c 128,-1,21
 106 448 106 448 104.5 425 c 128,-1,22
 103 402 103 402 103 384 c 0,23,24
 103 350 103 350 108.5 322.5 c 128,-1,25
 114 295 114 295 125.5 271.5 c 128,-1,26
 137 248 137 248 154.5 225 c 128,-1,27
 172 202 172 202 195 176 c 1,28,-1
 166 76 l 1,29,-1
 155 76 l 1,30,31
 112 133 112 133 86 198.5 c 128,-1,32
 60 264 60 264 60 385 c 0,33,34
 60 471 60 471 73 527.5 c 128,-1,35
 86 584 86 584 104.5 619.5 c 128,-1,36
 123 655 123 655 148 676 c 128,-1,37
 173 697 173 697 207 697 c 0,38,39
 240 697 240 697 262.5 678 c 128,-1,40
 285 659 285 659 300 625 c 128,-1,41
 315 591 315 591 324 544 c 128,-1,42
 333 497 333 497 336 439 c 1,43,-1
 554 439 l 1,0,-1
EndSplineSet
Validated: 1
EndChar

StartChar: uniE041
Encoding: 57409 57409 65
Width: 507
Flags: W
LayerCount: 2
Fore
SplineSet
63 439 m 1,0,-1
 63 440 l 1,1,2
 67 491 67 491 78.5 537.5 c 128,-1,3
 90 584 90 584 108 619.5 c 128,-1,4
 126 655 126 655 151.5 676 c 128,-1,5
 177 697 177 697 210 697 c 128,-1,6
 243 697 243 697 265.5 678 c 128,-1,7
 288 659 288 659 303 625 c 128,-1,8
 318 591 318 591 327 544 c 128,-1,9
 336 497 336 497 340 439 c 1,10,-1
 557 439 l 1,11,-1
 557 327 l 1,12,-1
 363 327 l 1,13,14
 376 278 376 278 399 234.5 c 128,-1,15
 422 191 422 191 455 154 c 1,16,-1
 438 52 l 1,17,-1
 422 52 l 1,18,19
 390 98 390 98 370.5 138 c 128,-1,20
 351 178 351 178 339.5 216.5 c 128,-1,21
 328 255 328 255 320 293 c 0,22,23
 316 311 316 311 305 372 c 0,24,25
 294 432 294 432 292 447 c 0,26,27
 286 487 286 487 276 520 c 128,-1,28
 266 553 266 553 250 575 c 128,-1,29
 234 597 234 597 208 597 c 0,30,31
 187 597 187 597 171.5 586 c 128,-1,32
 156 575 156 575 144.5 557.5 c 128,-1,33
 133 540 133 540 126 517.5 c 128,-1,34
 119 495 119 495 114 471.5 c 128,-1,35
 109 448 109 448 107.5 425 c 128,-1,36
 106 402 106 402 106 384 c 0,37,38
 106 350 106 350 111.5 322.5 c 128,-1,39
 117 295 117 295 129 271.5 c 128,-1,40
 141 248 141 248 158 225 c 128,-1,41
 175 202 175 202 199 176 c 1,42,-1
 169 76 l 1,43,-1
 158 76 l 1,44,45
 115 133 115 133 89 198.5 c 128,-1,46
 63 264 63 264 63 327 c 2,47,-1
 63 327 l 1,48,-1
 0 327 l 1,49,-1
 0 439 l 1,50,-1
 63 439 l 1,0,-1
EndSplineSet
Validated: 5
EndChar

StartChar: uniE042
Encoding: 57410 57410 66
Width: 749
Flags: W
LayerCount: 2
Fore
SplineSet
63 439 m 1,0,-1
 63 440 l 1,1,2
 67 491 67 491 78.5 537.5 c 128,-1,3
 90 584 90 584 108 619.5 c 128,-1,4
 126 655 126 655 151.5 676 c 128,-1,5
 177 697 177 697 210 697 c 128,-1,7
 243 697 243 697 265.5 678 c 128,-1,8
 288 659 288 659 303 625 c 128,-1,9
 318 591 318 591 327 544 c 128,-1,10
 336 497 336 497 340 439 c 1,11,-1
 571 439 l 1,12,13
 616 436 616 436 642 401.5 c 128,-1,14
 668 367 668 367 668 309 c 2,15,-1
 668 250 l 2,16,17
 668 215 668 215 656 193.5 c 128,-1,18
 644 172 644 172 626 172 c 1,19,-1
 626 183 l 2,20,21
 626 249 626 249 601 287 c 128,-1,22
 576 325 576 325 528 327 c 1,23,-1
 363 327 l 1,24,25
 376 278 376 278 399 234.5 c 128,-1,26
 422 191 422 191 455 154 c 1,27,-1
 438 52 l 1,28,-1
 422 52 l 1,29,30
 390 98 390 98 370.5 138 c 128,-1,31
 351 178 351 178 339.5 216.5 c 128,-1,32
 328 255 328 255 320 293 c 0,33,34
 316 311 316 311 305 372 c 0,35,36
 294 432 294 432 292 447 c 0,37,38
 286 487 286 487 276 520 c 128,-1,39
 266 553 266 553 250 575 c 128,-1,40
 234 597 234 597 208 597 c 0,41,42
 187 597 187 597 171.5 586 c 128,-1,43
 156 575 156 575 144.5 557.5 c 128,-1,44
 133 540 133 540 126 517.5 c 128,-1,45
 119 495 119 495 114 471.5 c 128,-1,46
 109 448 109 448 107.5 425 c 128,-1,47
 106 402 106 402 106 384 c 0,48,49
 106 350 106 350 111.5 322.5 c 128,-1,50
 117 295 117 295 129 271.5 c 128,-1,51
 141 248 141 248 158 225 c 128,-1,52
 175 202 175 202 199 176 c 1,53,-1
 169 76 l 1,54,-1
 158 76 l 1,55,56
 115 133 115 133 89 198.5 c 128,-1,57
 63 264 63 264 63 327 c 2,58,-1
 63 327 l 1,59,-1
 0 327 l 1,60,-1
 0 439 l 1,61,-1
 63 439 l 1,0,-1
EndSplineSet
Validated: 5
EndChar

StartChar: uniE043
Encoding: 57411 57411 67
Width: 781
Flags: W
LayerCount: 2
Fore
SplineSet
544 327 m 1,0,-1
 544 243 l 2,1,2
 544 207 544 207 566.5 189.5 c 128,-1,3
 589 172 589 172 625 172 c 0,4,5
 660 172 660 172 680 189.5 c 128,-1,6
 700 207 700 207 700 243 c 2,7,-1
 700 327 l 1,8,-1
 544 327 l 1,0,-1
830 439 m 17,9,-1
 830 327 l 1,10,-1
 734 327 l 1,11,-1
 734 243 l 2,12,13
 734 168 734 168 707.5 126 c 128,-1,14
 681 84 681 84 625 84 c 0,15,16
 569 84 569 84 540.5 126 c 128,-1,17
 512 168 512 168 512 243 c 2,18,-1
 512 327 l 1,19,-1
 409 327 l 1,20,21
 408 312 408 312 405 286 c 128,-1,22
 402 260 402 260 399 231 c 128,-1,23
 396 202 396 202 392 176 c 128,-1,24
 388 150 388 150 383 135 c 1,25,-1
 361 127 l 1,26,27
 341 173 341 173 329 233 c 128,-1,28
 317 293 317 293 317 391 c 256,29,30
 317 489 317 489 294.5 529.5 c 128,-1,31
 272 570 272 570 243 570 c 0,32,33
 222 570 222 570 205.5 556 c 128,-1,34
 189 542 189 542 178 518.5 c 128,-1,35
 167 495 167 495 160 463 c 128,-1,36
 153 431 153 431 153 393 c 0,37,38
 153 352 153 352 163.5 324 c 128,-1,39
 174 296 174 296 187.5 273 c 128,-1,40
 201 250 201 250 211 229.5 c 128,-1,41
 221 209 221 209 221 184 c 0,42,43
 221 130 221 130 151 129 c 0,44,45
 135 129 135 129 121.5 131.5 c 128,-1,46
 108 134 108 134 98 138.5 c 128,-1,47
 88 143 88 143 83 147 c 0,48,49
 78 151 78 151 78 155 c 2,50,-1
 78 156 l 2,51,52
 79 170 79 170 90.5 177 c 128,-1,53
 102 184 102 184 114 192 c 128,-1,54
 126 200 126 200 136 215 c 128,-1,55
 146 230 146 230 146 261 c 0,56,57
 146 274 146 274 142.5 288 c 128,-1,58
 139 302 139 302 131 314 c 128,-1,59
 123 326 123 326 111.5 333.5 c 128,-1,60
 100 341 100 341 85 341 c 0,61,62
 78 341 78 341 72 339 c 128,-1,63
 66 337 66 337 59 334 c 128,-1,64
 52 331 52 331 46 329 c 128,-1,65
 40 327 40 327 36 327 c 1,66,67
 26 338 26 338 23.5 352.5 c 128,-1,68
 21 367 21 367 21 386 c 0,69,70
 21 404 21 404 26.5 415.5 c 128,-1,71
 32 427 32 427 40 433 c 128,-1,72
 48 439 48 439 59 443.5 c 128,-1,73
 70 448 70 448 79.5 453 c 128,-1,74
 89 458 89 458 98 465 c 128,-1,75
 107 472 107 472 111 485 c 0,76,77
 142 575 142 575 178.5 622 c 128,-1,78
 215 669 215 669 257 669 c 0,79,80
 279 669 279 669 298.5 658 c 128,-1,81
 318 647 318 647 334 624 c 128,-1,82
 350 601 350 601 358.5 565.5 c 128,-1,83
 367 530 367 530 367 480 c 2,84,-1
 367 439 l 9,85,-1
 830 439 l 17,9,-1
EndSplineSet
Validated: 1
EndChar

StartChar: uniE044
Encoding: 57412 57412 68
Width: 698
Flags: W
LayerCount: 2
Fore
SplineSet
466 327 m 1,0,-1
 466 243 l 2,1,2
 466 207 466 207 488.5 189.5 c 128,-1,3
 511 172 511 172 547 172 c 0,4,5
 582 172 582 172 602 189.5 c 128,-1,6
 622 207 622 207 622 243 c 2,7,-1
 622 327 l 1,8,-1
 466 327 l 1,0,-1
751 439 m 17,9,-1
 751 327 l 1,10,-1
 656 327 l 1,11,-1
 656 243 l 2,12,13
 656 168 656 168 629.5 126 c 128,-1,14
 603 84 603 84 546 84 c 0,15,16
 490 84 490 84 462 126 c 128,-1,17
 434 168 434 168 434 243 c 2,18,-1
 434 327 l 1,19,-1
 331 327 l 1,20,21
 330 312 330 312 327 286 c 128,-1,22
 324 260 324 260 321 231 c 128,-1,23
 318 202 318 202 314 176 c 128,-1,24
 310 150 310 150 305 135 c 1,25,26
 283 127 l 1,27,28
 263 173 263 173 252.5 224 c 128,-1,29
 242 275 242 275 237 327 c 1,30,-1
 135 327 l 1,31,32
 134 312 134 312 131 286 c 128,-1,33
 128 260 128 260 125.5 231 c 128,-1,34
 123 202 123 202 119 176 c 128,-1,35
 115 150 115 150 110 135 c 1,36,-1
 88 127 l 1,37,38
 68 173 68 173 57 224 c 128,-1,39
 46 275 46 275 42 327 c 1,40,-1
 -0 327 l 1,41,-1
 -0 439 l 9,42,-1
 751 439 l 17,9,-1
EndSplineSet
Validated: 1
EndChar

StartChar: uniE045
Encoding: 57413 57413 69
Width: 817
Flags: W
LayerCount: 2
Fore
SplineSet
484 327 m 5,0,1
 645 327 l 5,2,3
 645 294 645 294 643.5 265.5 c 132,-1,4
 642 237 642 237 634.5 216.5 c 132,-1,5
 627 196 627 196 610 184.5 c 128,-1,6
 593 173 593 173 563 173 c 260,7,8
 533 173 533 173 517 185.5 c 128,-1,9
 501 198 501 198 493.5 218.5 c 132,-1,10
 486 239 486 239 485 266.5 c 132,-1,11
 484 294 484 294 484 327 c 5,0,1
444 327 m 17,12,13
 444 306 444 306 445.5 280 c 128,-1,14
 447 254 447 254 452 227 c 128,-1,15
 457 200 457 200 465 175 c 128,-1,16
 473 150 473 150 486.5 130 c 128,-1,17
 500 110 500 110 518.5 98.5 c 128,-1,18
 537 87 537 87 563 87 c 0,19,20
 598 87 598 87 621.5 102.5 c 128,-1,21
 645 118 645 118 659 144.5 c 128,-1,22
 673 171 673 171 678 204 c 128,-1,23
 683 237 683 237 683 271 c 2,24,-1
 683 386 l 2,25,26
 683 439 683 439 631 439 c 2,27,-1
 486 439 l 1,28,29
 512 594 512 594 614 595 c 0,30,31
 635 595 635 595 654.5 584.5 c 128,-1,32
 674 574 674 574 689.5 553 c 128,-1,33
 705 532 705 532 717.5 500 c 128,-1,34
 730 468 730 468 736 424 c 1,35,36
 742 397 742 397 746 386.5 c 128,-1,37
 750 376 750 376 758 376 c 0,38,39
 761 376 761 376 766.5 388 c 128,-1,40
 772 400 772 400 772 423 c 0,41,42
 772 482 772 482 761.5 531.5 c 128,-1,43
 751 581 751 581 730.5 616.5 c 128,-1,44
 710 652 710 652 681 672 c 128,-1,45
 652 692 652 692 614 692 c 0,46,47
 537 692 537 692 496 628 c 0,48,49
 454 563 454 563 444 439 c 1,50,-1
 0 439 l 1,51,-1
 0 327 l 1,52,-1
 52 327 l 1,53,54
 56 275 56 275 67.5 224 c 128,-1,55
 79 173 79 173 98 127 c 1,56,-1
 120 135 l 1,57,58
 125 150 125 150 129 176 c 128,-1,59
 133 202 133 202 136 231 c 128,-1,60
 139 260 139 260 142 286 c 128,-1,61
 145 312 145 312 146 327 c 1,62,-1
 248 327 l 1,63,64
 252 275 252 275 263 224 c 128,-1,65
 274 173 274 173 293 127 c 1,66,-1
 315 135 l 1,67,68
 320 150 320 150 324 176 c 128,-1,69
 328 202 328 202 331 231 c 128,-1,70
 334 260 334 260 337 286 c 128,-1,71
 340 312 340 312 341 327 c 9,72,-1
 444 327 l 17,12,13
EndSplineSet
Validated: 9
EndChar

StartChar: uniE046
Encoding: 57414 57414 70
Width: 744
Flags: W
LayerCount: 2
Fore
SplineSet
422 327 m 1,0,-1
 323 327 l 1,1,-1
 323 278 l 2,2,3
 323 254 323 254 325.5 238.5 c 128,-1,4
 328 223 328 223 334 213.5 c 128,-1,5
 340 204 340 204 348.5 201 c 128,-1,6
 357 198 357 198 373 198 c 256,7,8
 388 198 388 198 398 201 c 128,-1,9
 408 204 408 204 413.5 214 c 128,-1,10
 419 224 419 224 420.5 239.5 c 128,-1,11
 422 255 422 255 422 278 c 2,12,-1
 422 327 l 1,0,-1
793 439 m 1,13,-1
 793 327 l 1,14,-1
 562 327 l 1,15,-1
 689 146 l 1,16,-1
 689 130 l 1,17,-1
 663 2 l 1,18,-1
 648 2 l 1,19,-1
 520 327 l 1,20,-1
 462 327 l 1,21,-1
 462 246 l 2,22,23
 462 214 462 214 459 188.5 c 128,-1,24
 456 163 456 163 446 145.5 c 128,-1,25
 436 128 436 128 418.5 119 c 128,-1,26
 401 110 401 110 373 110 c 0,27,28
 327 110 327 110 305.5 143 c 128,-1,29
 284 176 284 176 284 246 c 2,30,-1
 284 398 l 2,31,32
 284 406 284 406 285.5 413.5 c 128,-1,33
 287 421 287 421 291 427.5 c 128,-1,34
 295 434 295 434 303 436.5 c 128,-1,35
 311 439 311 439 323 439 c 2,36,-1
 422 439 l 1,37,38
 422 509 422 509 386.5 552 c 128,-1,39
 351 595 351 595 276 595 c 0,40,41
 229 595 229 595 198 577.5 c 128,-1,42
 167 560 167 560 148.5 532.5 c 128,-1,43
 130 505 130 505 122 470.5 c 128,-1,44
 114 436 114 436 114 401 c 0,45,46
 114 359 114 359 120.5 326.5 c 128,-1,47
 127 294 127 294 138 266.5 c 128,-1,48
 149 239 149 239 164 213 c 128,-1,49
 179 187 179 187 199 155 c 1,50,-1
 157 67 l 1,51,52
 134 99 134 99 118 139 c 128,-1,53
 102 179 102 179 91.5 224 c 128,-1,54
 81 269 81 269 75 314 c 0,55,56
 72 356 72 356 72 390 c 0,57,58
 72 429 72 429 75 470 c 1,59,60
 80 505 80 505 90.5 537 c 128,-1,61
 101 569 101 569 116.5 597.5 c 128,-1,62
 132 626 132 626 155.5 647.5 c 128,-1,63
 179 669 179 669 208.5 681 c 128,-1,64
 238 693 238 693 276 693 c 0,65,66
 325 693 325 693 359.5 676.5 c 128,-1,67
 394 660 394 660 415 628.5 c 128,-1,68
 436 597 436 597 449 546.5 c 128,-1,69
 462 496 462 496 462 439 c 1,70,-1
 793 439 l 1,13,-1
EndSplineSet
Validated: 1
EndChar

StartChar: uniE047
Encoding: 57415 57415 71
Width: 490
Flags: W
LayerCount: 2
Fore
SplineSet
405 327 m 5,0,-1
 306 327 l 5,1,-1
 306 278 l 6,2,3
 306 254 306 254 308 238.5 c 132,-1,4
 310 223 310 223 316 213.5 c 132,-1,5
 322 204 322 204 331 201 c 132,-1,6
 340 198 340 198 355 198 c 260,7,8
 370 198 370 198 380 201 c 132,-1,9
 390 204 390 204 395.5 214 c 132,-1,10
 401 224 401 224 403 239.5 c 132,-1,11
 405 255 405 255 405 278 c 6,12,-1
 405 327 l 5,0,-1
57 327 m 5,13,-1
 -1 327 l 5,14,-1
 -1 439 l 5,15,-1
 56 439 l 5,16,17
 56 460 56 460 58 470 c 4,18,19
 62 502 62 502 73 537 c 4,20,21
 83 569 83 569 99 597.5 c 132,-1,22
 115 626 115 626 138 647.5 c 132,-1,23
 161 669 161 669 190.5 681 c 132,-1,24
 220 693 220 693 259 693 c 4,25,26
 308 693 308 693 342 676.5 c 132,-1,27
 376 660 376 660 397 628.5 c 132,-1,28
 418 597 418 597 431.5 546.5 c 132,-1,29
 445 496 445 496 445 439 c 5,30,-1
 531 439 l 5,31,-1
 531 327 l 5,32,-1
 445 327 l 5,33,-1
 445 246 l 6,34,35
 445 214 445 214 441.5 188.5 c 132,-1,36
 438 163 438 163 428 145.5 c 132,-1,37
 418 128 418 128 401 119 c 132,-1,38
 384 110 384 110 355 110 c 4,39,40
 309 110 309 110 288 143 c 132,-1,41
 267 176 267 176 267 246 c 6,42,-1
 267 398 l 6,43,44
 267 406 267 406 268 413.5 c 132,-1,45
 269 421 269 421 273 427.5 c 132,-1,46
 277 434 277 434 285 436.5 c 132,-1,47
 293 439 293 439 306 439 c 6,48,-1
 405 439 l 5,49,50
 405 509 405 509 369 552 c 132,-1,51
 333 595 333 595 259 595 c 4,52,53
 212 595 212 595 181 577.5 c 132,-1,54
 150 560 150 560 131.5 532.5 c 132,-1,55
 113 505 113 505 104.5 470.5 c 132,-1,56
 96 436 96 436 96 401 c 4,57,58
 96 359 96 359 102.5 326.5 c 132,-1,59
 109 294 109 294 120 266.5 c 132,-1,60
 131 239 131 239 146 213 c 132,-1,61
 161 187 161 187 182 155 c 5,62,-1
 139 67 l 5,63,64
 116 99 116 99 100 139 c 132,-1,65
 84 179 84 179 73 224 c 4,66,67
 60 282 60 282 58 314 c 4,68,69
 57 321 57 321 57 327 c 5,13,-1
EndSplineSet
Validated: 1
EndChar

StartChar: uniE048
Encoding: 57416 57416 72
Width: 502
Flags: W
LayerCount: 2
Fore
SplineSet
400 327 m 1,0,-1
 301 327 l 1,1,-1
 301 278 l 2,2,3
 301 254 301 254 303.5 238.5 c 128,-1,4
 306 223 306 223 312 213.5 c 128,-1,5
 318 204 318 204 326.5 201 c 128,-1,6
 335 198 335 198 351 198 c 256,7,8
 366 198 366 198 376 201 c 128,-1,9
 386 204 386 204 391.5 214 c 128,-1,10
 397 224 397 224 398.5 239.5 c 128,-1,11
 400 255 400 255 400 278 c 2,12,-1
 400 327 l 1,0,-1
51 439 m 1,13,14
 51 460 51 460 53 470 c 0,15,16
 57 502 57 502 69 537 c 0,17,18
 79 569 79 569 94.5 597.5 c 128,-1,19
 110 626 110 626 133.5 647.5 c 128,-1,20
 157 669 157 669 186.5 681 c 128,-1,21
 216 693 216 693 254 693 c 0,22,23
 303 693 303 693 337.5 676.5 c 128,-1,24
 372 660 372 660 393 628.5 c 128,-1,25
 414 597 414 597 427 546.5 c 128,-1,26
 440 496 440 496 440 439 c 2,27,-1
 440 246 l 2,28,29
 440 214 440 214 437 188.5 c 128,-1,30
 434 163 434 163 424 145.5 c 128,-1,31
 414 128 414 128 396.5 119 c 128,-1,32
 379 110 379 110 351 110 c 0,33,34
 305 110 305 110 283.5 143 c 128,-1,35
 262 176 262 176 262 246 c 2,36,-1
 262 398 l 2,37,38
 262 406 262 406 263.5 413.5 c 128,-1,39
 265 421 265 421 269 427.5 c 128,-1,40
 273 434 273 434 281 436.5 c 128,-1,41
 289 439 289 439 301 439 c 2,42,-1
 400 439 l 1,43,44
 400 509 400 509 364.5 552 c 128,-1,45
 329 595 329 595 254 595 c 0,46,47
 207 595 207 595 176.5 577.5 c 128,-1,48
 146 560 146 560 127 532.5 c 128,-1,49
 108 505 108 505 100 470.5 c 128,-1,50
 92 436 92 436 92 401 c 0,51,52
 92 359 92 359 98.5 326.5 c 128,-1,53
 105 294 105 294 116 266.5 c 128,-1,54
 127 239 127 239 142 213 c 128,-1,55
 157 187 157 187 177 155 c 1,56,-1
 135 67 l 1,57,58
 112 99 112 99 96 139 c 128,-1,59
 80 179 80 179 69 224 c 0,60,61
 56 282 56 282 53 314 c 0,62,63
 53 321 53 321 52 327 c 1,64,-1
 -0 327 l 1,65,-1
 -0 439 l 1,66,-1
 51 439 l 1,13,14
EndSplineSet
Validated: 1
EndChar

StartChar: uniE049
Encoding: 57417 57417 73
Width: 1056
Flags: W
LayerCount: 2
Fore
SplineSet
354 -105 m 0,0,1
 354 -110 354 -110 350.5 -115 c 128,-1,2
 347 -120 347 -120 341.5 -124.5 c 128,-1,3
 336 -129 336 -129 329.5 -134.5 c 128,-1,4
 323 -140 323 -140 316 -147 c 0,5,6
 310 -154 310 -154 305.5 -160.5 c 128,-1,7
 301 -167 301 -167 297 -171.5 c 128,-1,8
 293 -176 293 -176 290 -179 c 128,-1,9
 287 -182 287 -182 283 -182 c 0,10,11
 274 -182 274 -182 267 -177 c 128,-1,12
 260 -172 260 -172 260 -162 c 0,13,14
 260 -149 260 -149 262 -138.5 c 128,-1,15
 264 -128 264 -128 269 -115 c 0,16,17
 271 -107 271 -107 276 -98 c 128,-1,18
 281 -89 281 -89 286.5 -81.5 c 128,-1,19
 292 -74 292 -74 299.5 -69.5 c 128,-1,20
 307 -65 307 -65 315 -65 c 0,21,22
 324 -65 324 -65 335 -75 c 0,23,24
 354 -91 354 -91 354 -105 c 0,0,1
303 29 m 0,25,26
 303 24 303 24 299.5 19.5 c 128,-1,27
 296 15 296 15 291 10 c 128,-1,28
 286 5 286 5 279 0 c 128,-1,29
 272 -5 272 -5 266 -13 c 0,30,31
 260 -20 260 -20 255 -26 c 128,-1,32
 250 -32 250 -32 246.5 -37 c 128,-1,33
 243 -42 243 -42 239.5 -44.5 c 128,-1,34
 236 -47 236 -47 232 -47 c 0,35,36
 222 -47 222 -47 216 -42 c 128,-1,37
 210 -37 210 -37 210 -27 c 0,38,39
 210 -14 210 -14 212 -4 c 128,-1,40
 214 6 214 6 218 20 c 0,41,42
 221 28 221 28 225.5 36.5 c 128,-1,43
 230 45 230 45 236 53 c 128,-1,44
 242 61 242 61 249 65.5 c 128,-1,45
 256 70 256 70 264 70 c 0,46,47
 273 70 273 70 285 60 c 0,48,49
 303 43 303 43 303 29 c 0,25,26
607 439 m 17,50,-1
 607 372 l 2,51,52
 607 349 607 349 616 319.5 c 128,-1,53
 625 290 625 290 637.5 261.5 c 128,-1,54
 650 233 650 233 663 210.5 c 128,-1,55
 676 188 676 188 688 178 c 1,56,57
 685 187 685 187 685 203 c 0,58,59
 685 213 685 213 687 226 c 0,60,61
 690 257 690 257 703.5 320 c 128,-1,62
 717 383 717 383 759.5 489.5 c 128,-1,63
 802 596 802 596 821.5 669 c 128,-1,64
 841 742 841 742 841 762 c 0,65,66
 841 775 841 775 838 791 c 128,-1,67
 835 807 835 807 832.5 824 c 128,-1,68
 830 841 830 841 826.5 855.5 c 128,-1,69
 823 870 823 870 823 874 c 0,70,71
 823 891 823 891 827.5 898.5 c 128,-1,72
 832 906 832 906 844 906 c 0,73,74
 847 906 847 906 853.5 897.5 c 128,-1,75
 860 889 860 889 867 877 c 0,76,77
 882 849 882 849 893.5 826 c 128,-1,78
 905 803 905 803 916 780 c 128,-1,79
 927 757 927 757 939.5 733 c 128,-1,80
 952 709 952 709 966 681 c 1,81,82
 921 623 921 623 889.5 577.5 c 128,-1,83
 858 532 858 532 825 448.5 c 128,-1,84
 792 365 792 365 764 266 c 128,-1,85
 736 167 736 167 736 71 c 1,86,87
 701 89 701 89 671.5 120 c 128,-1,88
 642 151 642 151 619.5 187 c 128,-1,89
 597 223 597 223 582.5 260 c 128,-1,90
 568 297 568 297 566 327 c 1,91,-1
 469 327 l 1,92,93
 468 312 468 312 465 286 c 128,-1,94
 462 260 462 260 459 231 c 128,-1,95
 456 202 456 202 452 176 c 128,-1,96
 448 150 448 150 444 135 c 1,97,-1
 422 127 l 1,98,99
 402 173 402 173 390 233 c 128,-1,100
 378 293 378 293 378 391 c 256,101,102
 378 489 378 489 355.5 529.5 c 128,-1,103
 333 570 333 570 304 570 c 0,104,105
 283 570 283 570 266.5 556 c 128,-1,106
 250 542 250 542 238.5 518.5 c 128,-1,107
 227 495 227 495 220.5 463 c 128,-1,108
 214 431 214 431 214 393 c 0,109,110
 214 352 214 352 224.5 324 c 128,-1,111
 235 296 235 296 248 273 c 128,-1,112
 261 250 261 250 271.5 229.5 c 128,-1,113
 282 209 282 209 282 184 c 0,114,115
 282 130 282 130 212 129 c 0,116,117
 196 129 196 129 182 131.5 c 128,-1,118
 168 134 168 134 158.5 138.5 c 128,-1,119
 149 143 149 143 143 147 c 0,120,121
 138 151 138 151 138 155 c 2,122,-1
 138 156 l 2,123,124
 139 170 139 170 150.5 177 c 128,-1,125
 162 184 162 184 174.5 192 c 128,-1,126
 187 200 187 200 197 215 c 128,-1,127
 207 230 207 230 207 261 c 0,128,129
 207 274 207 274 203 288 c 128,-1,130
 199 302 199 302 191 314 c 128,-1,131
 183 326 183 326 171.5 333.5 c 128,-1,132
 160 341 160 341 146 341 c 0,133,134
 139 341 139 341 133 339 c 128,-1,135
 127 337 127 337 120 334 c 128,-1,136
 113 331 113 331 107 329 c 128,-1,137
 101 327 101 327 96 327 c 1,138,139
 86 338 86 338 84 352.5 c 128,-1,140
 82 367 82 367 82 386 c 0,141,142
 82 404 82 404 87 415.5 c 128,-1,143
 92 427 92 427 100 433 c 128,-1,144
 108 439 108 439 119 443.5 c 128,-1,145
 130 448 130 448 140 453 c 128,-1,146
 150 458 150 458 158.5 465 c 128,-1,147
 167 472 167 472 172 485 c 0,148,149
 203 575 203 575 239 622 c 128,-1,150
 275 669 275 669 318 669 c 0,151,152
 340 669 340 669 359 658 c 128,-1,153
 378 647 378 647 394 624 c 128,-1,154
 410 601 410 601 419 565.5 c 128,-1,155
 428 530 428 530 428 480 c 2,156,-1
 427 439 l 9,157,-1
 607 439 l 17,50,-1
EndSplineSet
Validated: 1
EndChar

StartChar: uniE04A
Encoding: 57418 57418 74
Width: 863
Flags: W
LayerCount: 2
Fore
SplineSet
344 -105 m 4,0,1
 344 -110 344 -110 340.5 -115 c 132,-1,2
 337 -120 337 -120 332 -124.5 c 132,-1,3
 327 -129 327 -129 320 -134.5 c 132,-1,4
 313 -140 313 -140 306 -147 c 4,5,6
 300 -154 300 -154 295.5 -160.5 c 132,-1,7
 291 -167 291 -167 287.5 -171.5 c 132,-1,8
 284 -176 284 -176 280.5 -179 c 132,-1,9
 277 -182 277 -182 273 -182 c 4,10,11
 264 -182 264 -182 257 -177 c 132,-1,12
 250 -172 250 -172 250 -162 c 4,13,14
 250 -149 250 -149 252 -138.5 c 132,-1,15
 254 -128 254 -128 259 -115 c 4,16,17
 261 -107 261 -107 266 -98 c 132,-1,18
 271 -89 271 -89 277 -81.5 c 132,-1,19
 283 -74 283 -74 290 -69.5 c 132,-1,20
 297 -65 297 -65 305 -65 c 4,21,22
 314 -65 314 -65 325 -75 c 4,23,24
 344 -91 344 -91 344 -105 c 4,0,1
293 29 m 4,25,26
 293 24 293 24 290 19.5 c 132,-1,27
 287 15 287 15 281.5 10 c 132,-1,28
 276 5 276 5 269 0 c 132,-1,29
 262 -5 262 -5 256 -13 c 4,30,31
 250 -20 250 -20 245.5 -26 c 132,-1,32
 241 -32 241 -32 237 -37 c 132,-1,33
 233 -42 233 -42 230 -44.5 c 132,-1,34
 227 -47 227 -47 223 -47 c 4,35,36
 213 -47 213 -47 206.5 -42 c 132,-1,37
 200 -37 200 -37 200 -27 c 4,38,39
 200 -14 200 -14 202 -4 c 132,-1,40
 204 6 204 6 208 20 c 4,41,42
 211 28 211 28 215.5 36.5 c 132,-1,43
 220 45 220 45 226 53 c 132,-1,44
 232 61 232 61 239 65.5 c 132,-1,45
 246 70 246 70 254 70 c 4,46,47
 263 70 263 70 275 60 c 4,48,49
 293 43 293 43 293 29 c 4,25,26
593 327 m 1,50,-1
 593 243 l 2,51,52
 593 207 593 207 615.5 189.5 c 128,-1,53
 638 172 638 172 674 172 c 0,54,55
 709 172 709 172 728.5 189.5 c 128,-1,56
 748 207 748 207 748 243 c 2,57,-1
 748 327 l 1,58,-1
 593 327 l 1,50,-1
782 439 m 17,59,-1
 782 243 l 2,60,61
 782 168 782 168 755.5 126 c 128,-1,62
 729 84 729 84 673 84 c 0,63,64
 617 84 617 84 589 126 c 128,-1,65
 561 168 561 168 561 243 c 2,66,-1
 561 327 l 1,67,-1
 458 327 l 1,68,69
 457 312 457 312 454 286 c 128,-1,70
 451 260 451 260 447.5 231 c 128,-1,71
 444 202 444 202 440.5 176 c 128,-1,72
 437 150 437 150 432 135 c 1,73,-1
 410 127 l 1,74,75
 390 173 390 173 378 233 c 128,-1,76
 366 293 366 293 366 391 c 256,77,78
 366 489 366 489 343.5 529.5 c 128,-1,79
 321 570 321 570 292 570 c 0,80,81
 271 570 271 570 254.5 556 c 128,-1,82
 238 542 238 542 226.5 518.5 c 128,-1,83
 215 495 215 495 208.5 463 c 128,-1,84
 202 431 202 431 202 393 c 0,85,86
 202 352 202 352 212.5 324 c 128,-1,87
 223 296 223 296 236.5 273 c 128,-1,88
 250 250 250 250 260 229.5 c 128,-1,89
 270 209 270 209 270 184 c 0,90,91
 270 130 270 130 200 129 c 0,92,93
 184 129 184 129 170.5 131.5 c 128,-1,94
 157 134 157 134 147 138.5 c 128,-1,95
 137 143 137 143 131 147 c 0,96,97
 126 151 126 151 126 155 c 2,98,-1
 126 156 l 2,99,100
 127 170 127 170 138.5 177 c 128,-1,101
 150 184 150 184 162.5 192 c 128,-1,102
 175 200 175 200 185 215 c 128,-1,103
 195 230 195 230 195 261 c 0,104,105
 195 274 195 274 191.5 288 c 128,-1,106
 188 302 188 302 179.5 314 c 128,-1,107
 171 326 171 326 159.5 333.5 c 128,-1,108
 148 341 148 341 134 341 c 0,109,110
 127 341 127 341 121 339 c 128,-1,111
 115 337 115 337 108 334 c 128,-1,112
 101 331 101 331 95 329 c 128,-1,113
 89 327 89 327 84 327 c 1,114,115
 74 338 74 338 72 352.5 c 128,-1,116
 70 367 70 367 70 386 c 0,117,118
 70 404 70 404 75.5 415.5 c 128,-1,119
 81 427 81 427 89 433 c 128,-1,120
 97 439 97 439 108 443.5 c 128,-1,121
 119 448 119 448 128.5 453 c 128,-1,122
 138 458 138 458 147 465 c 128,-1,123
 156 472 156 472 160 485 c 0,124,125
 191 575 191 575 227.5 622 c 128,-1,126
 264 669 264 669 306 669 c 0,127,128
 328 669 328 669 347.5 658 c 128,-1,129
 367 647 367 647 382.5 624 c 128,-1,130
 398 601 398 601 407 565.5 c 128,-1,131
 416 530 416 530 416 480 c 2,132,-1
 416 439 l 9,133,-1
 782 439 l 17,59,-1
EndSplineSet
Validated: 1
EndChar

StartChar: uniE04B
Encoding: 57419 57419 75
Width: 721
Flags: W
LayerCount: 2
Fore
SplineSet
329 -105 m 0,0,1
 329 -110 329 -110 325.5 -115 c 128,-1,2
 322 -120 322 -120 317 -124.5 c 128,-1,3
 312 -129 312 -129 305 -134.5 c 128,-1,4
 298 -140 298 -140 292 -147 c 128,-1,5
 286 -154 286 -154 281 -160.5 c 128,-1,6
 276 -167 276 -167 272.5 -171.5 c 128,-1,7
 269 -176 269 -176 265.5 -179 c 128,-1,8
 262 -182 262 -182 258 -182 c 0,9,10
 249 -182 249 -182 242.5 -177 c 128,-1,11
 236 -172 236 -172 236 -162 c 0,12,13
 236 -149 236 -149 238 -138.5 c 128,-1,14
 240 -128 240 -128 245 -115 c 0,15,16
 247 -107 247 -107 251.5 -98 c 128,-1,17
 256 -89 256 -89 262 -81.5 c 128,-1,18
 268 -74 268 -74 275 -69.5 c 128,-1,19
 282 -65 282 -65 291 -65 c 128,-1,20
 300 -65 300 -65 311 -75 c 0,21,22
 329 -91 329 -91 329 -105 c 0,0,1
279 29 m 0,23,24
 279 24 279 24 275.5 19.5 c 128,-1,25
 272 15 272 15 266.5 10 c 128,-1,26
 261 5 261 5 254.5 0 c 128,-1,27
 248 -5 248 -5 241 -13 c 0,28,29
 235 -20 235 -20 230.5 -26 c 128,-1,30
 226 -32 226 -32 222.5 -37 c 128,-1,31
 219 -42 219 -42 215.5 -44.5 c 128,-1,32
 212 -47 212 -47 208 -47 c 0,33,34
 198 -47 198 -47 192 -42 c 128,-1,35
 186 -37 186 -37 186 -27 c 0,36,37
 186 -14 186 -14 187.5 -4 c 128,-1,38
 189 6 189 6 194 20 c 0,39,40
 197 28 197 28 201.5 36.5 c 128,-1,41
 206 45 206 45 211.5 53 c 128,-1,42
 217 61 217 61 224 65.5 c 128,-1,43
 231 70 231 70 240 70 c 128,-1,44
 249 70 249 70 260 60 c 0,45,46
 279 43 279 43 279 29 c 0,23,24
549 327 m 9,47,-1
 448 327 l 17,48,49
 447 312 447 312 444 286 c 128,-1,50
 441 260 441 260 438 231 c 128,-1,51
 435 202 435 202 431 176 c 128,-1,52
 427 150 427 150 423 135 c 1,53,-1
 401 127 l 1,54,55
 381 173 381 173 369 233 c 128,-1,56
 357 293 357 293 357 391 c 256,57,58
 357 488 357 488 334.5 529 c 128,-1,59
 312 570 312 570 283 570 c 0,60,61
 262 570 262 570 245.5 556 c 128,-1,62
 229 542 229 542 217.5 518.5 c 128,-1,63
 206 495 206 495 199.5 463 c 128,-1,64
 193 431 193 431 193 393 c 0,65,66
 193 353 193 353 203.5 324.5 c 128,-1,67
 214 296 214 296 227 273 c 128,-1,68
 240 250 240 250 250.5 229.5 c 128,-1,69
 261 209 261 209 261 184 c 0,70,71
 261 129 261 129 191 129 c 0,72,73
 175 129 175 129 161 131.5 c 128,-1,74
 147 134 147 134 137.5 138.5 c 128,-1,75
 128 143 128 143 122 147 c 0,76,77
 117 151 117 151 117 155 c 2,78,-1
 117 156 l 2,79,80
 118 170 118 170 129.5 177 c 128,-1,81
 141 184 141 184 153.5 192 c 128,-1,82
 166 200 166 200 176 215.5 c 128,-1,83
 186 231 186 231 186 261 c 0,84,85
 186 273 186 273 182 287.5 c 128,-1,86
 178 302 178 302 170 314 c 128,-1,87
 162 326 162 326 151 333.5 c 128,-1,88
 140 341 140 341 125 341 c 0,89,90
 117 341 117 341 111.5 339 c 128,-1,91
 106 337 106 337 99 334 c 128,-1,92
 92 331 92 331 85.5 329 c 128,-1,93
 79 327 79 327 75 327 c 1,94,95
 65 338 65 338 63 352 c 128,-1,96
 61 366 61 366 61 386 c 0,97,98
 61 404 61 404 66 415.5 c 128,-1,99
 71 427 71 427 79 433 c 128,-1,100
 87 439 87 439 98 443.5 c 128,-1,101
 109 448 109 448 119 453 c 128,-1,102
 129 458 129 458 138 465 c 128,-1,103
 147 472 147 472 151 485 c 0,104,105
 182 575 182 575 218.5 622 c 128,-1,106
 255 669 255 669 297 669 c 0,107,108
 319 669 319 669 338 658 c 128,-1,109
 357 647 357 647 373 624 c 128,-1,110
 389 601 389 601 398 565 c 128,-1,111
 407 529 407 529 407 480 c 2,112,-1
 406 439 l 1,113,-1
 770 439 l 1,114,-1
 770 327 l 1,115,-1
 642 327 l 1,116,117
 641 312 641 312 638 286 c 128,-1,118
 635 260 635 260 632 231 c 128,-1,119
 629 202 629 202 625.5 176 c 128,-1,120
 622 150 622 150 617 135 c 1,121,-1
 595 127 l 1,122,123
 575 173 575 173 564 224 c 128,-1,124
 553 275 553 275 549 327 c 9,47,-1
EndSplineSet
Validated: 1
EndChar

StartChar: uniE04C
Encoding: 57420 57420 76
Width: 610
Flags: W
LayerCount: 2
Fore
SplineSet
378 -105 m 4,0,1
 378 -110 378 -110 374.5 -115 c 132,-1,2
 371 -120 371 -120 366 -124.5 c 132,-1,3
 361 -129 361 -129 354 -134.5 c 132,-1,4
 347 -140 347 -140 340 -147 c 4,5,6
 334 -154 334 -154 329.5 -160.5 c 132,-1,7
 325 -167 325 -167 321.5 -171.5 c 132,-1,8
 318 -176 318 -176 314.5 -179 c 132,-1,9
 311 -182 311 -182 307 -182 c 4,10,11
 298 -182 298 -182 291.5 -177 c 132,-1,12
 285 -172 285 -172 285 -162 c 4,13,14
 285 -149 285 -149 287 -138.5 c 132,-1,15
 289 -128 289 -128 293 -115 c 4,16,17
 295 -107 295 -107 300 -98 c 132,-1,18
 305 -89 305 -89 311 -81.5 c 132,-1,19
 317 -74 317 -74 324 -69.5 c 132,-1,20
 331 -65 331 -65 339 -65 c 4,21,22
 348 -65 348 -65 359 -75 c 4,23,24
 378 -91 378 -91 378 -105 c 4,0,1
328 29 m 4,25,26
 328 24 328 24 324.5 19.5 c 132,-1,27
 321 15 321 15 315.5 10 c 132,-1,28
 310 5 310 5 303 0 c 132,-1,29
 296 -5 296 -5 290 -13 c 4,30,31
 284 -20 284 -20 279.5 -26 c 132,-1,32
 275 -32 275 -32 271.5 -37 c 132,-1,33
 268 -42 268 -42 264.5 -44.5 c 132,-1,34
 261 -47 261 -47 257 -47 c 4,35,36
 247 -47 247 -47 240.5 -42 c 132,-1,37
 234 -37 234 -37 234 -27 c 4,38,39
 234 -14 234 -14 236 -4 c 132,-1,40
 238 6 238 6 243 20 c 4,41,42
 246 28 246 28 250 36.5 c 132,-1,43
 254 45 254 45 260 53 c 132,-1,44
 266 61 266 61 273 65.5 c 132,-1,45
 280 70 280 70 289 70 c 4,46,47
 298 70 298 70 309 60 c 4,48,49
 328 43 328 43 328 29 c 4,25,26
664 439 m 17,50,-1
 664 327 l 1,51,-1
 536 327 l 1,52,53
 535 312 535 312 532 286 c 128,-1,54
 529 260 529 260 526 231 c 128,-1,55
 523 202 523 202 519 176 c 128,-1,56
 515 150 515 150 510 135 c 1,57,-1
 488 127 l 1,58,59
 468 173 468 173 457.5 224 c 128,-1,60
 447 275 447 275 442 327 c 1,61,-1
 340 327 l 1,62,63
 339 312 339 312 336 286 c 128,-1,64
 333 260 333 260 330.5 231 c 128,-1,65
 328 202 328 202 324 176 c 128,-1,66
 320 150 320 150 315 135 c 1,67,-1
 293 127 l 1,68,69
 273 173 273 173 262 224 c 128,-1,70
 251 275 251 275 247 327 c 1,71,-1
 145 327 l 1,72,73
 144 312 144 312 141 286 c 128,-1,74
 138 260 138 260 135 231 c 128,-1,75
 132 202 132 202 128.5 176 c 128,-1,76
 125 150 125 150 120 135 c 1,77,-1
 98 127 l 1,78,79
 78 173 78 173 67 224 c 128,-1,80
 56 275 56 275 52 327 c 1,81,-1
 -0 327 l 1,82,-1
 -0 439 l 9,83,-1
 664 439 l 17,50,-1
EndSplineSet
Validated: 1
EndChar

StartChar: uniE04D
Encoding: 57421 57421 77
Width: 816
Flags: W
LayerCount: 2
Fore
SplineSet
677 177 m 4,0,1
 677 171 677 171 673 166 c 132,-1,2
 669 161 669 161 664 155.5 c 132,-1,3
 659 150 659 150 651 144.5 c 132,-1,4
 643 139 643 139 636 131 c 4,5,6
 629 123 629 123 623.5 116 c 132,-1,7
 618 109 618 109 614 104 c 132,-1,8
 610 99 610 99 607 96 c 132,-1,9
 604 93 604 93 599 93 c 4,10,11
 589 93 589 93 581 97.5 c 132,-1,12
 573 102 573 102 573 115 c 4,13,14
 573 129 573 129 576 140 c 132,-1,15
 579 151 579 151 583 167 c 4,16,17
 586 175 586 175 590.5 184.5 c 132,-1,18
 595 194 595 194 602 202.5 c 132,-1,19
 609 211 609 211 617 216.5 c 132,-1,20
 625 222 625 222 635 222 c 4,21,22
 644 222 644 222 656 210 c 4,23,24
 677 192 677 192 677 177 c 4,0,1
554 219 m 4,25,26
 554 213 554 213 550 208 c 132,-1,27
 546 203 546 203 541 198 c 132,-1,28
 536 193 536 193 528 186.5 c 132,-1,29
 520 180 520 180 513 173 c 4,30,31
 506 165 506 165 500.5 158 c 132,-1,32
 495 151 495 151 491 146.5 c 132,-1,33
 487 142 487 142 483.5 138 c 132,-1,34
 480 134 480 134 476 134 c 4,35,36
 466 134 466 134 458 139.5 c 132,-1,37
 450 145 450 145 450 156 c 4,38,39
 450 171 450 171 452.5 182.5 c 132,-1,40
 455 194 455 194 460 208 c 4,41,42
 463 218 463 218 467.5 227.5 c 132,-1,43
 472 237 472 237 479 244.5 c 132,-1,44
 486 252 486 252 494 258 c 132,-1,45
 502 264 502 264 512 264 c 4,46,47
 521 264 521 264 534 252 c 4,48,49
 554 234 554 234 554 219 c 4,25,26
756 214 m 2,50,-1
 756 11 l 2,51,52
 756 -31 756 -31 748 -62.5 c 128,-1,53
 740 -94 740 -94 725 -117.5 c 128,-1,54
 710 -141 710 -141 688 -157.5 c 128,-1,55
 666 -174 666 -174 637 -187 c 0,56,57
 620 -194 620 -194 610.5 -200 c 128,-1,58
 601 -206 601 -206 594 -212.5 c 128,-1,59
 587 -219 587 -219 582 -227.5 c 128,-1,60
 577 -236 577 -236 570 -250 c 1,61,-1
 559 -250 l 1,62,-1
 591 -110 l 1,63,64
 598 -108 598 -108 604.5 -106 c 128,-1,65
 611 -104 611 -104 619 -102 c 128,-1,66
 627 -100 627 -100 635.5 -95 c 128,-1,67
 644 -90 644 -90 657 -83 c 0,68,69
 664 -79 664 -79 673.5 -72.5 c 128,-1,70
 683 -66 683 -66 691 -55 c 128,-1,71
 699 -44 699 -44 704.5 -28 c 128,-1,72
 710 -12 710 -12 710 11 c 2,73,-1
 710 214 l 2,74,75
 710 270 710 270 689.5 298.5 c 128,-1,76
 669 327 669 327 632 327 c 2,77,-1
 530 327 l 1,78,-1
 530 439 l 1,79,-1
 632 439 l 2,80,81
 694 439 694 439 725 383.5 c 128,-1,82
 756 328 756 328 756 214 c 2,50,-1
265 439 m 1,83,84
 265 333 265 333 272.5 310 c 128,-1,85
 280 287 280 287 291.5 267.5 c 128,-1,86
 303 248 303 248 316 232.5 c 128,-1,87
 329 217 329 217 340 206 c 1,88,89
 340 227 340 227 340.5 251 c 128,-1,90
 341 275 341 275 344 304.5 c 128,-1,91
 347 334 347 334 353.5 365.5 c 128,-1,92
 360 397 360 397 372 433 c 1,93,94
 391 481 391 481 403.5 516.5 c 128,-1,95
 416 552 416 552 424 578.5 c 128,-1,96
 432 605 432 605 436 627.5 c 128,-1,97
 440 650 440 650 440 673 c 0,98,99
 440 682 440 682 437.5 695.5 c 128,-1,100
 435 709 435 709 432 722.5 c 128,-1,101
 429 736 429 736 425.5 747 c 128,-1,102
 422 758 422 758 422 763 c 0,103,104
 422 779 422 779 427 786.5 c 128,-1,105
 432 794 432 794 444 794 c 0,106,107
 455 794 455 794 467 770.5 c 128,-1,108
 479 747 479 747 498 708 c 0,109,110
 519 667 519 667 536 637 c 128,-1,111
 553 607 553 607 561 584 c 1,112,113
 546 568 546 568 528.5 545 c 128,-1,114
 511 522 511 522 494 495.5 c 128,-1,115
 477 469 477 469 462 442 c 0,116,117
 449 419 449 419 439 390 c 128,-1,118
 429 361 429 361 420 335 c 128,-1,119
 411 309 411 309 404.5 278 c 128,-1,120
 398 247 398 247 395 207 c 128,-1,121
 392 167 392 167 392 110 c 1,122,123
 358 128 358 128 327.5 153 c 128,-1,124
 297 178 297 178 275 207 c 0,125,126
 254 234 254 234 239 267 c 0,127,128
 225 297 225 297 223 327 c 1,129,-1
 149 327 l 1,130,131
 148 312 148 312 145.5 286 c 128,-1,132
 143 260 143 260 140 231 c 128,-1,133
 137 202 137 202 133 176 c 128,-1,134
 129 150 129 150 124 135 c 1,135,-1
 102 127 l 1,136,137
 82 173 82 173 71.5 224 c 128,-1,138
 61 275 61 275 56 327 c 1,139,-1
 -1 327 l 1,140,-1
 -1 439 l 1,141,-1
 265 439 l 1,83,84
EndSplineSet
Validated: 1
EndChar

StartChar: uniE04E
Encoding: 57422 57422 78
Width: 781
Flags: W
LayerCount: 2
Fore
SplineSet
295 -105 m 4,0,1
 295 -110 295 -110 291.5 -115 c 132,-1,2
 288 -120 288 -120 283 -124.5 c 132,-1,3
 278 -129 278 -129 271 -134.5 c 132,-1,4
 264 -140 264 -140 257 -147 c 4,5,6
 251 -154 251 -154 246.5 -160.5 c 132,-1,7
 242 -167 242 -167 238.5 -171.5 c 132,-1,8
 235 -176 235 -176 231.5 -179 c 132,-1,9
 228 -182 228 -182 224 -182 c 4,10,11
 215 -182 215 -182 208.5 -177 c 132,-1,12
 202 -172 202 -172 202 -162 c 4,13,14
 202 -149 202 -149 204 -138.5 c 132,-1,15
 206 -128 206 -128 210 -115 c 4,16,17
 212 -107 212 -107 217 -98 c 132,-1,18
 222 -89 222 -89 228 -81.5 c 132,-1,19
 234 -74 234 -74 241 -69.5 c 132,-1,20
 248 -65 248 -65 256 -65 c 4,21,22
 265 -65 265 -65 276 -75 c 4,23,24
 295 -91 295 -91 295 -105 c 4,0,1
245 29 m 4,25,26
 245 24 245 24 241.5 19.5 c 132,-1,27
 238 15 238 15 232.5 10 c 132,-1,28
 227 5 227 5 220 0 c 132,-1,29
 213 -5 213 -5 207 -13 c 4,30,31
 201 -20 201 -20 196.5 -26 c 132,-1,32
 192 -32 192 -32 188.5 -37 c 132,-1,33
 185 -42 185 -42 181.5 -44.5 c 132,-1,34
 178 -47 178 -47 174 -47 c 4,35,36
 164 -47 164 -47 157.5 -42 c 132,-1,37
 151 -37 151 -37 151 -27 c 4,38,39
 151 -14 151 -14 153 -4 c 132,-1,40
 155 6 155 6 160 20 c 4,41,42
 163 28 163 28 167 36.5 c 132,-1,43
 171 45 171 45 177 53 c 132,-1,44
 183 61 183 61 190 65.5 c 132,-1,45
 197 70 197 70 206 70 c 4,46,47
 215 70 215 70 226 60 c 4,48,49
 245 43 245 43 245 29 c 4,25,26
544 327 m 1,50,-1
 544 243 l 2,51,52
 544 207 544 207 566.5 189.5 c 128,-1,53
 589 172 589 172 625 172 c 0,54,55
 660 172 660 172 680 189.5 c 128,-1,56
 700 207 700 207 700 243 c 2,57,-1
 700 327 l 1,58,-1
 544 327 l 1,50,-1
830 439 m 17,59,-1
 830 327 l 1,60,-1
 734 327 l 1,61,-1
 734 243 l 2,62,63
 734 168 734 168 707.5 126 c 128,-1,64
 681 84 681 84 625 84 c 0,65,66
 569 84 569 84 540.5 126 c 128,-1,67
 512 168 512 168 512 243 c 2,68,-1
 512 327 l 1,69,-1
 409 327 l 1,70,71
 408 312 408 312 405 286 c 128,-1,72
 402 260 402 260 399 231 c 128,-1,73
 396 202 396 202 392 176 c 128,-1,74
 388 150 388 150 383 135 c 1,75,-1
 361 127 l 1,76,77
 341 173 341 173 329 233 c 128,-1,78
 317 293 317 293 317 391 c 256,79,80
 317 489 317 489 294.5 529.5 c 128,-1,81
 272 570 272 570 243 570 c 0,82,83
 222 570 222 570 205.5 556 c 128,-1,84
 189 542 189 542 178 518.5 c 128,-1,85
 167 495 167 495 160 463 c 128,-1,86
 153 431 153 431 153 393 c 0,87,88
 153 352 153 352 163.5 324 c 128,-1,89
 174 296 174 296 187.5 273 c 128,-1,90
 201 250 201 250 211 229.5 c 128,-1,91
 221 209 221 209 221 184 c 0,92,93
 221 130 221 130 151 129 c 0,94,95
 135 129 135 129 121.5 131.5 c 128,-1,96
 108 134 108 134 98 138.5 c 128,-1,97
 88 143 88 143 83 147 c 0,98,99
 78 151 78 151 78 155 c 2,100,-1
 78 156 l 2,101,102
 79 170 79 170 90.5 177 c 128,-1,103
 102 184 102 184 114 192 c 128,-1,104
 126 200 126 200 136 215 c 128,-1,105
 146 230 146 230 146 261 c 0,106,107
 146 274 146 274 142.5 288 c 128,-1,108
 139 302 139 302 131 314 c 128,-1,109
 123 326 123 326 111.5 333.5 c 128,-1,110
 100 341 100 341 85 341 c 0,111,112
 78 341 78 341 72 339 c 128,-1,113
 66 337 66 337 59 334 c 128,-1,114
 52 331 52 331 46 329 c 128,-1,115
 40 327 40 327 36 327 c 1,116,117
 26 338 26 338 23.5 352.5 c 128,-1,118
 21 367 21 367 21 386 c 0,119,120
 21 404 21 404 26.5 415.5 c 128,-1,121
 32 427 32 427 40 433 c 128,-1,122
 48 439 48 439 59 443.5 c 128,-1,123
 70 448 70 448 79.5 453 c 128,-1,124
 89 458 89 458 98 465 c 128,-1,125
 107 472 107 472 111 485 c 0,126,127
 142 575 142 575 178.5 622 c 128,-1,128
 215 669 215 669 257 669 c 0,129,130
 279 669 279 669 298.5 658 c 128,-1,131
 318 647 318 647 334 624 c 128,-1,132
 350 601 350 601 358.5 565.5 c 128,-1,133
 367 530 367 530 367 480 c 2,134,-1
 367 439 l 9,135,-1
 830 439 l 17,59,-1
EndSplineSet
Validated: 1
EndChar

StartChar: uniE04F
Encoding: 57423 57423 79
Width: 698
Flags: W
LayerCount: 2
Fore
SplineSet
231 -105 m 4,0,1
 231 -110 231 -110 228 -115 c 132,-1,2
 225 -120 225 -120 219.5 -124.5 c 132,-1,3
 214 -129 214 -129 207.5 -134.5 c 132,-1,4
 201 -140 201 -140 194 -147 c 4,5,6
 188 -154 188 -154 183.5 -160.5 c 132,-1,7
 179 -167 179 -167 175 -171.5 c 132,-1,8
 171 -176 171 -176 168 -179 c 132,-1,9
 165 -182 165 -182 161 -182 c 4,10,11
 152 -182 152 -182 145 -177 c 132,-1,12
 138 -172 138 -172 138 -162 c 4,13,14
 138 -149 138 -149 140 -138.5 c 132,-1,15
 142 -128 142 -128 147 -115 c 4,16,17
 149 -107 149 -107 154 -98 c 132,-1,18
 159 -89 159 -89 164.5 -81.5 c 132,-1,19
 170 -74 170 -74 177.5 -69.5 c 132,-1,20
 185 -65 185 -65 193 -65 c 4,21,22
 202 -65 202 -65 213 -75 c 4,23,24
 231 -91 231 -91 231 -105 c 4,0,1
181 29 m 4,25,26
 181 24 181 24 177.5 19.5 c 132,-1,27
 174 15 174 15 169 10 c 132,-1,28
 164 5 164 5 157 0 c 132,-1,29
 150 -5 150 -5 144 -13 c 4,30,31
 138 -20 138 -20 133 -26 c 132,-1,32
 128 -32 128 -32 124.5 -37 c 132,-1,33
 121 -42 121 -42 117.5 -44.5 c 132,-1,34
 114 -47 114 -47 110 -47 c 4,35,36
 100 -47 100 -47 94 -42 c 132,-1,37
 88 -37 88 -37 88 -27 c 4,38,39
 88 -14 88 -14 90 -4 c 132,-1,40
 92 6 92 6 96 20 c 4,41,42
 99 28 99 28 103.5 36.5 c 132,-1,43
 108 45 108 45 114 53 c 132,-1,44
 120 61 120 61 127 65.5 c 132,-1,45
 134 70 134 70 142 70 c 4,46,47
 151 70 151 70 163 60 c 4,48,49
 181 43 181 43 181 29 c 4,25,26
466 327 m 1,50,-1
 466 243 l 2,51,52
 466 207 466 207 488.5 189.5 c 128,-1,53
 511 172 511 172 547 172 c 0,54,55
 582 172 582 172 602 189.5 c 128,-1,56
 622 207 622 207 622 243 c 2,57,-1
 622 327 l 1,58,-1
 466 327 l 1,50,-1
751 439 m 17,59,-1
 751 327 l 1,60,-1
 656 327 l 1,61,-1
 656 243 l 2,62,63
 656 168 656 168 629.5 126 c 128,-1,64
 603 84 603 84 546 84 c 0,65,66
 490 84 490 84 462 126 c 128,-1,67
 434 168 434 168 434 243 c 2,68,-1
 434 327 l 1,69,-1
 331 327 l 1,70,71
 330 312 330 312 327 286 c 128,-1,72
 324 260 324 260 321 231 c 128,-1,73
 318 202 318 202 314 176 c 128,-1,74
 310 150 310 150 305 135 c 1,75,-1
 283 127 l 1,76,77
 263 173 263 173 252.5 224 c 128,-1,78
 242 275 242 275 237 327 c 1,79,-1
 135 327 l 1,80,81
 134 312 134 312 131 286 c 128,-1,82
 128 260 128 260 125.5 231 c 128,-1,83
 123 202 123 202 119 176 c 128,-1,84
 115 150 115 150 110 135 c 1,85,-1
 88 127 l 1,86,87
 68 173 68 173 57 224 c 128,-1,88
 46 275 46 275 42 327 c 1,89,-1
 -0 327 l 1,90,-1
 -0 439 l 9,91,-1
 751 439 l 17,59,-1
EndSplineSet
Validated: 1
EndChar

StartChar: uniE050
Encoding: 57424 57424 80
Width: 827
Flags: W
LayerCount: 2
Fore
SplineSet
256 -105 m 0,0,1
 256 -110 256 -110 252.5 -115 c 128,-1,2
 249 -120 249 -120 244 -124.5 c 128,-1,3
 239 -129 239 -129 232 -134.5 c 128,-1,4
 225 -140 225 -140 218 -147 c 0,5,6
 212 -154 212 -154 207.5 -160.5 c 128,-1,7
 203 -167 203 -167 199.5 -171.5 c 128,-1,8
 196 -176 196 -176 192.5 -179 c 128,-1,9
 189 -182 189 -182 185 -182 c 0,10,11
 176 -182 176 -182 169.5 -177 c 128,-1,12
 163 -172 163 -172 163 -162 c 0,13,14
 163 -149 163 -149 165 -138.5 c 128,-1,15
 167 -128 167 -128 171 -115 c 0,16,17
 173 -107 173 -107 178 -98 c 128,-1,18
 183 -89 183 -89 189 -81.5 c 128,-1,19
 195 -74 195 -74 202 -69.5 c 128,-1,20
 209 -65 209 -65 217 -65 c 0,21,22
 226 -65 226 -65 237 -75 c 0,23,24
 256 -91 256 -91 256 -105 c 0,0,1
206 29 m 0,25,26
 206 24 206 24 202.5 19.5 c 128,-1,27
 199 15 199 15 193.5 10 c 128,-1,28
 188 5 188 5 181 0 c 128,-1,29
 174 -5 174 -5 168 -13 c 0,30,31
 162 -20 162 -20 157.5 -26 c 128,-1,32
 153 -32 153 -32 149.5 -37 c 128,-1,33
 146 -42 146 -42 142.5 -44.5 c 128,-1,34
 139 -47 139 -47 135 -47 c 0,35,36
 125 -47 125 -47 118.5 -42 c 128,-1,37
 112 -37 112 -37 112 -27 c 0,38,39
 112 -14 112 -14 114 -4 c 128,-1,40
 116 6 116 6 121 20 c 0,41,42
 124 28 124 28 128 36.5 c 128,-1,43
 132 45 132 45 138 53 c 128,-1,44
 144 61 144 61 151 65.5 c 128,-1,45
 158 70 158 70 167 70 c 0,46,47
 176 70 176 70 187 60 c 0,48,49
 206 43 206 43 206 29 c 0,25,26
484 327 m 1,50,-1
 645 327 l 1,51,52
 645 294 645 294 643.5 265.5 c 128,-1,53
 642 237 642 237 634.5 216.5 c 128,-1,54
 627 196 627 196 610 184.5 c 128,-1,55
 593 173 593 173 563 173 c 256,56,57
 533 173 533 173 517 185.5 c 128,-1,58
 501 198 501 198 493.5 218.5 c 128,-1,59
 486 239 486 239 485 266.5 c 128,-1,60
 484 294 484 294 484 327 c 1,50,-1
444 327 m 17,61,62
 444 306 444 306 445.5 280 c 128,-1,63
 447 254 447 254 452 227 c 128,-1,64
 457 200 457 200 465 175 c 128,-1,65
 473 150 473 150 486.5 130 c 128,-1,66
 500 110 500 110 518.5 98.5 c 128,-1,67
 537 87 537 87 563 87 c 0,68,69
 598 87 598 87 621.5 102.5 c 128,-1,70
 645 118 645 118 659 144.5 c 128,-1,71
 673 171 673 171 678 204 c 128,-1,72
 683 237 683 237 683 271 c 2,73,-1
 683 386 l 2,74,75
 683 439 683 439 631 439 c 2,76,-1
 486 439 l 1,77,78
 512 594 512 594 614 595 c 0,79,80
 635 595 635 595 654.5 584.5 c 128,-1,81
 674 574 674 574 689.5 553 c 128,-1,82
 705 532 705 532 717.5 500 c 128,-1,83
 730 468 730 468 736 424 c 1,84,85
 742 397 742 397 746 386.5 c 128,-1,86
 750 376 750 376 758 376 c 0,87,88
 761 376 761 376 766.5 388 c 128,-1,89
 772 400 772 400 772 423 c 0,90,91
 772 482 772 482 761.5 531.5 c 128,-1,92
 751 581 751 581 730.5 616.5 c 128,-1,93
 710 652 710 652 681 672 c 128,-1,94
 652 692 652 692 614 692 c 0,95,96
 537 692 537 692 496 628 c 0,97,98
 454 563 454 563 444 439 c 1,99,-1
 0 439 l 1,100,-1
 0 327 l 1,101,-1
 52 327 l 1,102,103
 56 275 56 275 67.5 224 c 128,-1,104
 79 173 79 173 98 127 c 1,105,-1
 120 135 l 1,106,107
 125 150 125 150 129 176 c 128,-1,108
 133 202 133 202 136 231 c 128,-1,109
 139 260 139 260 142 286 c 128,-1,110
 145 312 145 312 146 327 c 1,111,-1
 248 327 l 1,112,113
 252 275 252 275 263 224 c 128,-1,114
 274 173 274 173 293 127 c 1,115,-1
 315 135 l 1,116,117
 320 150 320 150 324 176 c 128,-1,118
 328 202 328 202 331 231 c 128,-1,119
 334 260 334 260 337 286 c 128,-1,120
 340 312 340 312 341 327 c 9,121,-1
 444 327 l 17,61,62
EndSplineSet
Validated: 9
EndChar

StartChar: uniE051
Encoding: 57425 57425 81
Width: 915
Flags: W
LayerCount: 2
Fore
SplineSet
438 327 m 17,0,1
 440 297 440 297 454.5 260 c 128,-1,2
 469 223 469 223 491.5 187 c 128,-1,3
 514 151 514 151 544 119.5 c 128,-1,4
 574 88 574 88 608 71 c 1,5,6
 608 167 608 167 636 266 c 128,-1,7
 664 365 664 365 697 448.5 c 128,-1,8
 730 532 730 532 761.5 577.5 c 128,-1,9
 793 623 793 623 838 681 c 1,10,11
 824 709 824 709 811.5 733 c 128,-1,12
 799 757 799 757 788 780 c 128,-1,13
 777 803 777 803 765.5 826 c 128,-1,14
 754 849 754 849 739 877 c 0,15,16
 732 889 732 889 726 897.5 c 128,-1,17
 720 906 720 906 716 906 c 0,18,19
 704 906 704 906 699.5 898.5 c 128,-1,20
 695 891 695 891 695 874 c 0,21,22
 695 870 695 870 698.5 855.5 c 128,-1,23
 702 841 702 841 705 824 c 128,-1,24
 708 807 708 807 710.5 790.5 c 128,-1,25
 713 774 713 774 713 762 c 0,26,27
 713 742 713 742 693.5 669 c 128,-1,28
 674 596 674 596 631.5 489.5 c 128,-1,29
 589 383 589 383 575.5 320 c 128,-1,30
 562 257 562 257 559 226 c 0,31,32
 558 213 558 213 557 203 c 0,33,34
 557 187 557 187 560 178 c 1,35,36
 548 188 548 188 535 210.5 c 128,-1,37
 522 233 522 233 509.5 261.5 c 128,-1,38
 497 290 497 290 488 319.5 c 128,-1,39
 479 349 479 349 479 372 c 2,40,-1
 479 439 l 1,41,-1
 292 439 l 1,42,-1
 292 500 l 2,43,44
 292 539 292 539 280 565 c 128,-1,45
 268 591 268 591 246 597 c 1,46,-1
 232 684 l 1,47,-1
 257 684 l 2,48,49
 308 684 308 684 331.5 712 c 128,-1,50
 355 740 355 740 355 785 c 0,51,52
 355 802 355 802 351.5 818.5 c 128,-1,53
 348 835 348 835 335 851 c 1,54,55
 332 829 332 829 326 814 c 128,-1,56
 320 799 320 799 310 789.5 c 128,-1,57
 300 780 300 780 285 776 c 128,-1,58
 270 772 270 772 249 772 c 0,59,60
 229 772 229 772 213 768 c 128,-1,61
 197 764 197 764 190 758 c 1,62,-1
 216 597 l 1,63,64
 196 590 196 590 170.5 569 c 128,-1,65
 145 548 145 548 111 509 c 0,66,67
 102 499 102 499 93.5 489 c 128,-1,68
 85 479 85 479 78 472 c 1,69,70
 78 467 78 467 83.5 459 c 128,-1,71
 89 451 89 451 96 444 c 1,72,73
 100 444 100 444 108 452 c 128,-1,74
 116 460 116 460 131 470 c 0,75,76
 141 476 141 476 148.5 480.5 c 128,-1,77
 156 485 156 485 163 488 c 128,-1,78
 170 491 170 491 178 492.5 c 128,-1,79
 186 494 186 494 195 494 c 0,80,81
 209 494 209 494 215 479 c 128,-1,82
 221 464 221 464 221 439 c 2,83,-1
 221 347 l 2,84,85
 221 333 221 333 224 307.5 c 128,-1,86
 227 282 227 282 233 251 c 128,-1,87
 239 220 239 220 248 188 c 128,-1,88
 257 156 257 156 269 129 c 1,89,-1
 292 136 l 1,90,91
 300 184 300 184 306 232.5 c 128,-1,92
 312 281 312 281 314 327 c 9,93,-1
 438 327 l 17,0,1
EndSplineSet
Validated: 9
EndChar

StartChar: uniE052
Encoding: 57426 57426 82
Width: 748
Flags: W
LayerCount: 2
Fore
SplineSet
429 327 m 9,0,1
 298 327 l 17,2,3
 296 281 296 281 289.5 232.5 c 128,-1,4
 283 184 283 184 275 136 c 1,5,-1
 252 129 l 1,6,7
 240 156 240 156 231.5 188 c 128,-1,8
 223 220 223 220 216.5 251 c 128,-1,9
 210 282 210 282 207.5 307.5 c 128,-1,10
 205 333 205 333 205 347 c 2,11,-1
 205 439 l 2,12,13
 205 464 205 464 199 479 c 128,-1,14
 193 494 193 494 179 494 c 0,15,16
 169 494 169 494 161.5 492.5 c 128,-1,17
 154 491 154 491 147 488 c 128,-1,18
 140 485 140 485 132.5 480.5 c 128,-1,19
 125 476 125 476 115 470 c 0,20,21
 100 460 100 460 91.5 452 c 128,-1,22
 83 444 83 444 79 444 c 1,23,24
 72 451 72 451 67 459 c 128,-1,25
 62 467 62 467 62 472 c 1,26,27
 68 479 68 479 76.5 489 c 128,-1,28
 85 499 85 499 94 509 c 0,29,30
 128 548 128 548 154 569 c 128,-1,31
 180 590 180 590 200 597 c 1,32,-1
 174 758 l 1,33,34
 181 764 181 764 196.5 768 c 128,-1,35
 212 772 212 772 232 772 c 0,36,37
 253 772 253 772 268.5 776 c 128,-1,38
 284 780 284 780 294 789.5 c 128,-1,39
 304 799 304 799 310 814 c 128,-1,40
 316 829 316 829 319 851 c 1,41,42
 331 835 331 835 335 818.5 c 128,-1,43
 339 802 339 802 339 785 c 0,44,45
 339 740 339 740 315 712 c 128,-1,46
 291 684 291 684 240 684 c 2,47,-1
 216 684 l 1,48,-1
 229 597 l 1,49,50
 251 591 251 591 263 565 c 128,-1,51
 275 539 275 539 275 500 c 2,52,-1
 275 439 l 1,53,-1
 429 439 l 1,54,55
 437 550 437 550 471.5 610.5 c 128,-1,56
 506 671 506 671 567 671 c 0,57,58
 601 671 601 671 625 648 c 128,-1,59
 649 625 649 625 663 588 c 128,-1,60
 677 551 677 551 682.5 505 c 128,-1,61
 688 459 688 459 688 413 c 0,62,63
 688 394 688 394 685.5 385 c 128,-1,64
 683 376 683 376 675 376 c 0,65,66
 669 376 669 376 665 384 c 128,-1,67
 661 392 661 392 659 401 c 0,68,69
 653 428 653 428 646.5 457.5 c 128,-1,70
 640 487 640 487 630.5 512 c 128,-1,71
 621 537 621 537 605.5 554 c 128,-1,72
 590 571 590 571 566 571 c 0,73,74
 538 571 538 571 518 556.5 c 128,-1,75
 498 542 498 542 483.5 516.5 c 128,-1,76
 469 491 469 491 462 458 c 128,-1,77
 455 425 455 425 455 387 c 0,78,79
 455 356 455 356 475.5 306.5 c 128,-1,80
 496 257 496 257 537.5 220 c 128,-1,81
 579 183 579 183 586 176 c 1,82,-1
 556 79 l 1,83,-1
 546 79 l 1,84,85
 525 103 525 103 504 135 c 128,-1,86
 483 167 483 167 466 201.5 c 128,-1,87
 449 236 449 236 439 268.5 c 128,-1,88
 429 301 429 301 429 327 c 9,0,1
EndSplineSet
Validated: 1
EndChar

StartChar: uniE055
Encoding: 57429 57429 83
Width: 598
Flags: W
LayerCount: 2
Fore
SplineSet
432 327 m 17,0,1
 436 275 436 275 447 224 c 128,-1,2
 458 173 458 173 478 127 c 1,3,-1
 500 135 l 1,4,5
 505 150 505 150 508.5 176 c 128,-1,6
 512 202 512 202 515 231 c 128,-1,7
 518 260 518 260 521 286 c 128,-1,8
 524 312 524 312 525 327 c 1,9,-1
 653 327 l 1,10,-1
 653 439 l 1,11,-1
 279 439 l 1,12,-1
 279 500 l 2,13,14
 279 539 279 539 267 565 c 128,-1,15
 255 591 255 591 233 597 c 1,16,-1
 220 684 l 1,17,-1
 245 684 l 2,18,19
 296 684 296 684 319.5 712 c 128,-1,20
 343 740 343 740 343 785 c 0,21,22
 343 802 343 802 339 818.5 c 128,-1,23
 335 835 335 835 323 851 c 1,24,25
 320 829 320 829 314 814 c 128,-1,26
 308 799 308 799 298 789.5 c 128,-1,27
 288 780 288 780 273 776 c 128,-1,28
 258 772 258 772 237 772 c 0,29,30
 217 772 217 772 201 768 c 128,-1,31
 185 764 185 764 178 758 c 1,32,-1
 204 597 l 1,33,34
 184 590 184 590 158.5 569 c 128,-1,35
 133 548 133 548 99 509 c 0,36,37
 90 499 90 499 81.5 489 c 128,-1,38
 73 479 73 479 66 472 c 1,39,40
 66 467 66 467 71.5 459 c 128,-1,41
 77 451 77 451 83 444 c 1,42,43
 87 444 87 444 95.5 452 c 128,-1,44
 104 460 104 460 119 470 c 0,45,46
 129 476 129 476 136.5 480.5 c 128,-1,47
 144 485 144 485 151 488 c 128,-1,48
 158 491 158 491 166 492.5 c 128,-1,49
 174 494 174 494 183 494 c 0,50,51
 197 494 197 494 203 479 c 128,-1,52
 209 464 209 464 209 439 c 2,53,-1
 209 347 l 2,54,55
 209 333 209 333 212 307.5 c 128,-1,56
 215 282 215 282 221 251 c 128,-1,57
 227 220 227 220 236 188 c 128,-1,58
 245 156 245 156 257 129 c 1,59,-1
 279 136 l 1,60,61
 287 184 287 184 293.5 232.5 c 128,-1,62
 300 281 300 281 302 327 c 9,63,-1
 432 327 l 17,0,1
EndSplineSet
Validated: 9
EndChar

StartChar: uniE056
Encoding: 57430 57430 84
Width: 428
Flags: W
LayerCount: 2
Fore
SplineSet
257 327 m 9,0,1
 155 327 l 17,2,3
 154 312 154 312 151 286 c 128,-1,4
 148 260 148 260 145.5 231 c 128,-1,5
 143 202 143 202 139 176 c 128,-1,6
 135 150 135 150 130 135 c 1,7,-1
 108 127 l 1,8,9
 88 173 88 173 77 224 c 128,-1,10
 66 275 66 275 62 327 c 1,11,-1
 0 327 l 1,12,-1
 0 439 l 1,13,-1
 79 439 l 1,14,-1
 49 632 l 1,15,16
 57 638 57 638 72 642.5 c 128,-1,17
 87 647 87 647 108 647 c 0,18,19
 130 647 130 647 145 650.5 c 128,-1,20
 160 654 160 654 170.5 664 c 128,-1,21
 181 674 181 674 186.5 689 c 128,-1,22
 192 704 192 704 196 726 c 1,23,24
 207 709 207 709 211 693.5 c 128,-1,25
 215 678 215 678 215 660 c 0,26,27
 215 614 215 614 190.5 586.5 c 128,-1,28
 166 559 166 559 116 559 c 2,29,-1
 92 559 l 1,30,-1
 107 439 l 1,31,-1
 479 439 l 1,32,-1
 479 327 l 1,33,-1
 351 327 l 1,34,35
 350 312 350 312 347 286 c 128,-1,36
 344 260 344 260 341 231 c 128,-1,37
 338 202 338 202 334 176 c 128,-1,38
 330 150 330 150 325 135 c 1,39,-1
 303 127 l 1,40,41
 284 173 284 173 272.5 224 c 128,-1,42
 261 275 261 275 257 327 c 9,0,1
EndSplineSet
Validated: 1
EndChar

StartChar: uniE057
Encoding: 57431 57431 85
Width: 765
Flags: W
LayerCount: 2
Fore
SplineSet
336 439 m 21,0,-1
 336 372 l 6,1,2
 336 349 336 349 345 319.5 c 132,-1,3
 354 290 354 290 366.5 261.5 c 132,-1,4
 379 233 379 233 392 210.5 c 132,-1,5
 405 188 405 188 417 178 c 5,6,7
 414 187 414 187 414 203 c 4,8,9
 414 213 414 213 416 226 c 4,10,11
 419 257 419 257 432.5 320 c 132,-1,12
 446 383 446 383 488.5 489.5 c 132,-1,13
 531 596 531 596 550.5 669 c 132,-1,14
 570 742 570 742 570 762 c 4,15,16
 570 775 570 775 567 791 c 132,-1,17
 564 807 564 807 561.5 824 c 132,-1,18
 559 841 559 841 555.5 855.5 c 132,-1,19
 552 870 552 870 552 874 c 4,20,21
 552 891 552 891 556.5 898.5 c 132,-1,22
 561 906 561 906 573 906 c 4,23,24
 576 906 576 906 582.5 897.5 c 132,-1,25
 589 889 589 889 596 877 c 4,26,27
 611 849 611 849 622.5 826 c 132,-1,28
 634 803 634 803 645 780 c 132,-1,29
 656 757 656 757 668.5 733 c 132,-1,30
 681 709 681 709 695 681 c 5,31,32
 650 623 650 623 618.5 577.5 c 132,-1,33
 587 532 587 532 554 448.5 c 132,-1,34
 521 365 521 365 493 266 c 132,-1,35
 465 167 465 167 465 71 c 5,36,37
 430 89 430 89 400.5 120 c 132,-1,38
 371 151 371 151 348.5 187 c 132,-1,39
 326 223 326 223 311.5 260 c 132,-1,40
 297 297 297 297 295 327 c 5,41,-1
 150 327 l 5,42,43
 149 312 149 312 146.5 286 c 132,-1,44
 144 260 144 260 141 231 c 132,-1,45
 138 202 138 202 134 176 c 132,-1,46
 130 150 130 150 125 135 c 5,47,-1
 103 127 l 5,48,49
 83 173 83 173 72.5 224 c 132,-1,50
 62 275 62 275 57 327 c 5,51,-1
 0 327 l 5,52,-1
 0 439 l 5,53,-1
 74 439 l 5,54,-1
 44 632 l 5,55,56
 51 637 51 637 67 642 c 132,-1,57
 83 647 83 647 103 647 c 4,58,59
 125 647 125 647 140 650.5 c 132,-1,60
 155 654 155 654 165.5 664 c 132,-1,61
 176 674 176 674 181.5 689 c 132,-1,62
 187 704 187 704 191 726 c 5,63,64
 202 709 202 709 206 693 c 132,-1,65
 210 677 210 677 210 660 c 4,66,67
 210 614 210 614 186 586.5 c 132,-1,68
 162 559 162 559 111 559 c 6,69,-1
 87 559 l 5,70,-1
 102 439 l 13,71,-1
 336 439 l 21,0,-1
EndSplineSet
Validated: 1
EndChar

StartChar: uniE058
Encoding: 57432 57432 86
Width: 680
Flags: W
LayerCount: 2
Fore
SplineSet
620 214 m 2,0,-1
 620 11 l 2,1,2
 620 -31 620 -31 612 -62.5 c 128,-1,3
 604 -94 604 -94 589.5 -117.5 c 128,-1,4
 575 -141 575 -141 552.5 -157.5 c 128,-1,5
 530 -174 530 -174 501 -187 c 0,6,7
 484 -194 484 -194 474.5 -200 c 128,-1,8
 465 -206 465 -206 458 -212.5 c 128,-1,9
 451 -219 451 -219 446 -227.5 c 128,-1,10
 441 -236 441 -236 435 -250 c 1,11,-1
 423 -250 l 1,12,-1
 456 -110 l 1,13,14
 463 -108 463 -108 469.5 -106 c 128,-1,15
 476 -104 476 -104 483.5 -102 c 128,-1,16
 491 -100 491 -100 499.5 -95 c 128,-1,17
 508 -90 508 -90 521 -83 c 0,18,19
 528 -79 528 -79 537.5 -72.5 c 128,-1,20
 547 -66 547 -66 555 -55 c 128,-1,21
 563 -44 563 -44 569 -28 c 128,-1,22
 575 -12 575 -12 575 11 c 2,23,-1
 575 214 l 2,24,25
 575 270 575 270 554 298.5 c 128,-1,26
 533 327 533 327 496 327 c 2,27,-1
 395 327 l 1,28,-1
 395 439 l 1,29,-1
 496 439 l 2,30,31
 558 439 558 439 589 383.5 c 128,-1,32
 620 328 620 328 620 214 c 2,0,-1
418 585 m 1,33,34
 405 564 405 564 390 539.5 c 128,-1,35
 375 515 375 515 360 489 c 128,-1,36
 345 463 345 463 332 436 c 0,37,38
 315 402 315 402 309 384 c 0,39,40
 299 356 299 356 288.5 321 c 128,-1,41
 278 286 278 286 270 246.5 c 128,-1,42
 262 207 262 207 256 162.5 c 128,-1,43
 250 118 250 118 250 69 c 1,44,45
 216 87 216 87 185.5 118.5 c 128,-1,46
 155 150 155 150 132 186 c 128,-1,47
 109 222 109 222 95.5 259 c 128,-1,48
 82 296 82 296 78 327 c 1,49,-1
 0 327 l 1,50,-1
 0 439 l 1,51,-1
 62 439 l 1,52,-1
 34 632 l 1,53,54
 40 638 40 638 56 643 c 128,-1,55
 72 648 72 648 91 648 c 0,56,57
 113 648 113 648 129 651.5 c 128,-1,58
 145 655 145 655 154.5 665 c 128,-1,59
 164 675 164 675 170.5 690 c 128,-1,60
 177 705 177 705 179 727 c 1,61,62
 192 710 192 710 196 693.5 c 128,-1,63
 200 677 200 677 200 660 c 0,64,65
 200 615 200 615 176 587 c 0,66,67
 151.625 558.875 151.625 558.875 107.03515625 558.875 c 0,68,69
 104.0625 558.875 104.0625 558.875 101 559 c 2,70,-1
 76 560 l 1,71,-1
 90 439 l 1,72,-1
 121 439 l 1,73,-1
 121 371 l 2,74,75
 121 348 121 348 128 320 c 128,-1,76
 135 292 135 292 147 264.5 c 128,-1,77
 159 237 159 237 172.5 215.5 c 128,-1,78
 186 194 186 194 196 184 c 1,79,80
 196 205 196 205 199 233 c 128,-1,81
 202 261 202 261 207 293 c 128,-1,82
 212 325 212 325 220.5 360 c 128,-1,83
 229 395 229 395 244 432 c 1,84,85
 260 480 260 480 269.5 515.5 c 128,-1,86
 279 551 279 551 284 577.5 c 128,-1,87
 289 604 289 604 290 625 c 128,-1,88
 291 646 291 646 291 669 c 0,89,90
 291 679 291 679 288 695.5 c 128,-1,91
 285 712 285 712 281.5 729 c 128,-1,92
 278 746 278 746 275.5 759.5 c 128,-1,93
 273 773 273 773 273 779 c 0,94,95
 273 795 273 795 277.5 803 c 128,-1,96
 282 811 282 811 295 811 c 0,97,98
 299 811 299 811 306.5 802 c 128,-1,99
 314 793 314 793 321.5 779.5 c 128,-1,100
 329 766 329 766 337 747 c 0,101,102
 349 720 349 720 355 709 c 0,103,104
 377 668 377 668 394 638 c 128,-1,105
 411 608 411 608 418 585 c 1,33,34
EndSplineSet
Validated: 1
EndChar

StartChar: uniE059
Encoding: 57433 57433 87
Width: 648
Flags: W
LayerCount: 2
Fore
SplineSet
434 428 m 1049,0,-1
429 327 m 9,1,-1
 303 327 l 17,2,3
 301 281 301 281 294.5 232.5 c 128,-1,4
 288 184 288 184 280 136 c 1,5,-1
 257 129 l 1,6,7
 245 156 245 156 236.5 188 c 128,-1,8
 228 220 228 220 221.5 251 c 128,-1,9
 215 282 215 282 212 307.5 c 128,-1,10
 209 333 209 333 209 347 c 2,11,-1
 209 439 l 2,12,13
 209 464 209 464 203.5 479 c 128,-1,14
 198 494 198 494 184 494 c 0,15,16
 174 494 174 494 166.5 492.5 c 128,-1,17
 159 491 159 491 152 488 c 128,-1,18
 145 485 145 485 137.5 480.5 c 128,-1,19
 130 476 130 476 120 470 c 0,20,21
 104 460 104 460 96 452 c 128,-1,22
 88 444 88 444 84 444 c 1,23,24
 77 451 77 451 71.5 459 c 128,-1,25
 66 467 66 467 66 472 c 1,26,27
 73 479 73 479 81.5 489 c 128,-1,28
 90 499 90 499 99 509 c 0,29,30
 133 548 133 548 159 569 c 128,-1,31
 185 590 185 590 205 597 c 1,32,-1
 179 758 l 1,33,34
 186 764 186 764 201.5 768 c 128,-1,35
 217 772 217 772 237 772 c 0,36,37
 258 772 258 772 273.5 776 c 128,-1,38
 289 780 289 780 299 789.5 c 128,-1,39
 309 799 309 799 315 814 c 128,-1,40
 321 829 321 829 324 851 c 1,41,42
 336 835 336 835 340 818.5 c 128,-1,43
 344 802 344 802 344 785 c 0,44,45
 344 740 344 740 320 712 c 128,-1,46
 296 684 296 684 245 684 c 2,47,-1
 221 684 l 1,48,-1
 234 597 l 1,49,50
 256 591 256 591 268 565 c 128,-1,51
 280 539 280 539 280 500 c 2,52,-1
 280 439 l 1,53,-1
 702 439 l 1,54,-1
 702 327 l 1,55,-1
 471 327 l 1,56,-1
 599 146 l 1,57,-1
 599 130 l 1,58,-1
 572 2 l 1,59,-1
 557 2 l 1,60,-1
 429 327 l 9,1,-1
EndSplineSet
Validated: 1
EndChar

StartChar: uniE05A
Encoding: 57434 57434 88
Width: 517
Flags: W
LayerCount: 2
Fore
SplineSet
571 439 m 17,0,-1
 571 327 l 1,1,-1
 340 327 l 1,2,-1
 468 146 l 1,3,-1
 468 130 l 1,4,-1
 441 2 l 1,5,-1
 426 2 l 1,6,-1
 298 327 l 1,7,-1
 150 327 l 1,8,9
 149 312 149 312 146.5 286 c 128,-1,10
 144 260 144 260 141 231 c 128,-1,11
 138 202 138 202 134 176 c 128,-1,12
 130 150 130 150 125 135 c 1,13,-1
 103 127 l 1,14,15
 83 173 83 173 72.5 224 c 128,-1,16
 62 275 62 275 57 327 c 1,17,-1
 0 327 l 1,18,-1
 0 439 l 1,19,-1
 74 439 l 1,20,-1
 44 632 l 1,21,22
 51 637 51 637 67 642 c 128,-1,23
 83 647 83 647 103 647 c 0,24,25
 125 647 125 647 140 650.5 c 128,-1,26
 155 654 155 654 165.5 664 c 128,-1,27
 176 674 176 674 181.5 689 c 128,-1,28
 187 704 187 704 191 726 c 1,29,30
 202 709 202 709 206 693 c 128,-1,31
 210 677 210 677 210 660 c 0,32,33
 210 614 210 614 186 586.5 c 128,-1,34
 162 559 162 559 111 559 c 2,35,-1
 87 559 l 1,36,-1
 102 439 l 9,37,-1
 571 439 l 17,0,-1
EndSplineSet
Validated: 1
EndChar

StartChar: uniE05B
Encoding: 57435 57435 89
Width: 565
Flags: W
LayerCount: 2
Fore
SplineSet
254 439 m 17,0,1
 262 550 262 550 296.5 610.5 c 128,-1,2
 331 671 331 671 392 671 c 0,3,4
 426 671 426 671 450.5 648 c 128,-1,5
 475 625 475 625 488.5 588 c 128,-1,6
 502 551 502 551 507.5 505 c 128,-1,7
 513 459 513 459 513 413 c 0,8,9
 513 393 513 393 510.5 384.5 c 128,-1,10
 508 376 508 376 500 376 c 0,11,12
 494 376 494 376 490 384 c 0,13,14
 485 394 485 394 484 401 c 0,15,16
 478 428 478 428 471.5 457.5 c 128,-1,17
 465 487 465 487 455.5 512 c 128,-1,18
 446 537 446 537 430.5 554 c 128,-1,19
 415 571 415 571 391 571 c 0,20,21
 363 571 363 571 343 556.5 c 128,-1,22
 323 542 323 542 308.5 516.5 c 128,-1,23
 294 491 294 491 287 457.5 c 128,-1,24
 280 424 280 424 280 387 c 0,25,26
 280 356 280 356 300.5 306.5 c 128,-1,27
 321 257 321 257 362.5 220 c 128,-1,28
 404 183 404 183 411 176 c 1,29,-1
 381 79 l 1,30,-1
 372 79 l 1,31,32
 351 103 351 103 329.5 135 c 128,-1,33
 308 167 308 167 291 201.5 c 128,-1,34
 274 236 274 236 264 268.5 c 128,-1,35
 254 301 254 301 254 327 c 1,36,-1
 150 327 l 1,37,38
 149 312 149 312 146.5 286 c 128,-1,39
 144 260 144 260 141 231 c 128,-1,40
 138 202 138 202 134 176 c 128,-1,41
 130 150 130 150 125 135 c 1,42,-1
 103 127 l 1,43,44
 83 173 83 173 72.5 224 c 128,-1,45
 62 275 62 275 57 327 c 1,46,-1
 0 327 l 1,47,-1
 0 439 l 1,48,-1
 74 439 l 1,49,-1
 44 632 l 1,50,51
 51 637 51 637 67 642 c 128,-1,52
 83 647 83 647 103 647 c 0,53,54
 125 647 125 647 140 650.5 c 128,-1,55
 155 654 155 654 165.5 664 c 128,-1,56
 176 674 176 674 181.5 689 c 128,-1,57
 187 704 187 704 191 726 c 1,58,59
 202 709 202 709 206 693 c 128,-1,60
 210 677 210 677 210 660 c 0,61,62
 210 614 210 614 186 586.5 c 128,-1,63
 162 559 162 559 111 559 c 2,64,-1
 87 559 l 1,65,-1
 102 439 l 9,66,-1
 254 439 l 17,0,1
EndSplineSet
Validated: 1
EndChar

StartChar: uniE053
Encoding: 57427 57427 90
Width: 708
Flags: W
LayerCount: 2
Fore
SplineSet
458 327 m 1,0,-1
 458 243 l 2,1,2
 458 207 458 207 480.5 189.5 c 128,-1,3
 503 172 503 172 539 172 c 0,4,5
 574 172 574 172 593.5 189.5 c 128,-1,6
 613 207 613 207 613 243 c 2,7,-1
 613 327 l 1,8,-1
 458 327 l 1,0,-1
426 327 m 9,9,-1
 295 327 l 17,10,11
 293 281 293 281 286.5 232.5 c 128,-1,12
 280 184 280 184 272 136 c 1,13,-1
 250 129 l 1,14,15
 237 156 237 156 228.5 188 c 128,-1,16
 220 220 220 220 214 251 c 128,-1,17
 208 282 208 282 205 307.5 c 128,-1,18
 202 333 202 333 202 347 c 2,19,-1
 202 439 l 2,20,21
 202 464 202 464 196 479 c 128,-1,22
 190 494 190 494 176 494 c 0,23,24
 167 494 167 494 159 492.5 c 128,-1,25
 151 491 151 491 144 488 c 128,-1,26
 137 485 137 485 129.5 480.5 c 128,-1,27
 122 476 122 476 112 470 c 0,28,29
 97 460 97 460 88.5 452 c 128,-1,30
 80 444 80 444 76 444 c 1,31,32
 69 451 69 451 64 459 c 128,-1,33
 59 467 59 467 59 472 c 1,34,35
 65 479 65 479 73.5 489 c 128,-1,36
 82 499 82 499 91 509 c 0,37,38
 125 548 125 548 151 569 c 128,-1,39
 177 590 177 590 197 597 c 1,40,-1
 171 758 l 1,41,42
 178 764 178 764 193.5 768 c 128,-1,43
 209 772 209 772 229 772 c 0,44,45
 250 772 250 772 265.5 776 c 128,-1,46
 281 780 281 780 291 789.5 c 128,-1,47
 301 799 301 799 307 814 c 128,-1,48
 313 829 313 829 316 851 c 1,49,50
 328 835 328 835 332 818.5 c 128,-1,51
 336 802 336 802 336 785 c 0,52,53
 336 740 336 740 312 712 c 128,-1,54
 288 684 288 684 237 684 c 2,55,-1
 213 684 l 1,56,-1
 226 597 l 1,57,58
 248 591 248 591 260 565 c 128,-1,59
 272 539 272 539 272 500 c 2,60,-1
 272 439 l 1,61,-1
 647 439 l 1,62,-1
 647 243 l 2,63,64
 647 168 647 168 621 126 c 128,-1,65
 595 84 595 84 538 84 c 0,66,67
 482 84 482 84 454 126 c 128,-1,68
 426 168 426 168 426 243 c 2,69,-1
 426 327 l 9,9,-1
EndSplineSet
Validated: 1
EndChar

StartChar: uniE054
Encoding: 57428 57428 91
Width: 940
Flags: W
LayerCount: 2
Fore
SplineSet
470 327 m 5,0,-1
 625 327 l 5,1,-1
 625 243 l 6,2,3
 625 207 625 207 605.5 189.5 c 132,-1,4
 586 172 586 172 551 172 c 4,5,6
 515 172 515 172 492.5 189.5 c 132,-1,7
 470 207 470 207 470 243 c 6,8,-1
 470 327 l 5,0,-1
438 327 m 17,9,-1
 438 243 l 2,10,11
 438 168 438 168 466 126 c 128,-1,12
 494 84 494 84 550 84 c 0,13,14
 607 84 607 84 633 126 c 128,-1,15
 659 168 659 168 659 243 c 2,16,-1
 659 327 l 1,17,-1
 726 327 l 1,18,19
 774 325 774 325 799 287.5 c 128,-1,20
 824 250 824 250 824 183 c 2,21,-1
 824 172 l 1,22,23
 842 172 842 172 854.5 193 c 128,-1,24
 867 214 867 214 867 250 c 2,25,-1
 867 309 l 2,26,27
 867 368 867 368 840.5 402 c 128,-1,28
 814 436 814 436 769 439 c 1,29,-1
 284 439 l 1,30,-1
 284 500 l 2,31,32
 284 539 284 539 272 565 c 128,-1,33
 260 591 260 591 238 597 c 1,34,-1
 225 684 l 1,35,-1
 249 684 l 2,36,37
 300 684 300 684 324 712 c 128,-1,38
 348 740 348 740 348 785 c 0,39,40
 348 802 348 802 344 818.5 c 128,-1,41
 340 835 340 835 328 851 c 1,42,43
 325 829 325 829 318.5 814 c 128,-1,44
 312 799 312 799 302 789.5 c 128,-1,45
 292 780 292 780 277 776 c 128,-1,46
 262 772 262 772 241 772 c 0,47,48
 221 772 221 772 205 768 c 128,-1,49
 189 764 189 764 183 758 c 1,50,-1
 208 597 l 1,51,52
 188 590 188 590 162.5 569 c 128,-1,53
 137 548 137 548 103 509 c 0,54,55
 94 499 94 499 85.5 489 c 128,-1,56
 77 479 77 479 70 472 c 1,57,58
 70 467 70 467 75.5 459 c 128,-1,59
 81 451 81 451 88 444 c 1,60,61
 92 444 92 444 100 452 c 128,-1,62
 108 460 108 460 124 470 c 0,63,64
 134 476 134 476 141 480.5 c 128,-1,65
 148 485 148 485 155.5 488 c 128,-1,66
 163 491 163 491 170.5 492.5 c 128,-1,67
 178 494 178 494 188 494 c 0,68,69
 202 494 202 494 207.5 479 c 128,-1,70
 213 464 213 464 213 439 c 2,71,-1
 213 347 l 2,72,73
 213 333 213 333 216 307.5 c 128,-1,74
 219 282 219 282 225 251 c 128,-1,75
 231 220 231 220 240 188 c 128,-1,76
 249 156 249 156 261 129 c 1,77,-1
 284 136 l 1,78,79
 292 184 292 184 298.5 232.5 c 128,-1,80
 305 281 305 281 307 327 c 9,81,-1
 438 327 l 17,9,-1
EndSplineSet
Validated: 9
EndChar

StartChar: uniE05C
Encoding: 57436 57436 92
Width: 696
Flags: W
LayerCount: 2
Fore
SplineSet
459 327 m 1,0,-1
 459 243 l 2,1,2
 459 207 459 207 481.5 189.5 c 128,-1,3
 504 172 504 172 541 172 c 0,4,5
 576 172 576 172 595.5 189.5 c 128,-1,6
 615 207 615 207 615 243 c 2,7,-1
 615 327 l 1,8,-1
 459 327 l 1,0,-1
745 439 m 17,9,-1
 745 327 l 1,10,-1
 649 327 l 1,11,-1
 649 243 l 2,12,13
 649 168 649 168 622.5 126 c 128,-1,14
 596 84 596 84 540 84 c 0,15,16
 484 84 484 84 455.5 126 c 128,-1,17
 427 168 427 168 427 243 c 2,18,-1
 427 327 l 1,19,-1
 296 327 l 1,20,21
 294 281 294 281 287.5 232.5 c 128,-1,22
 281 184 281 184 273 136 c 1,23,-1
 251 129 l 1,24,25
 239 156 239 156 230 188 c 128,-1,26
 221 220 221 220 215 251 c 128,-1,27
 209 282 209 282 206 307.5 c 128,-1,28
 203 333 203 333 203 347 c 2,29,-1
 203 439 l 2,30,31
 203 463 203 463 197 478.5 c 128,-1,32
 191 494 191 494 177 494 c 0,33,34
 168 494 168 494 160 492.5 c 128,-1,35
 152 491 152 491 145 488 c 128,-1,36
 138 485 138 485 130.5 481 c 128,-1,37
 123 477 123 477 113 470 c 0,38,39
 98 460 98 460 90 452 c 128,-1,40
 82 444 82 444 78 444 c 1,41,42
 71 451 71 451 65.5 458.5 c 128,-1,43
 60 466 60 466 60 472 c 1,44,45
 67 479 67 479 75.5 489.5 c 128,-1,46
 84 500 84 500 93 509 c 0,47,48
 127 548 127 548 153 569 c 128,-1,49
 179 590 179 590 198 597 c 1,50,-1
 172 758 l 1,51,52
 179 764 179 764 195 768 c 128,-1,53
 211 772 211 772 231 772 c 0,54,55
 252 772 252 772 267 776 c 128,-1,56
 282 780 282 780 292 789.5 c 128,-1,57
 302 799 302 799 308 814 c 128,-1,58
 314 829 314 829 317 851 c 1,59,60
 329 835 329 835 333 818.5 c 128,-1,61
 337 802 337 802 337 785 c 0,62,63
 337 740 337 740 313.5 712 c 128,-1,64
 290 684 290 684 239 684 c 2,65,-1
 214 684 l 1,66,-1
 228 597 l 1,67,68
 250 591 250 591 261.5 565 c 128,-1,69
 273 539 273 539 273 500 c 2,70,-1
 273 439 l 9,71,-1
 745 439 l 17,9,-1
EndSplineSet
Validated: 1
EndChar

StartChar: uniE05D
Encoding: 57437 57437 93
Width: 570
Flags: W
LayerCount: 2
Fore
SplineSet
335 327 m 1,0,-1
 335 243 l 2,1,2
 335 207 335 207 357.5 189.5 c 128,-1,3
 380 172 380 172 416 172 c 0,4,5
 451 172 451 172 470.5 189.5 c 128,-1,6
 490 207 490 207 490 243 c 2,7,-1
 490 327 l 1,8,-1
 335 327 l 1,0,-1
620 439 m 17,9,-1
 620 327 l 1,10,-1
 524 327 l 1,11,-1
 524 243 l 2,12,13
 524 168 524 168 498 126 c 128,-1,14
 472 84 472 84 415 84 c 0,15,16
 359 84 359 84 331 126 c 128,-1,17
 303 168 303 168 303 243 c 2,18,-1
 303 327 l 1,19,-1
 150 327 l 1,20,21
 149 312 149 312 146.5 286 c 128,-1,22
 144 260 144 260 141 231 c 128,-1,23
 138 202 138 202 134 176 c 128,-1,24
 130 150 130 150 125 135 c 1,25,-1
 103 127 l 1,26,27
 83 173 83 173 72.5 224 c 128,-1,28
 62 275 62 275 57 327 c 1,29,30
 0 327 l 1,31,-1
 0 439 l 1,32,-1
 74 439 l 1,33,-1
 44 632 l 1,34,35
 51 637 51 637 67 642 c 128,-1,36
 83 647 83 647 103 647 c 0,37,38
 125 647 125 647 140 650.5 c 128,-1,39
 155 654 155 654 165.5 664 c 128,-1,40
 176 674 176 674 181.5 689 c 128,-1,41
 187 704 187 704 191 726 c 1,42,43
 202 709 202 709 206 693 c 128,-1,44
 210 677 210 677 210 660 c 0,45,46
 210 614 210 614 186 586.5 c 128,-1,47
 162 559 162 559 111 559 c 2,48,-1
 87 559 l 1,49,-1
 102 439 l 9,50,-1
 620 439 l 17,9,-1
EndSplineSet
Validated: 1
EndChar

StartChar: uniE05E
Encoding: 57438 57438 94
Width: 646
Flags: W
LayerCount: 2
Fore
SplineSet
294 327 m 5,0,1
 455 327 l 5,2,3
 455 294 455 294 453.5 265.5 c 132,-1,4
 452 237 452 237 444.5 216.5 c 132,-1,5
 437 196 437 196 420 184.5 c 132,-1,6
 403 173 403 173 374 173 c 260,7,8
 344 173 344 173 328 185.5 c 132,-1,9
 312 198 312 198 304 218.5 c 132,-1,10
 296 239 296 239 295 266.5 c 132,-1,11
 294 294 294 294 294 327 c 5,0,1
254 327 m 17,12,13
 254 306 254 306 255.5 280 c 128,-1,14
 257 254 257 254 262 227 c 128,-1,15
 267 200 267 200 275 175 c 128,-1,16
 283 150 283 150 297 130 c 128,-1,17
 311 110 311 110 329 98.5 c 128,-1,18
 347 87 347 87 374 87 c 0,19,20
 409 87 409 87 432 102.5 c 128,-1,21
 455 118 455 118 469 144.5 c 128,-1,22
 483 171 483 171 488 204 c 128,-1,23
 493 237 493 237 493 271 c 2,24,-1
 493 386 l 2,25,26
 493 439 493 439 441 439 c 2,27,-1
 296 439 l 1,28,29
 322 594 322 594 424 595 c 0,30,31
 445 595 445 595 464.5 584.5 c 128,-1,32
 484 574 484 574 499.5 553 c 128,-1,33
 515 532 515 532 528 500 c 128,-1,34
 541 468 541 468 546 424 c 1,35,36
 552 397 552 397 556 386.5 c 128,-1,37
 560 376 560 376 568 376 c 0,38,39
 571 376 571 376 576.5 388 c 128,-1,40
 582 400 582 400 582 423 c 0,41,42
 582 482 582 482 571.5 531.5 c 128,-1,43
 561 581 561 581 541 616.5 c 128,-1,44
 521 652 521 652 491.5 672 c 128,-1,45
 462 692 462 692 424 692 c 0,46,47
 347 692 347 692 306 628 c 0,48,49
 264 563 264 563 254 439 c 1,50,-1
 102 439 l 1,51,-1
 87 559 l 1,52,-1
 111 559 l 2,53,54
 161 559 161 559 185.5 586.5 c 128,-1,55
 210 614 210 614 210 660 c 0,56,57
 210 678 210 678 206 693.5 c 128,-1,58
 202 709 202 709 191 726 c 1,59,60
 187 704 187 704 181.5 689 c 128,-1,61
 176 674 176 674 165.5 664 c 128,-1,62
 155 654 155 654 140 650.5 c 128,-1,63
 125 647 125 647 103 647 c 0,64,65
 82 647 82 647 67 642.5 c 128,-1,66
 52 638 52 638 44 632 c 1,67,-1
 74 439 l 1,68,-1
 0 439 l 1,69,-1
 0 327 l 1,70,-1
 57 327 l 1,71,72
 61 275 61 275 72 224 c 128,-1,73
 83 173 83 173 103 127 c 1,74,-1
 125 135 l 1,75,76
 130 150 130 150 134 176 c 128,-1,77
 138 202 138 202 141 231 c 128,-1,78
 144 260 144 260 146.5 286 c 128,-1,79
 149 312 149 312 150 327 c 9,80,-1
 254 327 l 17,12,13
EndSplineSet
Validated: 9
EndChar

